<svg width="47" height="39" viewBox="0 0 47 39" fill="none" xmlns="http://www.w3.org/2000/svg">
<path d="M41.9648 6.44629H34.8309L33.1314 1.78468C33.0139 1.4657 32.7988 1.18998 32.5152 0.995174C32.2317 0.800371 31.8936 0.69599 31.5472 0.69629H15.4539C14.7458 0.69629 14.111 1.13267 13.875 1.78468L12.1702 6.44629H5.03627C2.71775 6.44629 0.839844 8.28424 0.839844 10.5534V33.9641C0.839844 36.2333 2.71775 38.0713 5.03627 38.0713H41.9648C44.2834 38.0713 46.1613 36.2333 46.1613 33.9641V10.5534C46.1613 8.28424 44.2834 6.44629 41.9648 6.44629ZM42.3845 33.9641C42.3845 34.19 42.1956 34.3749 41.9648 34.3749H5.03627C4.80547 34.3749 4.61663 34.19 4.61663 33.9641V10.5534C4.61663 10.3275 4.80547 10.1427 5.03627 10.1427H14.8297L15.7267 7.6887L16.9279 4.39272H30.068L31.2692 7.6887L32.1662 10.1427H41.9648C42.1956 10.1427 42.3845 10.3275 42.3845 10.5534V33.9641ZM23.5006 13.4284C18.8635 13.4284 15.1077 17.1043 15.1077 21.6427C15.1077 26.1811 18.8635 29.857 23.5006 29.857C28.1376 29.857 31.8934 26.1811 31.8934 21.6427C31.8934 17.1043 28.1376 13.4284 23.5006 13.4284ZM23.5006 26.5713C20.7204 26.5713 18.4648 24.3637 18.4648 21.6427C18.4648 18.9217 20.7204 16.7141 23.5006 16.7141C26.2807 16.7141 28.5363 18.9217 28.5363 21.6427C28.5363 24.3637 26.2807 26.5713 23.5006 26.5713Z" fill="#8EC2B0"/>
</svg>
