<svg width="33" height="33" viewBox="0 0 33 33" fill="none" xmlns="http://www.w3.org/2000/svg">
<path d="M31.4487 0.3125H21.0424C20.9061 0.3125 20.7946 0.423996 20.7946 0.560268V2.87277C20.7946 3.00904 20.9061 3.12054 21.0424 3.12054H27.6661L19.4361 11.3506C17.3713 9.76072 14.8523 8.90179 12.2054 8.90179C9.0298 8.90179 6.04007 10.1406 3.79777 12.3871C1.55547 14.6335 0.3125 17.6191 0.3125 20.7946C0.3125 23.9702 1.55134 26.9599 3.79777 29.2022C6.04007 31.4487 9.0298 32.6875 12.2054 32.6875C15.3809 32.6875 18.3706 31.4487 20.6129 29.2022C22.8594 26.9599 24.0982 23.9702 24.0982 20.7946C24.0982 18.1477 23.2393 15.6369 21.6536 13.5722L29.8795 5.34632V11.9576C29.8795 12.0939 29.991 12.2054 30.1272 12.2054H32.4397C32.576 12.2054 32.6875 12.0939 32.6875 11.9576V1.55134C32.6875 0.869978 32.13 0.3125 31.4487 0.3125ZM12.2054 29.5491C7.37801 29.5491 3.45089 25.622 3.45089 20.7946C3.45089 15.9673 7.37801 12.0402 12.2054 12.0402C17.0327 12.0402 20.9598 15.9673 20.9598 20.7946C20.9598 25.622 17.0327 29.5491 12.2054 29.5491Z" fill="#FFFFFF"/>
</svg>
