<svg width="81" height="81" viewBox="0 0 81 81" fill="none" xmlns="http://www.w3.org/2000/svg">
<g clip-path="url(#clip0_550_231)">
<path d="M50 44.5C48.5361 39.3198 44.7102 36.0707 39.5596 34.5078C34.4089 32.9449 28.8887 34.0977 24.7934 37.591L14.924 46.0081C13.2866 47.4044 11.9823 48.9027 11.4998 50.9999C14.3174 50.9999 12.4998 50.9791 14.924 50.9999C17.3483 51.0207 16.5 51 19 51C21.5 51 23.7859 51 26 51C28.2141 51 32 51 37 51C39.5 50.5 39.4998 50.5 40.9998 50C43.9998 49 42.9998 49.5 44 49C46.2814 47.8595 46.2096 47.6352 47 47.5C47.2096 47.1352 47.5 47 48 46.5C49.5 45 49 45.5 49.5 45L50 44.5Z" fill="#D383AC" fill-opacity="0.28"/>
<path d="M19.9027 36.0922C22.1277 35.9315 24.1289 34.785 25.5375 32.8638C26.8782 31.0357 27.5203 28.7074 27.3453 26.3071C27.1694 23.9082 26.1961 21.698 24.6045 20.0832C22.9326 18.3874 20.7867 17.5427 18.5645 17.7059C14.0951 18.0302 10.7575 22.4189 11.1242 27.4916C11.4211 31.5307 13.9802 34.8 17.2677 35.7976C18.1071 36.0523 18.9941 36.1588 19.9027 36.0922Z" fill="#D383AC" fill-opacity="0.28"/>
<path d="M35.3844 31.8486C40.388 33.3669 45.8661 29.9644 47.596 24.2637C49.3262 18.5616 46.663 12.6876 41.6594 11.1693C36.6563 9.65113 31.1783 13.0548 29.4481 18.7569C27.7183 24.4575 30.3813 30.3305 35.3844 31.8486Z" fill="#D383AC" fill-opacity="0.28"/>
<path d="M50.2854 39.1441C50.9775 39.6331 51.7262 39.9936 52.5081 40.2309C54.4994 40.8351 54.9994 36.4993 54.9994 35.9993C55.9994 33.9993 55.9998 32.5002 55.9998 30.0001C55.771 27.46 56.0001 27.4196 56 25.5C56 23 56.9994 21.0002 54.8673 21.8222C52.5067 22.4246 50.3841 23.9203 48.8906 26.033C45.7394 30.4896 46.3651 36.3712 50.2854 39.1441Z" fill="#D383AC" fill-opacity="0.28"/>
</g>
<defs>
<clipPath id="clip0_550_231">
<rect width="64.559" height="64.559" fill="white" transform="translate(18.7461) rotate(16.88)"/>
</clipPath>
</defs>
</svg>
