<svg width="22" height="35" viewBox="0 0 22 35" fill="none" xmlns="http://www.w3.org/2000/svg">
<path d="M18.7775 18.9375C20.8535 16.8438 22 14.0547 22 11.0938C22 8.12891 20.8574 5.34375 18.7775 3.25C16.7014 1.15625 13.9359 0 11 0C8.06408 0 5.29859 1.15234 3.22254 3.25C1.14648 5.34766 0 8.12891 0 11.0938C0 13.5859 0.809507 15.9531 2.3007 17.8867C2.58345 18.2539 2.88944 18.6016 3.21866 18.9375C3.54789 19.2695 3.89648 19.5781 4.25669 19.8633C5.79049 21.0664 7.5993 21.832 9.52817 22.0898V26.25H5.11268C4.94225 26.25 4.80282 26.3906 4.80282 26.5625V28.9062C4.80282 29.0781 4.94225 29.2188 5.11268 29.2188H9.52817V34.6875C9.52817 34.8594 9.66761 35 9.83803 35H12.162C12.3324 35 12.4718 34.8594 12.4718 34.6875V29.2188H16.8873C17.0577 29.2188 17.1972 29.0781 17.1972 28.9062V26.5625C17.1972 26.3906 17.0577 26.25 16.8873 26.25H12.4718V22.0898C14.8539 21.7695 17.05 20.6797 18.7775 18.9375ZM11 19.2188C8.84648 19.2188 6.82852 18.375 5.30246 16.8398C3.78028 15.3047 2.94366 13.2656 2.94366 11.0938C2.94366 8.92188 3.78028 6.88672 5.30246 5.34766C6.82465 3.80859 8.84648 2.96875 11 2.96875C13.1535 2.96875 15.1715 3.8125 16.6975 5.34766C18.2197 6.88281 19.0563 8.92188 19.0563 11.0938C19.0563 13.2656 18.2197 15.3008 16.6975 16.8398C15.1715 18.375 13.1535 19.2188 11 19.2188Z" fill="white"/>
</svg>
