<svg width="71" height="70" viewBox="0 0 71 70" fill="none" xmlns="http://www.w3.org/2000/svg">
<g clip-path="url(#clip0_549_98)">
<path d="M43.662 39.4347C42.3928 34.9434 38.9692 31.4528 34.5036 30.0978C30.038 28.7427 25.252 29.7422 21.7014 32.7709L13.1446 40.0685C11.725 41.2791 10.7534 42.8809 10.3351 44.6992C9.91664 46.518 10.0911 48.3828 10.8391 50.0931C11.5882 51.8025 12.8408 53.1956 14.4612 54.122C16.0817 55.0483 17.9182 54.3445 19.7717 54.122C24.4245 53.5979 28.2814 46.4158 31.838 49.4662C33.3093 47.368 32.913 47.6515 34.0449 47.9949C37.723 42.8456 35.596 45.0061 36.2518 45.0525C38.1136 45.1832 31.736 48.2644 33.3093 47.2593C34.8816 46.2544 35.15 47.7581 35.8133 46.0133C36.4767 44.2684 38.3212 46.4954 37.814 44.6992L43.662 39.4347Z" fill="white" fill-opacity="0.66"/>
<path d="M17.463 31.4717C19.392 31.3323 21.1271 30.3383 22.3483 28.6726C23.5107 27.0877 24.0675 25.069 23.9157 22.988C23.7632 20.9081 22.9193 18.9919 21.5395 17.5919C20.0899 16.1216 18.2294 15.3892 16.3028 15.5307C12.4278 15.8119 9.53405 19.6169 9.85202 24.015C10.1095 27.5168 12.3281 30.3513 15.1784 31.2162C15.9062 31.437 16.6752 31.5294 17.463 31.4717Z" fill="white" fill-opacity="0.66"/>
<path d="M30.8853 27.7927C35.2234 29.109 39.9729 26.159 41.4727 21.2165C42.9728 16.2728 40.6638 11.18 36.3257 9.86365C31.988 8.54741 27.2386 11.4984 25.7385 16.4421C24.2387 21.3846 26.5476 26.4764 30.8853 27.7927Z" fill="white" fill-opacity="0.66"/>
<path d="M43.8027 34.1181L43.8031 34.1183C44.4032 34.5422 45.0519 34.8546 45.7298 35.0604C48.8935 36.0203 52.6754 34.6532 54.9257 31.4714C56.2213 29.6399 56.8304 27.4725 56.6405 25.3687C56.4421 23.1665 55.4034 21.2965 53.7155 20.1029C52.0271 18.9091 49.9176 18.5533 47.7752 19.1C45.7286 19.6223 43.8883 20.919 42.5935 22.7508C39.8613 26.6146 40.4038 31.714 43.8027 34.1181Z" fill="white" fill-opacity="0.66"/>
</g>
<defs>
<clipPath id="clip0_549_98">
<rect width="55.9727" height="55.9727" fill="white" transform="translate(16.459 0.179688) rotate(16.88)"/>
</clipPath>
</defs>
</svg>
