<?xml version="1.0"?>
<svg xmlns="http://www.w3.org/2000/svg" xmlns:xlink="http://www.w3.org/1999/xlink" xmlns:svgjs="http://svgjs.com/svgjs" version="1.1" width="512" height="512" x="0" y="0" viewBox="0 0 512 512" style="enable-background:new 0 0 512 512" xml:space="preserve" class=""><g>
<g xmlns="http://www.w3.org/2000/svg">
	<g>
		<path d="M493.971,78.006C477.534,52.94,450.749,37.155,414.36,31.09c-24.367-4.059-46.812,2.381-66.628,19.169    C328.8,66.295,274.636,128.764,256,325.503c-18.635-196.738-72.799-259.207-91.731-275.243    C144.443,33.48,122.04,27.003,97.64,31.09c-36.389,6.065-63.174,21.85-79.611,46.916c-28.145,42.932-15.078,96.981-14.511,99.259    c1.289,5.146,6.524,8.305,11.624,6.983c5.137-1.275,8.272-6.477,7.007-11.623c-0.122-0.478-11.553-48.397,12.008-84.195    c13.386-20.341,35.808-33.267,66.643-38.404c18.836-3.112,35.54,1.734,51.059,14.886c44.16,37.401,91.342,164.125,91.342,407.589    c0,5.306,4.298,9.599,9.599,9.599c1.13,0,2.196-0.23,3.201-0.588c1.006,0.359,2.073,0.588,3.201,0.588    c5.301,0,9.599-4.293,9.599-9.599c0-243.464,47.183-370.187,91.342-407.589c15.528-13.151,32.222-17.998,51.059-14.886    c30.835,5.137,53.257,18.063,66.643,38.404c23.561,35.798,12.13,83.717,12.008,84.195c-1.265,5.146,1.87,10.349,7.007,11.623    c5.132,1.322,10.339-1.837,11.623-6.983C509.048,174.986,522.115,120.937,493.971,78.006z" fill="#0f8a7f" data-original="#000000" style="" class=""/>
	</g>
</g>
<g xmlns="http://www.w3.org/2000/svg">
</g>
<g xmlns="http://www.w3.org/2000/svg">
</g>
<g xmlns="http://www.w3.org/2000/svg">
</g>
<g xmlns="http://www.w3.org/2000/svg">
</g>
<g xmlns="http://www.w3.org/2000/svg">
</g>
<g xmlns="http://www.w3.org/2000/svg">
</g>
<g xmlns="http://www.w3.org/2000/svg">
</g>
<g xmlns="http://www.w3.org/2000/svg">
</g>
<g xmlns="http://www.w3.org/2000/svg">
</g>
<g xmlns="http://www.w3.org/2000/svg">
</g>
<g xmlns="http://www.w3.org/2000/svg">
</g>
<g xmlns="http://www.w3.org/2000/svg">
</g>
<g xmlns="http://www.w3.org/2000/svg">
</g>
<g xmlns="http://www.w3.org/2000/svg">
</g>
<g xmlns="http://www.w3.org/2000/svg">
</g>
</g></svg>
