<?xml version="1.0"?>
<svg xmlns="http://www.w3.org/2000/svg" xmlns:xlink="http://www.w3.org/1999/xlink" xmlns:svgjs="http://svgjs.com/svgjs" version="1.1" width="512" height="512" x="0" y="0" viewBox="0 0 512 512" style="enable-background:new 0 0 512 512" xml:space="preserve" class=""><g><path xmlns="http://www.w3.org/2000/svg" d="m409.879 407.582c-40.923 41.541-95.572 64.418-153.879 64.418-82.956 0-155.127-47.015-191.3-115.792 13.822 6.288 29.16 9.792 45.3 9.792 60.654 0 110-49.476 110-110.29 0-29.445-11.456-57.053-32.259-77.737-20.736-20.618-48.345-31.973-77.741-31.973s-57.005 11.355-77.741 31.974c-20.803 20.684-32.259 48.291-32.259 77.736 0 .077.003.154.003.232 0 .02-.003.038-.003.058 0 68.38 26.628 132.667 74.98 181.02s112.64 74.98 181.02 74.98c69.104 0 133.873-27.114 182.375-76.346 7.752-7.869 7.657-20.532-.211-28.284-7.87-7.751-20.532-7.656-28.285.212zm-299.879-221.582c38.598 0 70 31.272 70 69.71 0 38.758-31.402 70.29-70 70.29s-70-31.532-70-70.29c0-38.438 31.402-69.71 70-69.71zm327.02-111.02c-48.353-48.352-112.64-74.98-181.02-74.98s-132.667 26.629-181.02 74.981c-7.811 7.811-7.811 20.474 0 28.284s20.474 7.811 28.284 0c40.798-40.797 95.04-63.265 152.736-63.265 82.803 0 154.86 46.842 191.099 115.412-13.77-6.231-29.038-9.701-45.099-9.701-60.654 0-110 49.476-110 110.29 0 29.445 11.456 57.053 32.259 77.737 20.736 20.619 48.345 31.974 77.741 31.974s57.005-11.355 77.741-31.974c20.803-20.685 32.259-48.293 32.259-77.738 0-68.38-26.628-132.667-74.98-181.02zm-35.02 250.73c-38.598 0-70-31.272-70-69.71 0-38.758 31.402-70.29 70-70.29s70 31.532 70 70.29c0 38.438-31.402 69.71-70 69.71z" fill="#0f8a7f" data-original="#000000" style="" class=""/></g></svg>
