<?xml version="1.0"?>
<svg xmlns="http://www.w3.org/2000/svg" xmlns:xlink="http://www.w3.org/1999/xlink" xmlns:svgjs="http://svgjs.com/svgjs" version="1.1" width="512" height="512" x="0" y="0" viewBox="0 0 461.702 461.702" style="enable-background:new 0 0 512 512" xml:space="preserve" class=""><g>
<path xmlns="http://www.w3.org/2000/svg" d="M454.473,7.215C449.854,2.598,443.587,0,437.061,0L255.267,0.017c-13.594,0-24.624,11.03-24.624,24.624  c0,13.602,11.03,24.624,24.624,24.624l123.666-0.017L178.767,248.735l-47.646-47.639c-9.618-9.618-25.2-9.618-34.82,0  c-9.618,9.618-9.618,25.209,0,34.82l47.582,47.572L7.263,419.636c-9.635,9.603-9.667,25.194-0.063,34.82  c4.81,4.833,11.125,7.246,17.441,7.246c6.284,0,12.568-2.396,17.378-7.182L178.702,318.31l47.1,47.1  c4.81,4.809,11.11,7.214,17.409,7.214c6.301,0,12.6-2.405,17.411-7.214c9.618-9.619,9.618-25.21,0-34.82l-47.035-47.036  l198.851-198.17V206.46c0,13.603,11.03,24.624,24.624,24.624c13.596,0,24.624-11.021,24.624-24.624V24.624  C461.686,18.092,459.089,11.831,454.473,7.215z" fill="#0f8a7f" data-original="#000000" style="" class=""/>
<g xmlns="http://www.w3.org/2000/svg">
</g>
<g xmlns="http://www.w3.org/2000/svg">
</g>
<g xmlns="http://www.w3.org/2000/svg">
</g>
<g xmlns="http://www.w3.org/2000/svg">
</g>
<g xmlns="http://www.w3.org/2000/svg">
</g>
<g xmlns="http://www.w3.org/2000/svg">
</g>
<g xmlns="http://www.w3.org/2000/svg">
</g>
<g xmlns="http://www.w3.org/2000/svg">
</g>
<g xmlns="http://www.w3.org/2000/svg">
</g>
<g xmlns="http://www.w3.org/2000/svg">
</g>
<g xmlns="http://www.w3.org/2000/svg">
</g>
<g xmlns="http://www.w3.org/2000/svg">
</g>
<g xmlns="http://www.w3.org/2000/svg">
</g>
<g xmlns="http://www.w3.org/2000/svg">
</g>
<g xmlns="http://www.w3.org/2000/svg">
</g>
</g></svg>
