<?xml version="1.0"?>
<svg xmlns="http://www.w3.org/2000/svg" xmlns:xlink="http://www.w3.org/1999/xlink" xmlns:svgjs="http://svgjs.com/svgjs" version="1.1" width="512" height="512" x="0" y="0" viewBox="0 0 512.065 512.065" style="enable-background:new 0 0 512 512" xml:space="preserve" class=""><g><path xmlns="http://www.w3.org/2000/svg" d="m511.582 27.466-29.28-27.253c-.231.248-23.622 25.048-63.232 49.415-35.783 22.013-94.059 48.437-162.139 48.437-69 0-126.634-26.641-162.838-48.543-40.368-24.421-64.496-49.274-64.735-49.522l-28.875 27.681c1.093 1.142 27.27 28.265 71.772 55.378 27.9 16.998 56.894 30.208 86.251 39.425-65.139 34.907-109.55 103.651-109.55 182.581 0 114.14 92.859 207 207 207s207-92.86 207-207c0-78.565-43.997-147.045-108.645-182.102 29.692-9.25 58.909-22.646 86.883-39.984 43.834-27.168 69.324-54.369 70.388-55.513zm-88.626 277.599c0 92.084-74.916 167-167 167s-167-74.916-167-167c0-91.667 76.462-167 167.976-167 91.999 0 166.024 75.745 166.024 167z" fill="#0f8a7f" data-original="#000000" style="" class=""/></g></svg>
