<?xml version="1.0"?>
<svg xmlns="http://www.w3.org/2000/svg" xmlns:xlink="http://www.w3.org/1999/xlink" xmlns:svgjs="http://svgjs.com/svgjs" version="1.1" width="512" height="512" x="0" y="0" viewBox="0 0 512 512" style="enable-background:new 0 0 512 512" xml:space="preserve" class=""><g><path xmlns="http://www.w3.org/2000/svg" d="m442.868 438.198c-7.103-8.836-13.581-19.5-19.409-31.919 10.615-11.938 20.462-24.471 29.462-37.563 38.098-55.416 59.079-117.922 59.079-176.002 0-22.296-8.739-43.203-24.608-58.867-15.867-15.663-36.891-24.15-59.198-23.839-16.203.21-31.319 5.111-44.089 13.363-.103-14.451-.105-28.127-.105-40.657 0-22.296-8.739-43.203-24.608-58.867-15.867-15.663-36.863-24.11-59.198-23.84-24.743.321-46.95 11.666-62.031 29.297-15.224-17.91-37.883-29.304-63.163-29.304-22.652 0-43.204 9.146-58.186 23.932-12.116-14.61-30.396-23.932-50.814-23.932-36.393 0-66 29.607-66 66v40h40v-40c0-14.336 11.664-26 26-26s26 11.664 26 26v330h40v-313h.072c0-23.71 19.257-43 42.928-43s42.928 19.29 42.928 43.009l.144 312.928 40-.019-.144-312.27h.072c0-23.76 19.161-43.339 42.712-43.645 11.538-.165 22.386 4.222 30.579 12.31 8.195 8.091 12.709 18.887 12.709 30.401v110.286c2.105 53.082 8.569 110.29 19.751 159.289 3.73 16.346 7.999 31.316 12.837 45.001-30.819 30.33-69.393 57.364-116.179 77.76l15.985 36.667c43.966-19.167 83.569-44.712 117.388-75.454 5.47 9.955 11.43 18.939 17.911 26.999 26.002 32.34 59.75 48.738 100.307 48.738v-40c-28.232 0-50.845-11.057-69.132-33.802zm-14.156-288.194c11.541-.196 22.385 4.222 30.579 12.31 8.195 8.09 12.709 18.886 12.709 30.4 0 51.207-20.723 113.628-64.416 169.79-1.712-6.124-3.325-12.496-4.835-19.115-10.493-45.981-15.112-99.877-17.146-150.89.636-22.856 20.111-42.197 43.109-42.495z" fill="#0f8a7f" data-original="#000000" style="" class=""/></g></svg>
