<svg xmlns="http://www.w3.org/2000/svg" xmlns:xlink="http://www.w3.org/1999/xlink" width="391.172" height="479.097" viewBox="0 0 391.172 479.097">
  <defs>
    <filter id="Path_2" x="51.36" y="9.399" width="330.04" height="403.318" filterUnits="userSpaceOnUse">
      <feOffset input="SourceAlpha"/>
      <feGaussianBlur stdDeviation="0.5" result="blur"/>
      <feFlood flood-color="#fff"/>
      <feComposite operator="in" in2="blur"/>
      <feComposite in="SourceGraphic"/>
    </filter>
    <filter id="Path_11" x="246.932" y="341.419" width="68.887" height="66.139" filterUnits="userSpaceOnUse">
      <feOffset dy="1" input="SourceAlpha"/>
      <feGaussianBlur stdDeviation="0.5" result="blur-2"/>
      <feFlood flood-color="#fff" flood-opacity="0.161"/>
      <feComposite operator="in" in2="blur-2"/>
      <feComposite in="SourceGraphic"/>
    </filter>
    <filter id="Path_228" x="40.624" y="404.427" width="309.924" height="73.451" filterUnits="userSpaceOnUse">
      <feOffset dy="3" input="SourceAlpha"/>
      <feGaussianBlur stdDeviation="1.5" result="blur-3"/>
      <feFlood flood-opacity="0.416"/>
      <feComposite operator="in" in2="blur-3"/>
      <feComposite in="SourceGraphic"/>
    </filter>
    <filter id="Subtraction_1" x="93.838" y="423.473" width="56.982" height="55.624" filterUnits="userSpaceOnUse">
      <feOffset dy="3" input="SourceAlpha"/>
      <feGaussianBlur stdDeviation="1.5" result="blur-4"/>
      <feFlood flood-opacity="0.42"/>
      <feComposite operator="in" in2="blur-4"/>
      <feComposite in="SourceGraphic"/>
    </filter>
  </defs>
  <g id="Group_9" data-name="Group 9" transform="translate(3.62 3.62)">
    <g id="Group_6" data-name="Group 6" transform="translate(0 0)">
      <ellipse id="Ellipse_3" data-name="Ellipse 3" cx="185.572" cy="186.458" rx="185.572" ry="186.458" transform="translate(0 12.953) rotate(-2)" fill="#fafafa" stroke="#000" stroke-miterlimit="10" stroke-width="7"/>
      <path id="Path_223" data-name="Path 223" d="M42.322,14.159c-.495,6.825-15.791,8.058-15.034,13.5,1.425,10.247,4.091,21.821,5.979,32,1.1,3.62-1.584,3.274-3.669,3.716-6.243,3.38-13.3,3.784-20.172,3.5A10.853,10.853,0,0,1,0,63.988c0-.526,5.546,2.293,13.031-2.459,1.792-1.053,3.48-3.556,4.739-5.158.806-1.749.8-2.423,1.608-4.172.649-2.257.105-5.6.977-7.541l-.316-1.668c-.892-1.668.47-1.68-.087-3.738l-.4-1.783c-.374-2.845-.2-2.415-.374-4.024-1.551-3.2-.918-6.476-3.845-9a72.517,72.517,0,0,0-5.221-6.776c-4.537-2.715-.747-1.047.095-.668.793.308,1.6.4,2.393.709a12,12,0,0,0,5.168-2.084l.06-.087c3.069-4.354,7.469-10.638,11.7-13.876C39.069-5.643,55.07,13.432,42.322,14.159Z" transform="translate(253.534 330.446) rotate(-2)" fill="#fdfdfd"/>
      <path id="Path_224" data-name="Path 224" d="M242.9,39.807c-.216.338,1.571,25.6.05,37.154-1.739,13.2-6.992,12.734-9.73,8.389-6.385,5.331-18.429,20.018-30.5,28.248-14.316,9.759-24.464,12.148-24.464,12.148s-21.74,3.268-29.264,4.464-20.734.516-21.335,1.442c-.312.295-30.576-1.128-53.856-9.554S37.836,101.025,34.532,97.952c-.314-.331-4.571-3.849-4.831-4.227-1.611-3.312-4.9-3.981-6.123-7.59-.786-1.58-3.744-4.054-3.968-5.607a11.924,11.924,0,0,0-3.255-3.943c-1.29-2.239-2.439-.112-5.63-.316-1.335-.084-1.18-2.611-1.639-4.712a75.306,75.306,0,0,1,.173-21.306,144.756,144.756,0,0,1,2.985-15.239c1.01-5.553-1.361-5.708-5.269-6.338-.6-.1.155-.121-2.01.151-5.53.7-5.8,1.758-3.9-4.279.693-2.207,2.669-5.189,3.364-7.419C8.3,9.935,9.662,8.926,14,2.982,15.54.962,16.009-.6,17.626.222c2.5,1.264,4.931,3.5,8.023,6.922.2.4,2.794,3.659,2.958,4.08.636,1.684,1.444,4.173,1.957,5.9,1.38,13.8,11.9,18.373,22.945,16.562,4.755-.78,8.3-4.332,11.407-7.266,3.648-3.445,8.519-4.551,15.161-6.535,2.121-.634,6.185-3.366,8.332-2.408,1.175.772-1.581,3.007-1.446,4.3-.052,4.5-.587,6.2.877,10.528.282,2.052,1.745,3.827,2.523,5.721,1.123,3.5,1.846,5.5,4.464,8.338,1.431,1.093,2.381,3.2,3.8,4.314.422.463,2.259,1.007,2.674,1.466,1.031,1.14,4.278,2.011,3.463,3.779-.686,1.489-4.855,1.362-6.224,1.479-6.2.533-10.561-1.167-15.343-5.6-2.112-1.7-2.319-3.887-3.374-6.386-.4-1.555-1.225-2.631-1.467-4.226-.209-1.344-.783.04-1.178-2.11-2.035,3.8-.537,3.39-.218,6.237.529,3.143,1.257,5.841,3.456,8.167,2.793,2.825,3.556,5.968,3.208,10.142-.658,7.9-.713,15.865,2.159,23.581,3.724,10,10.937,15.235,21.036,16.524,12.705,1.623,25.248-2.479,31.7-15.663a34.253,34.253,0,0,0,4.228-14.609c.23-2.491.836-4.558,3.055-5.869,2.05-1,4.21-1.857,5.515-3.948a8.032,8.032,0,0,1,1.288-1.3,12.63,12.63,0,0,0,2.944-2.9s-12.273,8.919-22.311,7.708-11.7-8.9-11.7-8.9l15.99-6.32L150.2,27.189" transform="translate(63.01 196.914) rotate(-2)" fill="#fff"/>
      <path id="Path_225" data-name="Path 225" d="M6.248,47.217a72.737,72.737,0,0,1-6.179-33.4A34,34,0,0,1,.652,6.424c9.353.029,18.753,5.843,26.252,10.7,1.7,1.1,2.928,1.967,4.681,2.994,4.819,2.828,9.486,1.042,12.986-3.361,2.681-3.374,1.778-5.475,3.286-9.409C49.25,5.607,48.819.883,51.612,0c3.639.009,8.453,1.141,10.536,5.069,1.784,3.355.763,7.508.58,15.069s-.966,10.054-1.312,15.173c-.207,3.046.186,4.426-2,9.837s-2.98,6.635-6.752,11.808c-3.717,5.1-11.366,9.7-18.01,9.9-6.259.191-15.144-3.073-20.747-7.969A28.168,28.168,0,0,1,6.248,47.217Z" transform="translate(73.814 329.319) rotate(-2)" fill="#fff"/>
      <path id="Path_227" data-name="Path 227" d="M176.419,60.667a74.841,74.841,0,0,0,6.4-34.48,34.971,34.971,0,0,0-.6-7.633c-9.693.03-19.434,6.032-27.205,11.047-1.759,1.135-3.034,2.03-4.851,3.091-4.994,2.919-9.831,1.076-13.458-3.47-2.779-3.483-1.842-5.652-3.4-9.713-1.444-1.8-4.264-13.931-7.158-14.843-.756,0-31.649,8.685-61.689,7.352C34.111,10.671,5.569-1.015,4.992.071c-.339.635-7.843,8.921-3.8,12.988,1.439,1.45,10.1,10.617,13.315,11.9,12.133,4.835,28.508,8.21,45.869,10.612,10.181,1.408,50.926-4.834,50.611-4.243-1.849,3.463,6.709-6.418,6.9,1.387s1,10.38,1.36,15.664c.214,3.145-.193,4.569,2.075,10.155s2.452,7.419,6.362,12.759c3.852,5.264,12.415,9.443,19.3,9.652,6.487.2,15.694-3.173,21.5-8.227A29.063,29.063,0,0,0,176.419,60.667Z" transform="translate(122.214 319.339) rotate(-2)" fill="#fff"/>
      <g transform="matrix(1, 0, 0, 1, -3.62, -3.62)" filter="url(#Path_2)">
        <path id="Path_2-2" data-name="Path 2" d="M240.151,332.307c-8.176.839-23.476,2.632-27.017,5.083s-5.619,5.024-11.7,3.189-7.388-5.627-8.077-7.84a53.488,53.488,0,0,1-2.317-9.122c-.258-3.309-1.02-6.2-1.154-9.518-.066-1.625-.306-3.242-.5-5.173l-20.439,5.32c-.782-2.573-1.495-4.913-2.236-7.346,6.552-1.809,12.844-3.271,18.955-5.287,14.8-4.883,28.273-12.16,38.859-23.861,3.5-3.871,6.176-8.491,9.206-12.785.433-.613.669-1.363,1.1-1.961,1.852-2.548,3.573-2.807,6.091-.858,1.4,1.091,2.7,2.322,4.716,4.08,2.982-14.74,6.833-28.638,3.217-43.241a7.109,7.109,0,0,0-6.194,2.5c-4.412,4.524-8.7,9.176-13.03,13.78-.62.659-1.268,1.3-1.826,2.01-5.417,6.9-15.234,7.261-21.907,4.524A37.513,37.513,0,0,1,186.5,227.72c-4.313-8.227-11.461-13.454-19.667-17.347-2.846-1.348-5.8-2.466-8.924-3.777,1.36,8.455-2.631,14.8-8.193,20.484A35.288,35.288,0,0,1,129.557,237.4c1.225,2.629,5.728,5.269,10.609,6.453,4.356,1.056,8.823,1.38,12.9-.437,3.922-1.75,7.475-4.347,11.757-6.91-2.2,4.93-5.28,8.523-9.617,10.612-3.5,1.687-4.51,3.993-4.77,7.705a32.932,32.932,0,0,1-8.509,20.022,25.678,25.678,0,0,1-15.656,8.342c-9.507,1.471-18.716.99-26.47-5.76-5.8-5.059-8.268-11.854-8.963-19.19a130.129,130.129,0,0,1,0-16.269,7.884,7.884,0,0,0-2.032-6.109c-4.006-4.489-5.1-10.131-5.111-15.992a15.619,15.619,0,0,1,1.057-3.4c2.273,8.377,4.821,15.491,12.654,18.726a20.017,20.017,0,0,0,14.878-.2,21.355,21.355,0,0,0-2.195-2.1,37.616,37.616,0,0,1-15.012-21.9c-1.243-4.779-1.458-9.51.858-14.44-7.9,1.562-14.811,4.436-20.727,9.558a30.33,30.33,0,0,1-17.694,7.313c-7.856.652-18.077-4.057-19.477-14.881A25,25,0,0,0,24.8,179.07c-8.007,8.252-14.268,17.256-17.188,29.262,2.833-.245,4.858-.471,6.887-.6,4.643-.289,6.372,1.793,5.269,6.338-2.666,11.04-4.67,22.15-3.523,33.586.267,2.656.367,5.384,2,7.672,4.944-1.83,5.057-1.828,7.965,2.734,12.9,20.233,31.2,33.51,53.38,42.033,17.118,6.575,34.9,9.045,53.654,9.567,0,0,7.518.159,13.588-.3s4.762-.262,9.937-.846,9.938-1.614,9.938-1.614l2.236,7.346s-9.81,1.478-18.434,2.2-16.062.685-16.062.685c-23.561.245-45.643-3.863-66.579-13.3-2.189,6.6-4.1,13.178-6.6,19.525A23.93,23.93,0,0,1,56,331.1c-3.2,3.232-6.8,3.218-10.706.781-4.721-2.949-9.342-6.085-14.229-8.725a56.694,56.694,0,0,0-10.1-3.9,45.439,45.439,0,0,0-6.6-1.073c-1.036,5.868.306,29.278,3.037,36.215a44.16,44.16,0,0,0,7.791,13.013c1.765,2.266,4.887,4.382,6.642,5.663,3.91,2.719,10.284,4.249,15.077,4.567a23.394,23.394,0,0,0,15.057-4.906c2.931-2.362,5.5-6.918,6.661-8.575A32.787,32.787,0,0,0,74.3,350.128l6.5,3.346a99.05,99.05,0,0,1-4.393,10.962,63,63,0,0,1-7.58,10.838c-2.157,2.219-3.411,4.292-7.176,6.181a36.15,36.15,0,0,1-9.711,2.8,45.378,45.378,0,0,1-24.016-5.7C22.136,375.336,18.1,368.7,18.1,368.7s-5.206-8.911-6.085-11.319C8.577,345.919,6.481,334.327,7.3,322.19c.781-11.573.3-23.229.953-34.816.414-7.345,1.95-14.624,2.856-21.947.273-2.206.7-4.657.061-6.68C7.634,247.624,8.748,236.365,9.7,225.092c.245-2.805.7-5.591,1.11-8.832-1.96.15-3.564.32-5.166.383-4.1.163-5.545-1.133-5.637-5.191-.174-7.832,2.895-14.672,6.681-21.266,1.192-2.076,2.49-4.091,3.98-6.527-3.9-1.506-3.461-4.338-2.941-7.456A44.763,44.763,0,0,1,15.7,156.749a5.516,5.516,0,0,0-.088-7.384c-3.456-4.58-4.542-10.171-6.147-15.456a163.988,163.988,0,0,1-4.853-20.624A184.715,184.715,0,0,1,2.89,65.492a117.271,117.271,0,0,1,9.094-36.684A59.479,59.479,0,0,1,32.853,3.761c6.732-4.667,14.565-4.436,22.233-2.3,7.33,2.045,12.982,6.9,18.488,11.84a127,127,0,0,1,21.174,24.64c4.636,7.024,8.856,14.338,12.974,21.69,3.457,6.168,6.551,12.542,9.7,18.878,1.2,2.422,3.154,2.986,5.579,2.973,6.941-.039,13.894.231,20.82-.094,11.61-.545,22.815,1.716,33.929,4.5a114.335,114.335,0,0,1,13.6,4.9c4.3,1.681,4.629,1.593,7.843-1.645,9.785-9.841,19.324-19.959,29.55-29.322,11.044-10.111,23.263-18.657,37.484-24,7.334-2.756,14.836-2.343,22.341-1.681a12.774,12.774,0,0,1,6.185,2.551c5.715,4.316,10.518,9.475,13.389,16.21,3.4,7.987,5.625,16.2,5.452,24.976-.138,6.94.294,13.909-.2,20.818-.55,7.767-1.038,15.627-4.08,22.994a25.037,25.037,0,0,0-.626,2.625c-2.845,9.831-5.71,19.661-10.567,28.74-3.9,7.291-7.539,14.775-12.063,21.667-3.186,4.854-7.475,9.051-11.642,13.17a9.682,9.682,0,0,0-3.353,7.9c.278,7.23.427,14.5-1.4,21.586-1.273,4.947-2.665,9.874-4.271,14.721-1.057,3.186-3.509,4.779-7.164,4.3-.9,6.116-1.657,12.068-2.676,17.974-1,5.779-2.225,11.519-3.447,17.259a8.29,8.29,0,0,1-1.377,2.81c-1.961,2.857-3.637,3.156-6.4,1.113-1.208-.892-2.232-2.036-3.431-2.941a7.546,7.546,0,0,0-1.928-.763c-.245.525-.506.814-.466,1.052.63,3.707,1.17,7.436,1.988,11.1,1.471,6.618,3.431,13.145,4.591,19.816.849,4.873,1.281,8.563,1.884,15.068.489,5.275.341,9.813.472,12.568s.053-2.333.054-1.55c0,1.756.067,3.931.154,6.132a37.6,37.6,0,0,1,.344,7.117,110.849,110.849,0,0,1-1.413,12.945c-1.332,5.652-2.857,4.388-5.916,13.594-1.071,3.223-5.385,8.964-11.9,13.939a34.089,34.089,0,0,1-14.77,5.968s-15.632.213-22.421-5.515c-.95-.8-7.727-7.368-9.519-10.717a41.755,41.755,0,0,1-3.058-8.436c-.225-1.108-.781-2.268-1.085-4-.348-1.987.309-5.37-.364-5.723-1.178-.618,5.122,17.645,17.131,25.227,9.519,6.011,25.575,6.446,25.456,5.912-.54-2.4,9.926-3.455,10.962-6.8,1.284-4.148,8.057-7.6,8.6-9.888C243.685,352.744,246.373,331.668,240.151,332.307Zm29.99-150.341a19.34,19.34,0,0,0,2.839-2.284c2.265-2.819,4.569-5.621,6.595-8.609,11.317-16.683,18.534-35.159,23.467-54.582,3.632-14.3,5.16-28.8,3.177-43.526A51.782,51.782,0,0,0,300.9,55.526c-20.775-1.865-47.75,20.22-57.366,42.414,1.348.637,2.708,1.246,4.044,1.92a18.685,18.685,0,0,1,7.59,6.941c2.328,3.8.837,6.8-3.553,7.458-2.234.333-4.492.555-6.692,1.033a7.77,7.77,0,0,0-2.242,1.348c2.131,2.263,4.105,4.1,5.771,6.191,2.483,3.108,4.134,6.437.478,9.975,10.982,14.683,16.8,31.375,21.207,49.16ZM28.606,16.531c-2.3,3.381-4.814,6.576-6.788,10.078C14.252,40.022,11.191,54.721,10.084,69.894a183.287,183.287,0,0,0,1.225,37.473c1.67,12.6,4.509,24.913,9.88,36.518a36.27,36.27,0,0,0,2.048,3.322c9.122-16.186,19.679-30.337,33.834-41.257-1.373-5.041-1.133-6.068,2.736-9.151a66.928,66.928,0,0,1,5.7-3.615c.819-.527,1.58-1.141,2.627-1.9a20.284,20.284,0,0,0-2.192-1.5c-2.167-1.05-4.412-1.95-6.544-3.064-3.484-1.812-4.045-4.371-1.4-7.252A15.29,15.29,0,0,1,67.873,74.5c1.457-.153,2.908-.353,4.372-.533C68.906,52.69,53.966,24.6,28.6,16.535Zm76.416,173.121c15.641-2.7,30.948.151,45.692,6.4a27.317,27.317,0,0,1-.538-4.779c.725-12.745-1.388-25.633,1.961-38.25,1.889-7.108,3.133-14.441,5.576-21.351a143.031,143.031,0,0,1,18.231-35.163,11.516,11.516,0,0,0,1.042-2.7c-9.7-4.691-38.111-7.6-44.333-4.685-.414,6.776-.646,13.536-1.3,20.255-.577,5.979-1.391,11.956-2.517,17.856-1.265,6.626-2.931,13.179-4.545,19.73a95.733,95.733,0,0,1-9.476,25.2c-2.177,3.784-4.2,7.658-6.321,11.471-1.2,2.16-2.468,4.271-3.48,6.015Zm-5.7,53.953a43.451,43.451,0,0,0,.051,17.018c2.451,9.771,8.14,14.8,18.182,15.265,11.361.528,20.378-4.348,23.45-16.214.7-2.7,2.046-5.371.765-8.545-6.9-.392-12.9-3.364-18.806-6.827-2.309,5.422-2.276,10.679-1.969,15.967.069,1.2.265,2.408.223,3.606a3.59,3.59,0,0,1-3.2,3.78,4.113,4.113,0,0,1-4.734-2.591,12.688,12.688,0,0,1-.827-4.419c.122-4.656.464-9.313.735-13.97.057-.964.183-1.924.295-3.071ZM164.5,190.553c1.558-7.6,5.441-10.577,13.144-10.205a12.1,12.1,0,0,1,8.433,3.71c2.328,2.387,2.4,5.425,2.156,8.556,3.475-5.411,2.206-11.807-2.872-16.112a13.507,13.507,0,0,0-17.4.245c-4.675,3.915-6.049,9.4-3.463,13.809ZM91.95,180.236a12.686,12.686,0,0,0-3.491-16.227,13.41,13.41,0,0,0-16.732.167c-4.551,3.8-6.1,9.028-3.857,13.037,2.083-6.6,6.976-9.954,13.48-9.245,6.587.723,9.713,4.2,10.6,12.271Z" transform="translate(52.86 21.84) rotate(-2)"/>
      </g>
      <path id="Path_9" data-name="Path 9" d="M8.995,9.378S9.968,21.019,7.6,29.407L1.078,25.976a23.159,23.159,0,0,0,.591-4.009c.3-7.213-.409-9.911-.606-14.3S.88,4.426.88,4.426L0,0S9.767,3.515,16.744,5.291A187.072,187.072,0,0,0,38.46,9.41a174.627,174.627,0,0,0,23.269,1.6A161.582,161.582,0,0,0,81.5,9.166,159.345,159.345,0,0,0,97.129,5.751s12.753,2.294,4.044,5.1c-3.849,1.24-11.49,2.934-18.569,4.394s-8.434,2.2-20.333,2.4A173.022,173.022,0,0,1,35.009,16.03C25.877,14.941,8.995,9.378,8.995,9.378Z" transform="translate(133.715 339.75) rotate(-2)"/>
      <g transform="matrix(1, 0, 0, 1, -3.62, -3.62)" filter="url(#Path_11)">
        <path id="Path_11-2" data-name="Path 11" d="M11.358,49.788c6.566,4.138,6.073,4.412,13.878,5A24.671,24.671,0,0,0,40.912,50.82c3.131-1.854,8.514-7.248,10.469-11.282a62.179,62.179,0,0,0,5.263-14.963,46.04,46.04,0,0,0,.464-13.293c-.151-1.581-1.162-7.852-1.162-7.852L47.659,0,63.346.548a122.086,122.086,0,0,1,.211,17.527C62.909,26,61.721,33.094,56,43.049S40.006,58.112,38.589,58.617a36.5,36.5,0,0,1-24.678.417c-8.011-4.948-6.671-4.206-8.173-7.7C4.5,48.427,3.409,45.452,2.1,42.584.7,39.824-1.052,37.293.8,34.818c1.369,3.043,2.658,6.793,5.159,10.121C7.307,46.733,9.682,48.336,11.358,49.788Z" transform="translate(248.43 344.15) rotate(-2)"/>
      </g>
      <path id="Path_15" data-name="Path 15" d="M8.772,31.393A46.289,46.289,0,0,1,8.02,25.83c-.167-2.609-.83-7.3-1.441-10.65-.012-1.507-.049-3.018-.162-4.521-.308-4.071-.333-4.017-4.349-4.464C1.344,6.113.688,5.416,0,5c.47-.638.691-1.446,1.3-1.641C5.151,2.136,9.056,1.085,12.865,0c0,2.6-.007,5.153,0,7.946.009,3.483.048,7.187.185,10.959a68.159,68.159,0,0,0,1.189,6.748c.807,4.262,1.29,7.841,2.145,11.239C17.133,39.88,18,42.307,17.75,43.3c-.134.535,12.833,18.333,12.833,18.333a19.652,19.652,0,0,1-7.549-3.875,49.24,49.24,0,0,1-8.3-8.476c-1.841-2.386-3.1-5.579-4.318-9.751A52.331,52.331,0,0,1,8.772,31.393Z" transform="translate(229.23 338.736) rotate(-2)"/>
      <path id="Path_17" data-name="Path 17" d="M27.466,126.548C23.064,108.763,17.241,92.071,6.25,77.39c3.655-3.538,2-6.862-.478-9.975C4.106,65.332,2.131,63.488,0,61.225a7.78,7.78,0,0,1,2.242-1.348c2.206-.478,4.458-.7,6.692-1.033,4.4-.656,5.893-3.664,3.554-7.458A18.7,18.7,0,0,0,4.9,44.444c-1.332-.674-2.7-1.283-4.044-1.92C10.469,20.328,37.445-1.755,58.22.11a51.824,51.824,0,0,1,5.329,17.437C65.531,32.272,64,46.772,60.37,61.073,55.438,80.5,48.22,98.972,36.9,115.655c-2.026,2.988-4.33,5.792-6.594,8.609A19.312,19.312,0,0,1,27.466,126.548Z" transform="translate(293.701 65.14) rotate(-2)" fill="#fed4d5"/>
      <path id="Path_18" data-name="Path 18" d="M18.97,0c25.367,8.061,40.3,36.151,43.637,57.439-1.463.18-2.915.38-4.371.533a15.289,15.289,0,0,0-9.877,4.972c-2.649,2.881-2.083,5.439,1.4,7.252,2.135,1.11,4.377,2.01,6.544,3.064a20.339,20.339,0,0,1,2.192,1.5c-1.047.762-1.809,1.376-2.628,1.9a66.821,66.821,0,0,0-5.7,3.615c-3.869,3.083-4.109,4.11-2.735,9.151C33.278,100.347,22.721,114.5,13.6,130.684a36.383,36.383,0,0,1-2.048-3.322c-5.371-11.608-8.21-23.92-9.88-36.518A183.25,183.25,0,0,1,.446,53.37C1.549,38.2,4.613,23.5,12.18,10.085,14.155,6.576,16.672,3.381,18.97,0Z" transform="translate(59.444 34.413) rotate(-2)" fill="#fed4d5"/>
      <path id="Path_19" data-name="Path 19" d="M0,101.683c1.012-1.743,2.278-3.854,3.475-6C5.6,91.866,7.62,87.992,9.8,84.208A95.755,95.755,0,0,0,19.272,59c1.614-6.555,3.28-13.112,4.545-19.73,1.126-5.9,1.939-11.877,2.517-17.856.65-6.72.881-13.48,1.3-20.255,6.227-2.907,34.631,0,44.333,4.685a11.542,11.542,0,0,1-1.042,2.7,142.987,142.987,0,0,0-18.23,35.163C50.248,50.617,49,57.945,47.115,65.057c-3.348,12.622-1.235,25.5-1.961,38.25a27.324,27.324,0,0,0,.537,4.779C30.949,101.834,15.641,98.989,0,101.683Z" transform="translate(157.265 102.478) rotate(-2)" fill="#fff"/>
      <path id="Path_20" data-name="Path 20" d="M.816,0H14.986c-.112,1.147-.238,2.106-.294,3.071-.272,4.657-.613,9.314-.735,13.97a12.692,12.692,0,0,0,.827,4.419,4.112,4.112,0,0,0,4.734,2.59,3.588,3.588,0,0,0,3.195-3.782c.042-1.2-.154-2.4-.223-3.606C22.183,11.374,22.15,6.117,24.458.7c5.9,3.463,11.909,6.435,18.806,6.827,1.28,3.174-.066,5.848-.765,8.545C39.427,27.934,30.41,32.81,19.049,32.282,9.007,31.815,3.314,26.788.867,17.016A43.429,43.429,0,0,1,.816,0Z" transform="translate(156.184 258.247) rotate(-2)" fill="#fe938d"/>
      <path id="Path_21" data-name="Path 21" d="M1.291,17.1C-1.3,12.69.079,7.207,4.747,3.3a13.506,13.506,0,0,1,17.4-.245c5.083,4.3,6.348,10.7,2.873,16.112.245-3.131.172-6.169-2.157-8.556A12.1,12.1,0,0,0,14.431,6.9C6.731,6.524,2.849,9.5,1.291,17.1Z" transform="translate(218.395 185.879) rotate(-2)" fill="#fff"/>
      <path id="Path_22" data-name="Path 22" d="M25.094,19.074C24.212,11,21.085,7.526,14.5,6.807c-6.5-.71-11.4,2.65-13.48,9.245-2.24-4.01-.695-9.235,3.857-13.037A13.41,13.41,0,0,1,21.6,2.847,12.685,12.685,0,0,1,25.094,19.074Z" transform="translate(121.675 176.958) rotate(-2)" fill="#fff"/>
      <ellipse id="Ellipse_1" data-name="Ellipse 1" cx="11.642" cy="10.416" rx="11.642" ry="10.416" transform="translate(123.026 182.817) rotate(-2)" fill="#0a8279"/>
      <ellipse id="Ellipse_3-2" data-name="Ellipse 3" cx="7.353" cy="7.353" rx="7.353" ry="7.353" transform="translate(125.689 188.855) rotate(-2)"/>
      <ellipse id="Ellipse_2" data-name="Ellipse 2" cx="11.642" cy="10.416" rx="11.642" ry="10.416" transform="translate(220.161 190.461) rotate(-2)" fill="#0a8279"/>
      <ellipse id="Ellipse_4" data-name="Ellipse 4" cx="7.353" cy="7.353" rx="7.353" ry="7.353" transform="translate(224.049 196.456) rotate(-2)"/>
    </g>
    <g id="Group_8" data-name="Group 8" transform="translate(41.504 402.307)">
      <g transform="matrix(1, 0, 0, 1, -45.12, -405.93)" filter="url(#Path_228)">
        <path id="Path_228-2" data-name="Path 228" d="M6.7-6.549H37.292c11.892,0,17.792-6.9,17.792-16.249,0-6.99-3.631-12.255-9.895-14.524V-37.5c4.539-2.451,7.171-6.99,7.171-12.8,0-9.078-5.81-15.614-17.429-15.614H6.7ZM21.406-42.587V-52.3H32.481c4.266,0,5.356,2.179,5.356,4.9,0,2.633-1.452,4.811-5.356,4.811Zm0,22.422V-30.786H34.3c3.813,0,5.719,2.451,5.719,5.356s-1.452,5.265-5.719,5.265Zm38.671-8.261ZM84.314-13.992Zm32.77,7.444H130.7V-32.057c0-5.991,2.723-7.807,6.536-7.807s6.536,1.816,6.536,7.807v.363h13.616v-.272c-.091-14.161-8.17-20.606-20.152-20.606s-20.152,6.536-20.152,20.516Zm47.295,0H178V-25.884L192.61-6.549h17.248L190.886-29.424l18.246-21.968H192.247L178-32.511V-71H164.379Zm50.926,0h13.617V-32.057c0-5.991,2.723-7.807,6.536-7.807s6.536,1.816,6.536,7.807v.363h13.616v-.272c-.091-14.161-8.17-20.606-20.152-20.606S215.3-46.036,215.3-32.057Zm45.3,0h47.022V-20.165H279.211l27.505-32.589V-65.917H261.964V-52.3h26.144L260.6-19.711Z" transform="translate(38.42 476.93)"/>
      </g>
      <g id="Group_4" data-name="Group 4" transform="translate(53.214 19.046)">
        <g transform="matrix(1, 0, 0, 1, -98.34, -424.97)" filter="url(#Subtraction_1)">
          <path id="Subtraction_1-2" data-name="Subtraction 1" d="M44.231,46.624a14.416,14.416,0,0,1-6.074-1.043c-2.878-1.517-2.57-8.424-2.479-9.794.032-.093.052-.157.052-.157l.241-4c0-.037.008-3.682,0-4.254a.58.58,0,0,0,.63-.5c.074-.438.135-.9.185-1.424a6.668,6.668,0,0,0-.2-2.018.875.875,0,0,1,.2-.779l.019-.024a7.685,7.685,0,0,0,.908-1.362,17.7,17.7,0,0,0,.651-1.666c.06-.171.121-.342.183-.513a13.03,13.03,0,0,0,.578-2.811c0-.013,0-.062.008-.138a19.91,19.91,0,0,0,.047-2.3c-.037-.4-.111-.8-.182-1.193-.044-.242-.09-.491-.126-.737a5.428,5.428,0,0,0-.923-2.233,3.921,3.921,0,0,0-1.558-1.307,1.326,1.326,0,0,0-.608-.147h-.034A5.078,5.078,0,0,0,33.6,8.7a11.189,11.189,0,0,0-3.273,2.761c-.625.747-1.218,1.539-1.79,2.3-.2.274-.416.557-.626.834-.177.234-.247.315-.412.315a1.771,1.771,0,0,1-.326-.05,11.983,11.983,0,0,0-1.4-.258c-.655-.057-1.155-.082-1.622-.082a9.144,9.144,0,0,0-1.752.154c-.444.086-.9.149-1.342.21-.225.031-.456.063-.684.1a1.091,1.091,0,0,1-.164.014.494.494,0,0,1-.426-.208l-.165-.22c-.345-.461-.7-.937-1.076-1.387-.465-.559-1.019-1.213-1.6-1.82a12.492,12.492,0,0,0-2.449-1.975A4.837,4.837,0,0,0,12.5,8.556a4.433,4.433,0,0,0-.495-.029,2.318,2.318,0,0,0-1.634.561,5.489,5.489,0,0,0-1.639,2.618,10.412,10.412,0,0,0-.309,3.526,16.623,16.623,0,0,0,.918,4.4,15.149,15.149,0,0,0,.8,1.838c.044.086.087.174.13.261a3.422,3.422,0,0,0,.712,1.081.5.5,0,0,1,.124.681,4.03,4.03,0,0,0-.471,1.916c0,.29,0,.563.4.647l-.1.22c-.068.153-.131.3-.189.442a3.668,3.668,0,0,0-.317,2.064c.059.3.176.422.418.422a1.167,1.167,0,0,0,.213-.023c.11-.021.216-.046.34-.074l.157-.036.008.281c0,.192.009.373.023.552a10.485,10.485,0,0,0,4.7,5.213,18.161,18.161,0,0,0,7.265,2.553l.1.019a16.992,16.992,0,0,0,2.841.383.239.239,0,0,0-.082.044l.045-.007c.053-.007.153-.02.286-.034h.188c.348,0,.742,0,1.382.036.417.023.86.036,1.316.039,1.242.257,1.905.837,1.971,1.725.186,2.5,0,6.5,0,6.535H25.841a37.4,37.4,0,0,1-12.473-2.063,20.177,20.177,0,0,1-7.945-5.2C1.824,35.216,0,29.661,0,22.637A22.447,22.447,0,0,1,6.522,6.585,23.163,23.163,0,0,1,23.051,0a26.5,26.5,0,0,1,9.524,1.762A25.627,25.627,0,0,1,40.52,6.585a22.808,22.808,0,0,1,5.443,7.19,20.432,20.432,0,0,1,2.019,8.863V46.41l-.015,0A34.243,34.243,0,0,1,44.231,46.624Z" transform="translate(98.34 424.97)"/>
        </g>
        <g id="Group_7" data-name="Group 7" transform="translate(20.696 25.737)">
          <path id="Path_231" data-name="Path 231" d="M3.076,0C4.587,0,6.1.567,6.1,1.266A3.99,3.99,0,0,1,3.076,3.83a3.133,3.133,0,0,1-1.764-.785c-.029-.022-.057-.044-.218-.176A3.02,3.02,0,0,1,0,1.266C0,.567,1.564,0,3.076,0Z" transform="matrix(1, -0.017, 0.017, 1, 0.221, 0.107)"/>
          <path id="Path_232" data-name="Path 232" d="M0,1.073A3.311,3.311,0,0,1,.229,2.494C.229,3.483,0,3.684,0,3.684" transform="translate(3.305 2.305)" fill="none" stroke="#000" stroke-width="0.7"/>
          <path id="Path_234" data-name="Path 234" d="M0,0A2.646,2.646,0,0,1,.789,2.056C.789,3.485,0,3.775,0,3.775" transform="translate(7.081 5.593) rotate(90)" fill="none" stroke="#000" stroke-width="0.7"/>
          <path id="Path_235" data-name="Path 235" d="M0,0A2.478,2.478,0,0,1,.664,1.862C.664,3.157,0,3.42,0,3.42" transform="translate(3.42 5.656) rotate(90)" fill="none" stroke="#000" stroke-width="0.7"/>
        </g>
      </g>
    </g>
  </g>
</svg>
