<svg width="687" height="714" viewBox="0 0 687 714" fill="none" xmlns="http://www.w3.org/2000/svg">
<path d="M484.177 148.256C707.51 168.878 671.064 358.709 547.022 475.227C422.981 591.744 434.478 692.284 295.636 627.45C240.519 601.712 254.109 497.388 219.915 437.769C167.885 347.053 89.3702 278.869 125.586 193.555C185.645 52.0749 260.844 127.634 484.177 148.256Z" fill="#8AD0BC"/>
<g filter="url(#filter0_d_1_549)">
<path d="M368.331 80.9396C508.287 80.9396 621.744 200.09 621.744 347.069C621.744 494.048 508.287 613.198 368.331 613.198C228.375 613.198 143.558 494.048 143.558 347.069C143.558 200.09 228.375 80.9396 368.331 80.9396Z" fill="white"/>
</g>
<g opacity="0.09">
<path d="M396.67 232.626L389.18 206.906L238.18 255.28L244.789 277.976L277.776 267.408C277.38 265.017 277.868 262.558 279.14 260.531C280.413 258.504 282.374 257.062 284.625 256.498C286.876 255.935 289.247 256.293 291.255 257.499C293.263 258.705 294.757 260.668 295.433 262.989C296.109 265.31 295.916 267.814 294.893 269.991C293.87 272.168 292.094 273.854 289.927 274.706C287.761 275.558 285.366 275.512 283.231 274.576C281.096 273.641 279.381 271.887 278.435 269.672L245.448 280.239L249.71 294.872L275.442 286.628L276.1 288.889L250.368 297.132L259.462 328.359L322.398 308.197C322.492 308.187 328.651 306.29 331.496 300.824C333.199 297.548 333.402 293.606 332.09 289.101L328.168 275.633C325.887 276.05 323.541 275.539 321.608 274.204C319.674 272.87 318.299 270.813 317.761 268.451C317.223 266.09 317.564 263.603 318.714 261.496C319.864 259.389 321.737 257.822 323.95 257.113C326.164 256.404 328.552 256.606 330.628 257.68C332.704 258.753 334.312 260.616 335.124 262.889C335.936 265.162 335.891 267.675 334.998 269.915C334.106 272.154 332.433 273.953 330.32 274.944L334.242 288.412C335.74 293.557 335.478 298.124 333.468 301.974C330.363 307.907 324.203 310.093 323.171 310.423L260.121 330.621L265.873 350.373L340.712 326.398C340.316 324.006 340.804 321.546 342.077 319.517C343.35 317.489 345.312 316.047 347.564 315.483C349.815 314.919 352.187 315.277 354.196 316.484C356.205 317.69 357.7 319.655 358.376 321.977C359.053 324.299 358.859 326.804 357.836 328.982C356.813 331.16 355.036 332.847 352.868 333.699C350.701 334.551 348.305 334.504 346.169 333.568C344.033 332.633 342.317 330.878 341.372 328.661L266.532 352.636L270.389 365.882L322.16 349.297C322.318 349.254 334.036 346.122 338.226 360.511L347.78 393.316L381.368 382.556L374.307 358.308L376.467 357.616L383.529 381.866L395.258 378.108L386.35 347.52C384.071 347.935 381.727 347.423 379.795 346.088C377.863 344.754 376.489 342.697 375.952 340.338C375.416 337.978 375.757 335.492 376.906 333.387C378.056 331.281 379.927 329.715 382.14 329.006C384.352 328.298 386.738 328.5 388.813 329.572C390.888 330.645 392.495 332.506 393.307 334.778C394.12 337.049 394.075 339.56 393.184 341.799C392.293 344.038 390.622 345.836 388.51 346.828L397.418 377.416L408.178 373.969L402.906 355.867L405.061 355.176L410.333 373.279L435.299 365.281L404.188 258.449L371.208 269.015C371.604 271.406 371.116 273.865 369.844 275.892C368.571 277.919 366.61 279.361 364.359 279.925C362.109 280.488 359.738 280.13 357.73 278.924C355.722 277.718 354.228 275.755 353.552 273.434C352.876 271.113 353.069 268.609 354.092 266.432C355.114 264.255 356.89 262.569 359.057 261.717C361.224 260.865 363.618 260.911 365.754 261.847C367.889 262.782 369.604 264.536 370.549 266.751L403.531 256.185L397.329 234.889L373.155 242.633L372.496 240.37L396.67 232.626Z" fill="#616E7D"/>
<path d="M473.733 497.248L481.223 522.967L330.222 571.34L323.613 548.644L356.6 538.076C357.545 540.291 359.26 542.045 361.395 542.981C363.53 543.916 365.925 543.963 368.092 543.111C370.259 542.259 372.034 540.573 373.057 538.396C374.08 536.219 374.273 533.715 373.597 531.394C372.921 529.073 371.427 527.109 369.419 525.903C367.411 524.697 365.04 524.34 362.789 524.903C360.539 525.466 358.577 526.908 357.305 528.935C356.032 530.962 355.545 533.422 355.941 535.813L322.953 546.381L318.692 531.748L344.425 523.505L343.766 521.244L318.034 529.488L308.94 498.26L371.876 478.098C371.959 478.052 378.078 476.015 383.349 478.881C386.507 480.6 388.776 483.751 390.088 488.256L394.01 501.725C391.897 502.716 390.224 504.514 389.331 506.754C388.439 508.994 388.394 511.506 389.206 513.78C390.018 516.053 391.626 517.916 393.702 518.989C395.778 520.062 398.166 520.265 400.379 519.556C402.593 518.847 404.465 517.279 405.615 515.172C406.765 513.066 407.106 510.578 406.569 508.217C406.031 505.856 404.655 503.799 402.722 502.464C400.788 501.13 398.442 500.619 396.162 501.035L392.24 487.567C390.742 482.422 388.091 478.789 384.373 476.773C378.638 473.672 372.364 475.47 371.332 475.8L308.281 495.999L302.529 476.245L377.368 452.27C378.314 454.486 380.029 456.241 382.165 457.177C384.301 458.113 386.697 458.16 388.865 457.307C391.033 456.455 392.809 454.769 393.833 452.591C394.856 450.413 395.049 447.908 394.373 445.585C393.697 443.263 392.202 441.299 390.193 440.092C388.184 438.886 385.812 438.528 383.56 439.092C381.309 439.655 379.346 441.098 378.073 443.126C376.801 445.154 376.313 447.615 376.709 450.007L301.869 473.982L298.012 460.737L349.783 444.152C349.937 444.096 361.324 439.825 357.133 425.436L347.58 392.631L381.168 381.871L388.23 406.12L390.39 405.428L383.328 381.179L395.057 377.421L403.965 408.01C401.854 409.001 400.183 410.799 399.291 413.038C398.4 415.277 398.356 417.788 399.168 420.059C399.98 422.331 401.587 424.193 403.662 425.265C405.737 426.337 408.124 426.54 410.336 425.831C412.548 425.122 414.42 423.556 415.569 421.45C416.719 419.345 417.06 416.86 416.523 414.5C415.987 412.14 414.612 410.083 412.681 408.749C410.749 407.415 408.405 406.903 406.126 407.318L397.218 376.729L407.977 373.283L413.249 391.385L415.404 390.694L410.132 372.592L435.098 364.594L466.21 471.425L433.23 481.991C432.285 479.775 430.57 478.021 428.435 477.086C426.3 476.151 423.905 476.104 421.738 476.956C419.572 477.808 417.796 479.494 416.773 481.671C415.75 483.848 415.557 486.352 416.233 488.673C416.909 490.994 418.403 492.957 420.411 494.163C422.419 495.369 424.79 495.727 427.041 495.164C429.292 494.6 431.253 493.158 432.525 491.131C433.798 489.104 434.286 486.645 433.889 484.254L466.872 473.688L473.074 494.985L448.899 502.729L449.559 504.992L473.733 497.248Z" fill="#616E7D"/>
<path d="M303.819 384.06C301.703 384.735 299.425 384.575 297.413 383.611C295.402 382.646 293.796 380.943 292.898 378.823L275.757 384.315L284.301 413.656L345.625 394.01L336.072 361.205C332.51 348.976 323.182 351.459 322.785 351.572L271.048 368.146L275.097 382.048L292.238 376.557C291.944 374.752 292.152 372.896 292.839 371.212C293.525 369.529 294.66 368.088 296.107 367.064C297.554 366.04 299.253 365.476 300.998 365.439C302.744 365.402 304.462 365.894 305.948 366.856C307.433 367.818 308.623 369.209 309.373 370.863C310.123 372.516 310.403 374.362 310.178 376.178C309.953 377.994 309.234 379.703 308.106 381.1C306.977 382.498 305.489 383.525 303.818 384.057L303.819 384.06Z" fill="#616E7D"/>
<path d="M316.054 426.074C313.94 426.754 312.135 428.221 310.981 430.2C309.826 432.179 309.402 434.532 309.787 436.816L292.645 442.308L284.101 412.967L345.424 393.322L354.977 426.127C358.539 438.357 349.48 441.763 349.09 441.903L297.354 458.476L293.305 444.573L310.446 439.081C311.164 440.751 312.325 442.168 313.791 443.162C315.258 444.156 316.966 444.686 318.712 444.687C320.458 444.688 322.167 444.161 323.634 443.169C325.102 442.176 326.265 440.761 326.984 439.092C327.704 437.424 327.949 435.573 327.69 433.762C327.432 431.951 326.681 430.257 325.527 428.883C324.373 427.508 322.865 426.512 321.185 426.014C319.505 425.516 317.724 425.537 316.055 426.075L316.054 426.074Z" fill="#616E7D"/>
<path d="M414.636 221.43L408.955 201.922C406.177 192.383 397.578 186.684 389.745 189.193L228.281 240.918C220.449 243.427 216.353 253.194 219.131 262.733L270.713 439.856L309.865 577.934C312.642 587.47 321.242 593.168 329.074 590.658L490.537 538.933C498.37 536.424 502.467 526.661 499.689 517.123L460.537 379.046L414.636 221.43L414.636 221.43ZM484.264 520.838L324.632 571.977L234.549 259.014L394.178 207.877L484.264 520.838Z" fill="#616E7D"/>
<path d="M359.63 261.516C357.952 262.045 356.456 263.071 355.321 264.471C354.186 265.871 353.461 267.585 353.232 269.407C353.004 271.229 353.283 273.081 354.034 274.741C354.786 276.401 355.979 277.798 357.469 278.764C358.96 279.729 360.685 280.223 362.437 280.185C364.188 280.147 365.892 279.579 367.344 278.549C368.795 277.52 369.932 276.072 370.617 274.381C371.303 272.69 371.508 270.827 371.208 269.016L404.19 258.451L403.531 256.187L370.549 266.753C369.652 264.633 368.046 262.931 366.035 261.966C364.024 261.001 361.746 260.841 359.63 261.516Z" fill="white"/>
<path d="M292.239 376.559L275.097 382.05L275.756 384.314L292.898 378.822C293.843 381.037 295.558 382.791 297.693 383.727C299.828 384.662 302.223 384.709 304.39 383.857C306.557 383.005 308.332 381.319 309.355 379.142C310.378 376.965 310.571 374.461 309.895 372.14C309.219 369.819 307.725 367.855 305.717 366.649C303.709 365.443 301.338 365.086 299.088 365.649C296.837 366.212 294.875 367.654 293.603 369.681C292.331 371.708 291.843 374.168 292.239 376.559Z" fill="white"/>
<path d="M331.496 300.827C328.652 306.293 322.492 308.189 322.398 308.2L259.462 328.362L260.121 330.625L323.171 310.427C324.203 310.096 330.364 307.91 333.468 301.978C335.478 298.126 335.74 293.559 334.242 288.416L330.319 274.945C332.433 273.953 334.107 272.154 335 269.914C335.893 267.673 335.938 265.16 335.126 262.886C334.314 260.611 332.705 258.748 330.628 257.674C328.552 256.6 326.163 256.398 323.948 257.107C321.734 257.816 319.86 259.385 318.71 261.492C317.56 263.6 317.219 266.088 317.757 268.45C318.294 270.812 319.671 272.87 321.605 274.205C323.539 275.54 325.886 276.051 328.167 275.634L332.089 289.103C333.402 293.608 333.2 297.55 331.496 300.827Z" fill="white"/>
<path d="M265.873 350.377L266.532 352.64L341.372 328.665C341.205 328.309 341.059 327.944 340.934 327.57C340.838 327.186 340.765 326.796 340.713 326.403L265.873 350.377Z" fill="white"/>
<path d="M347.78 393.32L338.226 360.515C334.035 346.125 322.318 349.257 322.16 349.3L270.389 365.885L271.048 368.148L322.785 351.574C323.181 351.46 332.509 348.976 336.071 361.208L345.625 394.013L347.78 393.32Z" fill="white"/>
<path d="M395.26 378.109L397.42 377.417L388.512 346.829C387.844 347.21 387.109 347.445 386.352 347.521L395.26 378.109Z" fill="white"/>
<path d="M376.47 357.617L374.309 358.309L381.371 382.558L383.531 381.866L376.47 357.617Z" fill="white"/>
<path d="M405.063 355.177L402.908 355.867L408.179 373.97L410.335 373.279L405.063 355.177Z" fill="white"/>
<path d="M396.669 232.626L372.495 240.371L373.154 242.634L397.328 234.89L396.669 232.626Z" fill="white"/>
<path d="M244.789 277.977L245.448 280.241L278.436 269.673C278.266 269.317 278.119 268.95 277.995 268.574C277.898 268.192 277.825 267.803 277.776 267.41L244.789 277.977Z" fill="white"/>
<path d="M275.446 286.63L249.71 294.874L250.368 297.135L276.104 288.89L275.446 286.63Z" fill="white"/>
<path d="M484.463 521.473L394.079 207.549L234.297 258.736L324.687 572.389L484.463 521.473ZM311.991 507.013L241.014 263.291L390.978 215.547L478.095 514.689L388.417 543.418L328.13 562.433L311.991 507.013Z" fill="#82BFAB"/>
<path d="M277.779 267.408C277.827 267.801 277.901 268.19 277.998 268.573C278.122 268.949 278.269 269.316 278.438 269.672C279.384 271.888 281.1 273.643 283.236 274.578C285.372 275.514 287.768 275.561 289.935 274.709C292.103 273.857 293.88 272.17 294.903 269.992C295.926 267.814 296.12 265.309 295.443 262.987C294.767 260.665 293.272 258.7 291.263 257.494C289.254 256.287 286.882 255.929 284.631 256.493C282.379 257.057 280.417 258.5 279.144 260.528C277.871 262.556 277.383 265.016 277.779 267.408Z" fill="#AAD4C8"/>
<path d="M340.713 326.401C340.764 326.795 340.838 327.184 340.934 327.569C341.059 327.942 341.205 328.308 341.372 328.663C342.317 330.879 344.032 332.633 346.168 333.569C348.303 334.504 350.698 334.551 352.865 333.699C355.032 332.847 356.808 331.161 357.831 328.984C358.854 326.806 359.047 324.302 358.371 321.98C357.695 319.659 356.201 317.695 354.193 316.489C352.184 315.283 349.813 314.925 347.562 315.489C345.311 316.052 343.349 317.494 342.077 319.522C340.804 321.549 340.316 324.009 340.713 326.4L340.713 326.401Z" fill="#AAD4C8"/>
<path d="M376.107 340.957C376.633 342.761 377.658 344.361 379.05 345.555C380.443 346.748 382.142 347.482 383.933 347.663C385.723 347.844 387.525 347.464 389.109 346.571C390.694 345.678 391.99 344.313 392.835 342.647C393.679 340.981 394.034 339.09 393.854 337.213C393.674 335.336 392.968 333.557 391.824 332.101C390.68 330.646 389.15 329.578 387.427 329.034C385.705 328.49 383.868 328.494 382.147 329.045C381.003 329.407 379.937 330.003 379.013 330.799C378.089 331.595 377.324 332.575 376.763 333.682C376.201 334.789 375.854 336.002 375.742 337.251C375.629 338.499 375.754 339.759 376.107 340.957Z" fill="#82BFAB"/>
</g>
<path opacity="0.15" d="M248.11 542.521C247.31 542.681 246.505 542.845 245.695 543.013C236.287 544.968 226.737 544.346 218.651 549.884C211.718 554.635 276.6 598.015 284.241 597.398C291.694 596.796 300.455 594.7 307.855 595.917C332.619 599.987 358.979 602.469 381.369 587.325C385.95 584.227 391.836 577.405 393.434 571.807C395.691 563.903 391.803 557.531 386.489 552.501C375.111 541.733 355.366 538.867 340.849 537.749C321.283 536.245 300.464 537.805 280.874 539.174C275.346 539.56 270.611 540.418 265.056 540.458C259.359 540.596 253.686 541.286 248.11 542.521Z" fill="black"/>
<path d="M327.904 524.172C326.759 523.118 322.945 522.63 322.564 521.302C322.258 520.242 323.519 518.877 323.803 517.924C324.376 515.99 323.49 513.677 322.155 512.283C320.629 510.685 317.988 510.498 316.612 508.871C315.12 507.106 315.093 505.106 312.717 504.032C308.674 502.205 305.13 506.14 301.339 506.83C299.192 507.22 298.085 505.407 296.198 504.692C294.395 504.138 292.467 504.235 290.722 504.966C289.824 505.288 289.005 505.814 288.324 506.508C287.565 507.532 288.253 507.877 286.97 508.252C285.991 508.537 284.682 508.241 283.646 508.41C281.408 508.788 279.348 509.917 277.774 511.626C274.974 514.565 273.453 518.558 274.689 522.543C270.39 522.615 268.433 526.257 268.209 530.426C268.076 532.902 268.791 540.393 272.141 540.925C267.409 540.495 276.168 556.712 278.765 552.793C279.069 556.623 282.999 559.796 286.272 560.865C287.716 561.335 289.35 560.875 290.571 561.228C291.664 561.547 292.701 562.652 293.871 563.029C295.134 563.459 296.487 563.507 297.775 563.167C298.327 563.46 298.899 563.709 299.487 563.913C300.729 564.323 301.993 564.661 303.239 565.064C306.037 565.966 309.004 567.028 311.907 567.313C312.477 567.36 313.049 567.375 313.621 567.358C314.665 567.401 315.707 567.24 316.696 566.886C317.413 566.564 317.706 565.685 318.325 565.534C319.47 565.252 320.444 565.527 321.452 564.671C322.373 563.889 322.367 562.854 322.19 561.722C323.882 560.765 323.649 557.987 322.517 556.705C322.01 556.146 321.439 555.655 320.817 555.242C320.83 554.909 320.788 554.576 320.693 554.259C327.447 552.672 330.351 545.125 327.476 538.841C326.25 536.159 327.014 535.552 328.485 533.094C330.198 530.239 330.531 526.591 327.904 524.172Z" fill="#5C4D46"/>
<path opacity="0.35" d="M327.904 524.172C326.759 523.118 322.945 522.63 322.564 521.302C322.258 520.242 323.519 518.877 323.803 517.924C324.376 515.99 323.49 513.677 322.155 512.283C320.629 510.685 317.988 510.498 316.612 508.871C315.12 507.106 315.093 505.106 312.717 504.032C308.674 502.205 305.13 506.14 301.339 506.83C299.192 507.22 298.085 505.407 296.198 504.692C294.395 504.138 292.467 504.235 290.722 504.966C289.824 505.288 289.005 505.814 288.324 506.508C287.565 507.532 288.253 507.877 286.97 508.252C285.991 508.537 284.682 508.241 283.646 508.41C281.408 508.788 279.348 509.917 277.774 511.626C274.974 514.565 273.453 518.558 274.689 522.543C270.39 522.615 268.433 526.257 268.209 530.426C268.076 532.902 268.791 540.393 272.141 540.925C267.409 540.495 276.168 556.712 278.765 552.793C279.069 556.623 282.999 559.796 286.272 560.865C287.716 561.335 289.35 560.875 290.571 561.228C291.664 561.547 292.701 562.652 293.871 563.029C295.134 563.459 296.487 563.507 297.775 563.167C298.327 563.46 298.899 563.709 299.487 563.913C300.729 564.323 301.993 564.661 303.239 565.064C306.037 565.966 309.004 567.028 311.907 567.313C312.477 567.36 313.049 567.375 313.621 567.358C314.665 567.401 315.707 567.24 316.696 566.886C317.413 566.564 317.706 565.685 318.325 565.534C319.47 565.252 320.444 565.527 321.452 564.671C322.373 563.889 322.367 562.854 322.19 561.722C323.882 560.765 323.649 557.987 322.517 556.705C322.01 556.146 321.439 555.655 320.817 555.242C320.83 554.909 320.788 554.576 320.693 554.259C327.447 552.672 330.351 545.125 327.476 538.841C326.25 536.159 327.014 535.552 328.485 533.094C330.198 530.239 330.531 526.591 327.904 524.172Z" fill="black"/>
<path d="M231.549 522.488C231.763 522.161 231.94 521.809 232.077 521.44C232.794 519.469 232.649 517.234 232.601 515.17C232.484 510.161 232.367 505.153 232.25 500.145C232.199 497.955 232.141 495.719 231.417 493.665C230.693 491.61 229.172 489.734 227.138 489.237C225.105 488.74 222.664 490.065 222.343 492.229C221.821 490.171 221.223 488.137 220.549 486.126C220.193 485.065 219.76 483.936 218.858 483.327C217.117 482.148 214.786 483.596 213.588 485.37C213.352 480.098 215.441 474.763 214.261 469.633C214.093 468.638 213.63 467.725 212.938 467.023C211.646 465.878 209.726 466.165 208.067 466.515C209.521 465.27 210.975 464.026 212.429 462.78C213.521 461.945 214.475 460.926 215.251 459.765C215.634 459.18 215.875 458.506 215.953 457.801C216.032 457.096 215.945 456.381 215.701 455.72C215.132 454.436 213.514 453.665 212.339 454.364C212.927 453.397 213.971 452.862 214.786 452.098C215.601 451.334 216.206 450.016 215.593 449.064C215.316 448.69 214.945 448.404 214.522 448.238C211.74 446.939 208.412 447.526 205.749 449.074C203.086 450.621 200.978 453.023 199.029 455.476C199.332 454.61 198.322 453.744 197.453 453.886C196.598 454.136 195.866 454.72 195.407 455.517C191.515 460.918 189.941 467.838 189.76 474.607C189.041 473.817 187.673 474.17 187.043 475.04C186.491 475.976 186.248 477.077 186.351 478.173C186.394 481.44 187.022 484.671 188.203 487.695C189.367 490.689 190.766 492.271 192.82 494.499C190.694 493.001 187.409 494.074 187.536 496.997C187.717 501.202 191.328 503.114 194.431 504.821C193.968 505.477 193.098 505.682 192.783 506.657C192.595 507.36 192.571 508.099 192.712 508.814C192.854 509.528 193.157 510.197 193.596 510.763C195.493 513.081 198.671 514.363 201.275 515.36C196.517 520.266 210.531 523.355 213.374 524.489C215.134 525.076 216.699 526.177 217.886 527.662C218.638 528.608 219.326 529.609 219.944 530.658C220.335 531.304 220.844 532.725 221.608 532.988C224.063 533.833 227.409 527.287 228.673 525.707C229.582 524.572 230.769 523.693 231.549 522.488Z" fill="#5C4D46"/>
<path opacity="0.2" d="M231.549 522.488C231.763 522.161 231.94 521.809 232.077 521.44C232.794 519.469 232.649 517.234 232.601 515.17C232.484 510.161 232.367 505.153 232.25 500.145C232.199 497.955 232.141 495.719 231.417 493.665C230.693 491.61 229.172 489.734 227.138 489.237C225.105 488.74 222.664 490.065 222.343 492.229C221.821 490.171 221.223 488.137 220.549 486.126C220.193 485.065 219.76 483.936 218.858 483.327C217.117 482.148 214.786 483.596 213.588 485.37C213.352 480.098 215.441 474.763 214.261 469.633C214.093 468.638 213.63 467.725 212.938 467.023C211.646 465.878 209.726 466.165 208.067 466.515C209.521 465.27 210.975 464.026 212.429 462.78C213.521 461.945 214.475 460.926 215.251 459.765C215.634 459.18 215.875 458.506 215.953 457.801C216.032 457.096 215.945 456.381 215.701 455.72C215.132 454.436 213.514 453.665 212.339 454.364C212.927 453.397 213.971 452.862 214.786 452.098C215.601 451.334 216.206 450.016 215.593 449.064C215.316 448.69 214.945 448.404 214.522 448.238C211.74 446.939 208.412 447.526 205.749 449.074C203.086 450.621 200.978 453.023 199.029 455.476C199.332 454.61 198.322 453.744 197.453 453.886C196.598 454.136 195.866 454.72 195.407 455.517C191.515 460.918 189.941 467.838 189.76 474.607C189.041 473.817 187.673 474.17 187.043 475.04C186.491 475.976 186.248 477.077 186.351 478.173C186.394 481.44 187.022 484.671 188.203 487.695C189.367 490.689 190.766 492.271 192.82 494.499C190.694 493.001 187.409 494.074 187.536 496.997C187.717 501.202 191.328 503.114 194.431 504.821C193.968 505.477 193.098 505.682 192.783 506.657C192.595 507.36 192.571 508.099 192.712 508.814C192.854 509.528 193.157 510.197 193.596 510.763C195.493 513.081 198.671 514.363 201.275 515.36C196.517 520.266 210.531 523.355 213.374 524.489C215.134 525.076 216.699 526.177 217.886 527.662C218.638 528.608 219.326 529.609 219.944 530.658C220.335 531.304 220.844 532.725 221.608 532.988C224.063 533.833 227.409 527.287 228.673 525.707C229.582 524.572 230.769 523.693 231.549 522.488Z" fill="black"/>
<path d="M319.826 523.518L321.209 522.885C321.052 522.124 320.687 521.915 319.826 523.518Z" fill="#37474F"/>
<path d="M344.59 531.842C345.009 530.146 344.94 528.358 344.393 526.702C344.009 525.539 342.596 524.033 342.996 522.771C343.232 522.029 344.048 521.708 344.474 521.081C345.114 520.203 345.432 519.113 345.371 518.01C345.244 516.693 344.656 515.594 344.376 514.334C344.018 512.729 344.894 511.79 345.323 510.372C345.769 508.833 345.958 507.224 345.882 505.617C345.752 503.109 343.689 501.901 344.486 499.385C344.734 498.594 344.818 497.757 344.733 496.93C344.676 495.98 345.368 495.197 345.318 494.245C345.248 492.923 345.089 491.298 343.91 490.572C340.542 488.501 337.522 492.168 335.501 494.424C332.354 497.938 327.589 499.14 324.355 502.487C322.963 503.929 321.255 504.99 319.381 505.577C318.951 505.712 315.251 506.747 315.23 506.413C315.288 509.208 315.68 511.986 316.398 514.679C317.22 517.335 318.775 519.852 321.107 521.202C321.645 521.42 322.096 521.822 322.389 522.344L321.212 522.884C321.317 523.637 321.352 524.399 321.316 525.159C321.276 527.213 321.686 529.145 323.127 530.646C323.706 531.244 324.422 531.779 324.656 532.595C324.92 533.51 324.491 534.463 324.229 535.381C323.872 536.691 323.848 538.077 324.16 539.399C324.472 540.722 325.109 541.936 326.007 542.921C326.663 543.621 327.479 544.24 327.762 545.175C328.034 546.058 327.764 547.02 327.835 547.947C327.945 549.373 328.866 550.165 329.416 551.368C329.55 551.785 329.707 552.194 329.886 552.592C330.242 553.193 330.822 553.635 331.211 554.216C331.751 555.018 332.106 555.942 332.246 556.913C332.612 558.922 332.936 561.18 333.762 563.048C334.529 564.836 335.883 566.275 337.578 567.103C338.4 567.579 339.26 567.978 340.149 568.296C341.392 568.706 342.655 569.044 343.901 569.447C346.699 570.35 349.666 571.411 352.569 571.696C353.139 571.744 353.712 571.759 354.283 571.741C355.327 571.783 356.369 571.624 357.358 571.27C358.075 570.947 358.368 570.068 358.987 569.917C360.13 569.636 361.106 569.91 362.115 569.054C363.035 568.272 363.029 567.237 362.852 566.105C364.544 565.148 364.311 562.37 363.179 561.089C361.968 559.804 360.49 558.83 358.861 558.244C357.112 557.559 354.504 557.18 353.549 555.328C353.037 554.333 352.861 553.625 351.923 552.954C350.907 552.224 349.339 551.387 348.855 550.143C348.181 548.41 349.142 546.451 348.618 544.661C348.506 544.218 348.32 543.8 348.07 543.424C347.711 542.929 347.115 542.686 346.809 542.153C346.187 541.065 347.28 539.443 347.063 538.173C346.814 537.256 346.378 536.407 345.785 535.684C345.376 535.041 344.613 534.275 344.411 533.54C344.325 532.967 344.386 532.381 344.59 531.842Z" fill="#5C4D46"/>
<path opacity="0.2" d="M344.59 531.842C345.009 530.146 344.94 528.358 344.393 526.702C344.009 525.539 342.596 524.033 342.996 522.771C343.232 522.029 344.048 521.708 344.474 521.081C345.114 520.203 345.432 519.113 345.371 518.01C345.244 516.693 344.656 515.594 344.376 514.334C344.018 512.729 344.894 511.79 345.323 510.372C345.769 508.833 345.958 507.224 345.882 505.617C345.752 503.109 343.689 501.901 344.486 499.385C344.734 498.594 344.818 497.757 344.733 496.93C344.676 495.98 345.368 495.197 345.318 494.245C345.248 492.923 345.089 491.298 343.91 490.572C340.542 488.501 337.522 492.168 335.501 494.424C332.354 497.938 327.589 499.14 324.355 502.487C322.963 503.929 321.255 504.99 319.381 505.577C318.951 505.712 315.251 506.747 315.23 506.413C315.288 509.208 315.68 511.986 316.398 514.679C317.22 517.335 318.775 519.852 321.107 521.202C321.645 521.42 322.096 521.822 322.389 522.344L321.212 522.884C321.317 523.637 321.352 524.399 321.316 525.159C321.276 527.213 321.686 529.145 323.127 530.646C323.706 531.244 324.422 531.779 324.656 532.595C324.92 533.51 324.491 534.463 324.229 535.381C323.872 536.691 323.848 538.077 324.16 539.399C324.472 540.722 325.109 541.936 326.007 542.921C326.663 543.621 327.479 544.24 327.762 545.175C328.034 546.058 327.764 547.02 327.835 547.947C327.945 549.373 328.866 550.165 329.416 551.368C329.55 551.785 329.707 552.194 329.886 552.592C330.242 553.193 330.822 553.635 331.211 554.216C331.751 555.018 332.106 555.942 332.246 556.913C332.612 558.922 332.936 561.18 333.762 563.048C334.529 564.836 335.883 566.275 337.578 567.103C338.4 567.579 339.26 567.978 340.149 568.296C341.392 568.706 342.655 569.044 343.901 569.447C346.699 570.35 349.666 571.411 352.569 571.696C353.139 571.744 353.712 571.759 354.283 571.741C355.327 571.783 356.369 571.624 357.358 571.27C358.075 570.947 358.368 570.068 358.987 569.917C360.13 569.636 361.106 569.91 362.115 569.054C363.035 568.272 363.029 567.237 362.852 566.105C364.544 565.148 364.311 562.37 363.179 561.089C361.968 559.804 360.49 558.83 358.861 558.244C357.112 557.559 354.504 557.18 353.549 555.328C353.037 554.333 352.861 553.625 351.923 552.954C350.907 552.224 349.339 551.387 348.855 550.143C348.181 548.41 349.142 546.451 348.618 544.661C348.506 544.218 348.32 543.8 348.07 543.424C347.711 542.929 347.115 542.686 346.809 542.153C346.187 541.065 347.28 539.443 347.063 538.173C346.814 537.256 346.378 536.407 345.785 535.684C345.376 535.041 344.613 534.275 344.411 533.54C344.325 532.967 344.386 532.381 344.59 531.842Z" fill="black"/>
<path d="M282.432 549.523C281.241 549.112 280.017 548.817 278.774 548.643C275.67 548.073 271.512 548.37 269.244 550.866C266.883 553.466 267.002 557.801 267.256 561.092C267.366 562.518 268.286 563.31 268.836 564.513C268.971 564.93 269.128 565.339 269.307 565.737C269.663 566.337 270.242 566.78 270.632 567.361C271.172 568.163 271.527 569.087 271.667 570.058C272.033 572.066 272.357 574.326 273.183 576.193C273.95 577.981 275.304 579.42 276.999 580.249C277.821 580.724 278.681 581.123 279.569 581.442C280.812 581.851 282.076 582.189 283.322 582.592C286.12 583.494 289.087 584.555 291.99 584.841C292.56 584.888 293.132 584.903 293.704 584.886C294.748 584.928 295.79 584.768 296.778 584.413C297.495 584.092 297.789 583.213 298.407 583.061C299.552 582.78 300.528 583.055 301.535 582.198C302.456 581.417 302.45 580.382 302.273 579.249C303.968 578.292 303.731 575.515 302.6 574.233C301.388 572.949 299.911 571.975 298.282 571.388C296.533 570.704 293.925 570.325 292.969 568.473C292.457 567.478 292.282 566.77 291.346 566.098C290.328 565.37 288.76 564.532 288.276 563.287C287.602 561.554 288.563 559.596 288.039 557.804C287.646 556.459 286.541 555.927 285.962 554.731C285.517 553.812 285.591 552.728 285.134 551.821C284.541 550.725 283.576 549.905 282.432 549.523Z" fill="#5C4D46"/>
<path opacity="0.2" d="M282.432 549.523C281.241 549.112 280.017 548.817 278.774 548.643C275.67 548.073 271.512 548.37 269.244 550.866C266.883 553.466 267.002 557.801 267.256 561.092C267.366 562.518 268.286 563.31 268.836 564.513C268.971 564.93 269.128 565.339 269.307 565.737C269.663 566.337 270.242 566.78 270.632 567.361C271.172 568.163 271.527 569.087 271.667 570.058C272.033 572.066 272.357 574.326 273.183 576.193C273.95 577.981 275.304 579.42 276.999 580.249C277.821 580.724 278.681 581.123 279.569 581.442C280.812 581.851 282.076 582.189 283.322 582.592C286.12 583.494 289.087 584.555 291.99 584.841C292.56 584.888 293.132 584.903 293.704 584.886C294.748 584.928 295.79 584.768 296.778 584.413C297.495 584.092 297.789 583.213 298.407 583.061C299.552 582.78 300.528 583.055 301.535 582.198C302.456 581.417 302.45 580.382 302.273 579.249C303.968 578.292 303.731 575.515 302.6 574.233C301.388 572.949 299.911 571.975 298.282 571.388C296.533 570.704 293.925 570.325 292.969 568.473C292.457 567.478 292.282 566.77 291.346 566.098C290.328 565.37 288.76 564.532 288.276 563.287C287.602 561.554 288.563 559.596 288.039 557.804C287.646 556.459 286.541 555.927 285.962 554.731C285.517 553.812 285.591 552.728 285.134 551.821C284.541 550.725 283.576 549.905 282.432 549.523Z" fill="black"/>
<path d="M265.252 470.518C264.458 472.972 263.688 475.373 261.045 476.229C257.702 477.315 252.182 477.723 251.499 482.186C251.286 483.562 251.707 484.95 251.143 486.308C250.205 488.56 248.369 489.048 246.352 489.715C242.563 490.975 237.366 493.105 237.161 497.828C236.975 502.183 234.385 502.459 231.276 504.89C229.293 506.305 227.68 508.219 226.586 510.457C225.156 513.695 226.709 514.731 226.829 517.824C226.925 520.236 224.213 522.716 223.054 524.68C221.319 527.623 219.48 531.178 219.426 534.744C219.338 536.071 219.639 537.395 220.288 538.537C221.002 539.557 222.296 539.931 223.002 540.974C224.652 543.413 223.16 546.086 223.099 548.714C223.048 550.969 223.597 553.769 225.707 554.85C227.789 555.915 229.834 555.166 231.393 557.357C232.75 559.265 232.606 561.98 233.679 564.066C234.227 565.171 235.011 566.129 235.97 566.865C236.929 567.601 238.036 568.094 239.207 568.307C240.966 568.656 242.444 568.514 244.086 569.328C246.318 570.433 246.954 572.172 248.489 574.055C249.212 575.002 250.115 575.781 251.14 576.343C252.165 576.905 253.291 577.238 254.445 577.321C257.226 577.373 259.971 575.807 262.779 576.426C266.875 577.327 269.732 582.839 274.468 581.398C276.453 580.795 277.727 578.68 279.833 578.092C281.914 577.512 284.109 578.098 286.212 577.543C289.437 576.692 289.113 574.616 290.172 572.066C291.19 569.62 293.649 570.376 295.001 568.686C296.498 566.821 295.397 561.802 294.925 559.803C294.627 558.531 294.262 557.581 294.456 556.277C294.636 555.078 295.271 554.116 295.176 552.792C294.975 549.99 292.791 548.693 291.719 546.406C293.052 545.788 294.69 546.092 296.023 545.178C297.691 544.038 297.3 542.662 298.087 541.198C299.64 538.311 299.604 541.24 299.574 542.841C299.534 544.894 299.942 546.826 301.384 548.326C301.963 548.925 302.679 549.46 302.914 550.276C303.178 551.191 302.749 552.144 302.487 553.061C302.129 554.371 302.105 555.757 302.417 557.08C302.729 558.403 303.366 559.617 304.265 560.601C304.919 561.302 305.734 561.921 306.02 562.855C306.292 563.738 306.022 564.701 306.092 565.627C306.201 567.053 307.123 567.845 307.674 569.048C307.808 569.465 307.965 569.874 308.142 570.273C308.5 570.873 309.079 571.315 309.469 571.896C310.009 572.699 310.363 573.622 310.503 574.594C310.87 576.602 311.194 578.861 312.02 580.728C312.788 582.518 314.144 583.959 315.841 584.786C316.663 585.262 317.524 585.661 318.412 585.979C319.655 586.39 320.919 586.727 322.165 587.13C324.963 588.032 327.928 589.094 330.832 589.379C331.403 589.427 331.975 589.442 332.547 589.424C333.591 589.466 334.633 589.307 335.622 588.953C336.338 588.63 336.631 587.751 337.248 587.6C338.393 587.319 339.369 587.593 340.377 586.737C341.298 585.955 341.292 584.92 341.115 583.788C342.807 582.831 342.574 580.053 341.442 578.771C340.23 577.488 338.752 576.514 337.124 575.926C335.375 575.242 332.766 574.864 331.812 573.011C331.3 572.016 331.123 571.308 330.186 570.637C329.17 569.908 327.601 569.07 327.117 567.826C326.887 566.984 326.852 566.097 327.016 565.238C327.085 564.388 326.932 563.535 326.573 562.77C326.136 561.832 325.383 561.109 324.894 560.205C324.444 559.359 324.32 558.365 324.546 557.426C324.678 556.477 324.607 555.508 324.34 554.591C324.073 553.673 323.615 552.829 323 552.118C322.616 551.772 322.313 551.337 322.114 550.848C322.03 550.277 322.093 549.692 322.295 549.154C322.855 546.892 322.541 544.491 321.421 542.471C320.985 541.69 320.406 540.824 320.678 539.964C320.871 539.53 321.138 539.137 321.466 538.803C321.882 538.262 322.191 537.639 322.372 536.97C322.553 536.301 322.604 535.601 322.522 534.91C322.312 533.987 321.377 533.552 321.109 532.673C320.753 531.497 321.36 531.19 321.844 530.308C322.352 529.351 322.752 528.334 323.034 527.279C323.481 526.985 323.901 526.648 324.29 526.273C325.391 525.231 326.086 523.798 326.242 522.251C326.181 520.908 326.015 519.572 325.747 518.256C328.131 518.963 330.789 517.86 332.42 515.909C333.993 513.872 334.82 511.312 334.752 508.692C337.389 508.669 339.673 506.441 340.562 503.838C341.45 501.234 341.182 498.349 340.573 495.658C342.313 495.379 344.215 495.008 345.334 493.583C346.5 492.095 346.423 489.924 345.981 488.055C345.469 485.873 344.558 483.816 343.3 481.997C344.42 482.388 345.596 482.573 346.777 482.544C347.368 482.523 347.943 482.345 348.45 482.026C348.957 481.707 349.378 481.259 349.674 480.722C350.329 479.319 349.716 477.633 348.934 476.303C348.232 475.108 347.394 474.007 346.439 473.024C346.155 472.731 343.997 470.674 343.685 470.796C344.476 470.509 345.184 470.018 345.745 469.367C346.305 468.708 346.598 467.846 346.562 466.964C346.469 465.627 345.514 464.556 344.612 463.603C342.763 461.772 340.581 460.35 338.197 459.421C336.964 458.901 335.115 458.749 334.138 457.873C333.247 457.073 332.549 455.436 331.822 454.435C327.984 449.177 323.3 444.445 317.546 441.581C314.71 440.173 311.678 439.246 308.565 438.835C306.89 438.617 305.201 438.534 303.514 438.587C302.218 438.655 300.919 438.567 299.643 438.324C298.314 438.044 296.909 438.601 295.642 439.021C294.635 439.375 293.716 439.963 292.955 440.74C291.071 442.727 291.417 445.354 289.005 447.323C287.727 448.366 287.857 449.763 286.144 450.685C284.522 451.557 282.556 451.775 281.047 452.876C278.119 455.011 279.516 458.13 277.636 460.768C275.462 463.818 270.531 463.078 267.801 465.612C266.435 466.877 265.837 468.712 265.252 470.518Z" fill="#5C4D46"/>
<path opacity="0.2" d="M338.415 457.376L324.204 461.848L307.616 460.936L292.964 451.394C294.671 458.44 303.212 471.108 317.434 471.887C324.12 472.331 330.721 470.126 335.932 465.71C337.042 464.784 337.929 463.597 338.521 462.246C339.114 460.895 339.396 459.416 339.345 457.93L339.34 457.845C339.33 457.622 338.427 457.603 338.415 457.376Z" fill="black"/>
<path d="M351.751 441.124C355.528 441.913 360.642 444.831 364.378 447.513C368.253 450.293 374.019 448.733 372.668 443.678C371.316 438.622 364.743 435.819 364.743 435.819C364.743 435.819 357.977 439.865 351.751 441.124Z" fill="#FFA8A7"/>
<path d="M368.537 444.681C368.686 444.677 368.832 444.63 368.958 444.545C369.084 444.46 369.185 444.34 369.25 444.198C369.315 444.057 369.342 443.899 369.327 443.743C369.313 443.586 369.257 443.437 369.167 443.312C367.642 441.218 364.582 439.506 361.285 438.676C360.648 439.073 359.911 439.512 359.069 439.986C362.628 440.479 366.33 442.236 367.864 444.346C367.943 444.454 368.045 444.54 368.162 444.599C368.279 444.657 368.407 444.685 368.537 444.681Z" fill="#F28F8F"/>
<path d="M330.861 408.567C332.016 409.383 333.173 410.186 334.348 410.964C337.076 412.851 340.013 414.382 343.094 415.522C345.169 416.286 347.401 416.45 349.557 415.997C350.267 415.822 351.594 415.437 352.054 414.794C352.515 414.15 352.139 413.654 352.104 413.002C355.113 411.707 352.742 409.073 351.293 407.515C355.031 406.627 350.973 403.699 349.663 402.597C345.926 399.454 343.817 394.214 339.559 391.782C337.561 390.641 335.418 390.651 331.908 390.845C328.375 391.054 324.871 391.636 321.449 392.581C319.547 393.096 315.314 394.569 315.374 397.04C315.407 398.423 317.944 399.152 319.438 400.337C321.077 401.637 322.822 402.943 324.494 404.076C326.641 405.535 328.74 407.067 330.861 408.567Z" fill="black"/>
<path d="M295.483 438.573C296.546 440.99 303.106 447.809 302.438 450.405C302.014 452.054 300.436 453.276 301.254 454.886C302.363 457.069 305.752 458.987 307.874 459.9C310.93 461.194 314.171 461.941 317.463 462.112C321.953 462.376 326.308 460.865 330.614 459.648C332.297 459.232 333.862 458.404 335.181 457.231C336.5 456.058 337.535 454.575 338.201 452.902C340.073 452.216 341.144 450.871 341.385 449.6C343.212 451.06 345.494 451.749 347.781 451.531C348.837 451.404 349.851 451.02 350.742 450.411C351.098 450.133 352.879 448.114 352.388 447.56C353.175 448.448 354.116 449.407 355.271 449.357C355.925 449.286 356.544 449.008 357.044 448.559C357.957 447.822 358.711 446.889 359.254 445.823C359.798 444.757 360.119 443.582 360.196 442.375C360.803 443.368 362.239 443.493 363.203 442.885C364.134 442.202 364.794 441.186 365.059 440.029C365.454 438.886 365.49 437.641 365.163 436.476C365.533 436.767 365.987 436.916 366.449 436.896C366.91 436.877 367.352 436.691 367.698 436.37C368.034 436.037 368.296 435.631 368.467 435.18C368.638 434.73 368.712 434.245 368.686 433.761C368.625 432.795 368.406 431.846 368.038 430.958C368.216 431.077 368.427 431.13 368.637 431.108C368.847 431.086 369.044 430.99 369.195 430.835C369.491 430.517 369.689 430.112 369.76 429.674C370.133 427.68 369.785 425.612 368.784 423.872C367.847 422.118 367.164 419.727 365.516 418.698C363.738 417.478 361.729 416.678 359.628 416.352C357.072 415.903 354.614 414.979 352.368 413.624C350.401 412.42 347.865 411.341 347.239 408.763C347.07 407.641 346.83 406.532 346.521 405.444C345.983 404.037 345.304 403.115 343.495 402.043C342.005 401.159 340.687 400.5 339.24 399.528C337.617 398.51 335.945 397.579 334.233 396.739C324.596 391.626 311.262 396.213 302.032 403.272C288.628 413.525 289.428 424.81 295.483 438.573Z" fill="#5C4D46"/>
<path d="M334.524 427.865C336.228 427.518 337.34 425.788 337.009 424.001C336.678 422.214 335.028 421.047 333.325 421.394C331.621 421.741 330.508 423.472 330.839 425.259C331.171 427.046 332.82 428.213 334.524 427.865Z" fill="black"/>
<path opacity="0.2" d="M322.572 452.69C322.572 452.69 324.99 457.997 329.861 459.864C330.115 459.792 330.365 459.718 330.615 459.648C332.298 459.231 333.863 458.403 335.182 457.23C336.5 456.058 337.536 454.574 338.202 452.901C340.074 452.215 341.145 450.87 341.386 449.598C332.889 456.06 322.572 452.69 322.572 452.69Z" fill="black"/>
<path d="M338.202 452.9C332.375 459.746 320.589 460.89 312.364 457.677C305.642 455.049 300.769 448.645 299.317 439.285C299.317 439.285 293.649 442.644 293.81 447.588C294.403 452.709 298.472 461.017 307.502 465.029C315.504 468.584 332.666 469.907 339.247 459.923C339.247 459.921 341.205 456.681 338.202 452.9Z" fill="#7BA7AB"/>
<path d="M309.385 407.478C309.923 406.816 307.978 405.038 305.648 404.908C301.519 404.679 296.324 407.95 293.484 410.916C290.594 413.933 287.574 417.423 286.578 421.719C285.257 427.189 284.652 432.823 284.782 438.465C284.872 441.235 284.761 445.316 286.764 447.481C287.328 448.087 288.081 448.459 288.885 448.529C289.133 448.53 289.378 448.474 289.602 448.364C289.826 448.254 290.024 448.093 290.182 447.893C290.182 447.893 290.187 449.859 290.206 450.315C290.257 451.136 290.358 451.953 290.511 452.76C290.823 454.607 291.543 456.262 293.125 457.237C295.374 458.625 297.488 457.394 299.197 455.794C302.14 458.648 306.954 454.526 306.669 450.894C309.461 451.681 311.446 448.377 310.985 445.535C314.17 446.171 313.817 442.593 311.956 437.486C311.488 436.204 311.051 434.864 310.56 433.632C308.477 428.643 307.18 423.332 306.722 417.907C306.508 414.702 307.253 410.113 309.385 407.478Z" fill="black"/>
<path d="M365.601 427.978C364.018 429.58 359.142 429.635 356.941 428.418C356.431 428.118 355.984 427.714 355.625 427.23C355.266 426.746 355.003 426.192 354.852 425.6C354.701 425.008 354.664 424.39 354.744 423.782C354.824 423.175 355.019 422.591 355.317 422.064C356.581 420.123 359.502 417.161 361.407 416.588C363.312 416.015 365.935 417.775 366.442 419.079C367.415 421.583 367.767 425.787 365.601 427.978Z" fill="black"/>
<path opacity="0.2" d="M296.864 544.375C296.759 543.992 296.64 543.644 296.564 543.418C296.043 541.891 295.462 540.922 295.225 539.172C294.995 537.475 294.678 536.296 293.416 535.186C292.329 534.198 291.32 533.119 290.398 531.96C289.014 530.327 287.27 530.394 285.316 530.194C283.362 529.994 282.068 529.173 280.253 528.533C278.077 527.765 275.502 528.159 273.391 529.036C271.625 529.769 270.934 531.336 269.407 532.284C267.88 533.232 262.562 535.443 263.66 538.085C264.465 537.464 264.797 536.3 265.674 535.602C267.063 534.5 268.464 534.519 270.069 534.197C272.603 533.69 274.279 531.693 276.992 531.754C278.732 531.766 280.433 532.295 281.898 533.279C283.349 534.333 283.361 535.464 284.047 536.972C284.711 538.432 285.716 538.157 286.959 538.58C288.23 539.082 289.354 539.923 290.22 541.021C291.045 542.067 291.562 543.342 291.708 544.691C291.68 545.263 291.682 545.837 291.716 546.409C293.049 545.791 294.687 546.094 296.021 545.18C296.345 544.966 296.63 544.693 296.864 544.375Z" fill="black"/>
<path d="M513.072 380.532C513.423 398.91 517.133 520.495 517.133 520.495C517.509 525.145 519.102 533.703 519.43 550.453C519.489 553.391 520.215 557.687 519.43 560.26C508.57 571.651 489.26 580.766 485.432 582.836C485.432 582.836 482.645 551.402 479.754 527.36C477.23 506.379 469.884 445.231 469.884 445.231L463.737 508.269C464.313 516.689 464.303 525.143 463.708 533.562C462.953 544.683 458.078 595.663 458.078 595.663C455.645 599.126 444.059 603.084 429.081 605.335C429.081 605.335 426.969 511.14 426.783 500.935C426.571 489.302 428.119 379.219 428.119 379.219L513.072 380.532Z" fill="#455A64"/>
<path opacity="0.3" d="M513.072 380.532C513.423 398.91 517.133 520.495 517.133 520.495C517.509 525.145 519.102 533.703 519.43 550.453C519.472 552.566 519.43 554.331 519.43 560.668C515.701 565.774 497.936 576.161 485.572 582.789C485.572 582.789 482.644 551.402 479.753 527.36C477.229 506.378 469.884 445.23 469.884 445.23L463.737 508.268C464.313 516.689 464.303 525.142 463.707 533.561C462.952 544.682 458.157 596.186 458.157 596.186C454.249 599.227 447.646 602.82 428.906 605.123C428.906 605.123 426.968 511.134 426.781 500.935C426.569 489.302 428.117 379.219 428.117 379.219L513.072 380.532Z" fill="black"/>
<path opacity="0.05" d="M466.921 412.036C459.57 409.048 452.871 404.532 447.225 398.761C447.225 398.761 450.365 408.392 463.257 416.314L464.188 503.672L469.887 445.23L466.921 412.036Z" fill="black"/>
<path d="M374.574 285.901C372.023 283.009 367.864 278.575 367.322 277.761C363.213 271.6 362.459 267.088 358.255 260.722C355.871 257.249 353.858 253.511 352.252 249.577C351.077 246.935 349.072 249.384 348.448 250.762C347.392 253.094 347.013 255.701 347.359 258.257C347.611 260.053 347.907 261.87 348.076 263.656C348.224 265.248 347.649 265.46 346.156 264.896C342.997 263.688 339.982 262.1 337.172 260.163C334.273 258.146 331.484 255.951 328.631 253.904C325.977 251.998 324.148 249.62 321.753 247.495C319.955 245.898 317.008 243.948 315.455 246.944C314.522 248.746 315.914 250.435 316.689 251.94C317.581 253.666 317.206 255.117 317.14 256.966C317.069 258.958 317.075 261.25 318.252 262.924C319.487 264.687 320.525 265.74 320.637 268.068C320.73 269.984 320.368 271.887 320.937 273.777C321.407 275.343 322.724 276.324 323.665 277.591C325.48 280.032 327.348 281.525 329.654 283.362C332.316 285.382 335.13 287.171 338.068 288.713C345.182 292.76 347.774 293.958 350.148 295.3C354.324 297.814 358.189 300.859 361.653 304.367C367.237 298.993 372.433 293.963 374.574 285.901Z" fill="#FFA8A7"/>
<path d="M442.445 244.111C425.541 248.385 423.406 257.825 414.789 273.638C406.172 289.45 399.267 303.775 399.267 303.775L371.125 281.338C368.262 291.354 362.579 298.677 355.031 304.223C355.031 304.223 378.009 325.13 388.195 331.953C397.703 338.32 406.561 346.58 416.63 333.312C431.389 313.861 442.445 292.861 442.445 292.861V244.111Z" fill="#85A8A4"/>
<path d="M399.267 303.775C403.314 307.294 407.074 314.801 407.074 314.801C407.074 314.801 407.395 304.917 401.654 298.917L399.267 303.775Z" fill="#768BA3"/>
<path d="M483.989 241.768C487.257 242.595 497.649 245.529 506.081 248.647C510.346 250.351 514.045 253.319 516.729 257.189C522.85 266.571 517.328 287.399 512.821 326.658C513.168 352.009 513.86 383.523 513.86 383.523C502.748 392.012 450.908 397.781 427.524 379.869C427.524 379.869 426.749 284.738 428.293 272.367C431.251 248.692 440.089 242.363 458.338 241.251L483.989 241.768Z" fill="#99D1D6"/>
<path opacity="0.2" d="M483.988 241.769C487.257 242.595 497.648 245.529 506.081 248.647C510.345 250.351 514.044 253.319 516.728 257.19C522.849 266.571 517.327 287.4 512.821 326.658C513.167 352.01 513.86 383.523 513.86 383.523C502.748 392.012 450.908 397.782 427.523 379.87C427.523 379.87 426.748 284.738 428.292 272.368C431.25 248.692 440.088 242.364 458.337 241.252L483.988 241.769Z" fill="black"/>
<path d="M478.374 184.029C478.259 189.087 476.716 193.996 473.941 198.134C471.166 202.273 467.283 205.455 462.783 207.279C458.283 209.103 453.368 209.487 448.661 208.382C443.953 207.276 439.664 204.732 436.335 201.069C433.006 197.407 430.787 192.792 429.959 187.808C429.131 182.823 429.731 177.693 431.683 173.066C433.635 168.439 436.851 164.522 440.925 161.813C444.999 159.103 449.748 157.721 454.571 157.841C457.773 157.921 460.929 158.662 463.859 160.022C466.788 161.381 469.433 163.332 471.644 165.764C473.854 168.196 475.586 171.06 476.741 174.194C477.896 177.328 478.451 180.67 478.374 184.029Z" fill="black"/>
<path d="M495.727 202.658C495.727 202.658 491.333 222.031 489.674 225.191C488.573 227.137 486.799 228.564 484.722 229.176L485.312 215.487L495.727 202.658Z" fill="black"/>
<path d="M491.403 174.639C492.789 174.504 494.185 174.703 495.487 175.22C496.788 175.737 497.96 176.559 498.913 177.622C502.086 181.191 500.021 192.065 495.727 202.658L488.264 203.367L491.403 174.639Z" fill="black"/>
<path d="M486.032 203.317C487.502 204.29 489.7 201.336 491.586 199.363C493.473 197.389 499.545 194.78 502.392 201.479C505.292 208.305 499.389 217.082 494.623 218.522C486.409 221.001 485.311 215.487 485.311 215.487L483.913 250.402C478.103 257.838 468.182 263.993 457.684 266.101C454.297 260.838 453.989 253.106 457.466 245.452L457.718 235.449C457.718 235.449 450.304 236.44 446.715 235.765C440.74 234.642 437.06 229.593 435.419 222.736C432.911 212.266 432.296 200.579 434.805 181.436C437.891 157.913 464.198 158.348 478.098 168.018C491.999 177.688 486.032 203.317 486.032 203.317Z" fill="#FFA8A7"/>
<path d="M485.97 205.953C486.72 205.987 489.689 201.089 491.585 199.363C494.217 196.971 491.401 174.639 491.401 174.639C492.335 172.704 492.691 170.519 492.424 168.369C492.157 166.219 491.278 164.203 489.903 162.584C484.695 156.276 477.845 154.441 470.02 154.633C467.156 154.702 464.334 154.956 461.481 155.011C458.076 154.982 454.699 154.368 451.483 153.194C447.098 151.726 442.865 149.743 438.389 148.621C436.945 148.259 435.198 148.076 434.179 149.21C433.403 150.074 433.355 151.4 433.496 152.577C433.829 155.309 434.921 157.879 436.635 159.966C435.102 159.69 433.543 159.611 431.992 159.732C430.427 159.86 428.962 160.584 427.871 161.768C426.416 163.495 426.284 166.16 427.159 168.274C428.13 170.362 429.707 172.074 431.664 173.163C435.37 175.402 439.735 176.125 443.919 175.19C444.641 177.611 446.884 179.158 449.097 180.179C452.596 181.768 456.374 182.569 460.187 182.53C463.999 182.492 467.762 181.615 471.231 179.955C471.1 180.016 473.529 183.133 473.77 183.388C474.797 184.456 475.951 185.379 477.204 186.135C477.805 186.497 478.427 186.819 479.066 187.099C479.652 187.356 480.675 187.464 481.167 187.85C481.955 188.469 481.867 190.142 482.007 191.133C482.401 193.944 482.747 196.766 483.261 199.558C483.589 201.325 483.857 203.914 485.045 205.335C485.15 205.499 485.287 205.639 485.446 205.745C485.605 205.852 485.784 205.922 485.97 205.953Z" fill="black"/>
<path d="M491.349 176.37L500.489 171.516C500.216 170.871 499.82 170.291 499.327 169.811C498.834 169.331 498.253 168.961 497.62 168.724C496.986 168.486 496.313 168.386 495.642 168.429C494.97 168.472 494.314 168.657 493.713 168.974C492.487 169.651 491.558 170.798 491.118 172.175C490.677 173.553 490.76 175.055 491.349 176.37Z" fill="black"/>
<path d="M457.715 235.447C457.715 235.447 469.987 232.73 474.726 230.238C477.897 228.572 481.021 222.932 481.822 221.011C481.822 221.011 481.549 228.054 478.667 231.736C475.141 236.239 457.625 239.465 457.625 239.465L457.715 235.447Z" fill="#F28F8F"/>
<path d="M462.228 199.884C462.276 200.434 462.478 200.956 462.807 201.387C463.136 201.817 463.579 202.137 464.08 202.306C464.581 202.474 465.118 202.485 465.625 202.336C466.132 202.187 466.586 201.885 466.93 201.468C467.275 201.051 467.495 200.537 467.563 199.99C467.631 199.442 467.544 198.886 467.313 198.39C467.083 197.894 466.718 197.48 466.265 197.2C465.811 196.919 465.289 196.785 464.764 196.813C464.405 196.838 464.053 196.938 463.731 197.106C463.409 197.275 463.121 197.508 462.885 197.794C462.649 198.079 462.47 198.411 462.357 198.77C462.244 199.129 462.2 199.507 462.228 199.884Z" fill="black"/>
<path d="M463.958 189.295L469.852 192.305C470.221 191.458 470.263 190.495 469.971 189.617C469.679 188.738 469.074 188.012 468.283 187.59C467.894 187.394 467.471 187.283 467.04 187.263C466.608 187.243 466.178 187.315 465.774 187.474C465.369 187.633 465 187.877 464.688 188.19C464.376 188.503 464.128 188.879 463.958 189.295Z" fill="black"/>
<path d="M436.196 191.907L442.445 189.661C442.326 189.227 442.124 188.823 441.851 188.474C441.578 188.124 441.24 187.837 440.858 187.629C440.475 187.421 440.056 187.297 439.627 187.264C439.197 187.232 438.766 187.292 438.359 187.44C437.522 187.753 436.831 188.39 436.428 189.221C436.026 190.053 435.943 191.014 436.196 191.907Z" fill="black"/>
<path d="M439.261 199.089C439.234 199.64 439.362 200.187 439.63 200.663C439.897 201.138 440.292 201.521 440.765 201.763C441.237 202.005 441.768 202.096 442.29 202.024C442.811 201.953 443.302 201.722 443.699 201.361C444.097 200.999 444.385 200.523 444.527 199.992C444.669 199.46 444.659 198.897 444.498 198.371C444.337 197.846 444.032 197.382 443.622 197.036C443.211 196.691 442.713 196.48 442.189 196.429C441.83 196.4 441.469 196.446 441.127 196.565C440.785 196.683 440.469 196.871 440.196 197.119C439.924 197.366 439.701 197.667 439.541 198.006C439.38 198.344 439.285 198.712 439.261 199.089Z" fill="black"/>
<path d="M453.768 197.493L452.801 214.409L444.39 211.35L453.768 197.493Z" fill="#F28F8F"/>
<path d="M462.882 217.283L452.32 220.313C452.479 221.053 452.779 221.752 453.201 222.367C453.623 222.983 454.159 223.504 454.778 223.898C455.396 224.291 456.083 224.55 456.799 224.659C457.515 224.768 458.244 224.725 458.944 224.531C460.366 224.092 461.571 223.091 462.306 221.74C463.04 220.388 463.247 218.791 462.882 217.283Z" fill="#B16668"/>
<path d="M462.884 220.086C462.416 219.925 461.928 219.84 461.435 219.835C460.195 219.837 458.999 220.323 458.081 221.199C457.163 222.074 456.588 223.275 456.467 224.57C456.529 224.6 456.598 224.615 456.656 224.643C457.417 224.785 458.197 224.748 458.942 224.536C459.923 224.24 460.808 223.669 461.502 222.885C462.197 222.101 462.674 221.133 462.884 220.086Z" fill="#F28F8F"/>
<path d="M487.188 237.474C487.188 237.474 478.802 259.38 476.421 272.827C474.041 286.275 474.498 324.224 475.765 348.316C476.689 365.863 480.325 398.297 480.325 398.297C480.325 398.297 486.332 399.17 500.839 397.445C513.19 395.976 519.44 393.335 522.091 392.193C522.091 392.193 519.799 342.876 518.067 325.661C516.47 309.78 516.525 301.047 516.525 301.047L521.72 264.805C521.72 264.805 521.188 245.358 511.887 242.905C501.967 240.284 487.188 237.474 487.188 237.474Z" fill="#99D6CF"/>
<path d="M558.355 382.517C557.633 377.636 556.948 372.895 556.277 368.349L536.538 376.024C537.514 381.184 538.151 386.409 538.442 391.661C538.512 393.934 537.785 396.156 536.399 397.905C532.722 402.628 532.915 406.232 530.652 411.343C528.879 415.344 526.778 416.93 527.453 417.762C528.318 418.832 530.932 420.132 533.952 417.851C535.472 416.705 536.429 415.41 538.569 412.606C538.569 412.606 538.545 421.914 535.729 429.841L529.724 433.481C529.724 433.481 533.116 437.467 543.522 433.606C555.274 429.247 559.465 427.421 559.498 406.072C559.505 399.922 559.496 390.222 558.355 382.517Z" fill="#FFA8A7"/>
<path d="M511.89 245.377C523.682 248.308 529.857 251.934 533.558 259.792C540.025 273.516 548.881 290.488 554.65 316.909C560.053 341.647 559.15 362.078 560.808 384.582C560.808 384.582 553.79 400.092 535.57 393.245C535.57 393.245 531.264 359.85 526.622 334.503C522.579 312.426 510.412 290.218 510.412 290.218C510.412 290.218 504.653 268.556 511.89 245.377Z" fill="#85A8A4"/>
<path d="M484.722 231.688C486.083 232.016 487.545 232.252 489.383 234.796C490.604 236.417 491.978 237.904 493.484 239.235C493.484 239.235 494.272 256.186 492.857 260.043C491.631 263.388 483.469 279.196 483.469 279.196C483.469 279.196 484.007 294.556 484.132 299.132C484.256 303.707 475.799 322.852 474.849 331.744C474.849 331.744 474.43 295.617 475.686 285.582C477.872 268.118 480.649 246.265 484.332 239.112L484.722 231.688Z" fill="#EBEBEB"/>
<path d="M457.443 238.918C442.212 241.259 439.515 243.543 434.093 247.739C427.432 252.897 422.348 257.62 420.813 285.166C419.279 312.712 418.97 384.948 418.97 384.948C418.97 384.948 430.322 387.736 437.549 387.445C437.549 387.445 437.185 304.941 438.063 285.469C438.941 265.997 443.381 256.504 449.735 250.087C451.519 244.712 452.372 241.849 457.371 240.712L457.443 238.918Z" fill="#99D6CF"/>
<path d="M447.92 255.663C441.94 265.209 437.76 279.334 436.937 308.299C436.837 311.742 436.751 316.577 436.674 322.396C436.674 322.396 431.75 296.149 432.623 290.576C433.496 285.004 439.254 273.446 439.254 273.446C438.504 263.866 440.633 252.974 444.135 246.413C445.014 244.766 446.391 243.42 449.715 241.037C453.039 238.653 456.461 236.561 457.678 236.243L457.477 244.785C455.237 246.548 453.2 248.238 447.92 255.663Z" fill="#99D6CF"/>
<defs>
<filter id="filter0_d_1_549" x="133.558" y="70.9396" width="498.186" height="552.258" filterUnits="userSpaceOnUse" color-interpolation-filters="sRGB">
<feFlood flood-opacity="0" result="BackgroundImageFix"/>
<feColorMatrix in="SourceAlpha" type="matrix" values="0 0 0 0 0 0 0 0 0 0 0 0 0 0 0 0 0 0 127 0" result="hardAlpha"/>
<feOffset/>
<feGaussianBlur stdDeviation="5"/>
<feColorMatrix type="matrix" values="0 0 0 0 0 0 0 0 0 0 0 0 0 0 0 0 0 0 0.263 0"/>
<feBlend mode="normal" in2="BackgroundImageFix" result="effect1_dropShadow_1_549"/>
<feBlend mode="normal" in="SourceGraphic" in2="effect1_dropShadow_1_549" result="shape"/>
</filter>
</defs>
</svg>
