<svg width="1781" height="594" viewBox="0 0 1781 594" fill="none" xmlns="http://www.w3.org/2000/svg">
<path d="M1547 278C1547 270.88 1544.89 263.92 1540.93 257.999C1536.98 252.079 1531.35 247.465 1524.78 244.74C1518.2 242.016 1510.96 241.303 1503.98 242.692C1496.99 244.081 1490.58 247.509 1485.54 252.544C1480.51 257.579 1477.08 263.993 1475.69 270.977C1474.3 277.96 1475.02 285.198 1477.74 291.777C1480.47 298.355 1485.08 303.977 1491 307.933C1496.92 311.889 1503.88 314 1511 314L1511 278H1547Z" fill="#1F1F39"/>
<path d="M1780.82 8.85449C1755.14 13.7995 1765.25 37.4693 1744 37.4377" stroke="white" stroke-width="7" stroke-linecap="round" stroke-linejoin="round"/>
<circle cx="141.5" cy="529.5" r="50.5" stroke="#1F1F39" stroke-width="28"/>
<path fill-rule="evenodd" clip-rule="evenodd" d="M15.7332 204C7.25564 212.022 6.60764 225.383 14.3976 234.195C22.1876 243.006 35.5272 244.001 44.5284 236.571L15.7332 204Z" fill="white"/>
</svg>
