<svg width="192" height="432" viewBox="0 0 192 432" fill="none" xmlns="http://www.w3.org/2000/svg">
<path d="M120 396C120 403.12 122.111 410.08 126.067 416.001C130.023 421.921 135.645 426.535 142.223 429.26C148.802 431.984 156.04 432.697 163.023 431.308C170.007 429.919 176.421 426.491 181.456 421.456C186.491 416.421 189.919 410.007 191.308 403.023C192.697 396.04 191.984 388.802 189.26 382.223C186.535 375.645 181.921 370.023 176.001 366.067C170.08 362.111 163.12 360 156 360L156 396L120 396Z" fill="#7FC4AF"/>
<path d="M2.62586 5.25174C4.07609 5.25174 5.25174 4.0761 5.25174 2.62587C5.25174 1.17565 4.07609 0 2.62586 0C1.17564 0 0 1.17565 0 2.62587C0 4.0761 1.17564 5.25174 2.62586 5.25174Z" fill="white"/>
<path d="M45.8129 5.25174C47.2631 5.25174 48.4388 4.0761 48.4388 2.62587C48.4388 1.17565 47.2631 0 45.8129 0C44.3627 0 43.187 1.17565 43.187 2.62587C43.187 4.0761 44.3627 5.25174 45.8129 5.25174Z" fill="white"/>
<path d="M89 5.25174C90.4502 5.25174 91.6259 4.0761 91.6259 2.62587C91.6259 1.17565 90.4502 0 89 0C87.5498 0 86.3741 1.17565 86.3741 2.62587C86.3741 4.0761 87.5498 5.25174 89 5.25174Z" fill="white"/>
<path d="M132.187 5.25174C133.637 5.25174 134.813 4.0761 134.813 2.62587C134.813 1.17565 133.637 0 132.187 0C130.737 0 129.561 1.17565 129.561 2.62587C129.561 4.0761 130.737 5.25174 132.187 5.25174Z" fill="white"/>
<path d="M175.374 5.25174C176.824 5.25174 178 4.0761 178 2.62587C178 1.17565 176.824 0 175.374 0C173.924 0 172.748 1.17565 172.748 2.62587C172.748 4.0761 173.924 5.25174 175.374 5.25174Z" fill="white"/>
<path d="M2.62586 45.0896C4.07609 45.0896 5.25174 43.914 5.25174 42.4638C5.25174 41.0135 4.07609 39.8379 2.62586 39.8379C1.17564 39.8379 0 41.0135 0 42.4638C0 43.914 1.17564 45.0896 2.62586 45.0896Z" fill="white"/>
<path d="M45.8129 45.0896C47.2631 45.0896 48.4388 43.914 48.4388 42.4638C48.4388 41.0135 47.2631 39.8379 45.8129 39.8379C44.3627 39.8379 43.187 41.0135 43.187 42.4638C43.187 43.914 44.3627 45.0896 45.8129 45.0896Z" fill="white"/>
<path d="M89 45.0896C90.4502 45.0896 91.6259 43.914 91.6259 42.4638C91.6259 41.0135 90.4502 39.8379 89 39.8379C87.5498 39.8379 86.3741 41.0135 86.3741 42.4638C86.3741 43.914 87.5498 45.0896 89 45.0896Z" fill="white"/>
<path d="M132.187 45.0896C133.637 45.0896 134.813 43.914 134.813 42.4638C134.813 41.0135 133.637 39.8379 132.187 39.8379C130.737 39.8379 129.561 41.0135 129.561 42.4638C129.561 43.914 130.737 45.0896 132.187 45.0896Z" fill="white"/>
<path d="M175.374 45.0896C176.824 45.0896 178 43.914 178 42.4638C178 41.0135 176.824 39.8379 175.374 39.8379C173.924 39.8379 172.748 41.0135 172.748 42.4638C172.748 43.914 173.924 45.0896 175.374 45.0896Z" fill="white"/>
<path d="M2.62586 84.9275C4.07609 84.9275 5.25174 83.7519 5.25174 82.3017C5.25174 80.8514 4.07609 79.6758 2.62586 79.6758C1.17564 79.6758 0 80.8514 0 82.3017C0 83.7519 1.17564 84.9275 2.62586 84.9275Z" fill="white"/>
<path d="M45.8129 84.9275C47.2631 84.9275 48.4388 83.7519 48.4388 82.3017C48.4388 80.8514 47.2631 79.6758 45.8129 79.6758C44.3627 79.6758 43.187 80.8514 43.187 82.3017C43.187 83.7519 44.3627 84.9275 45.8129 84.9275Z" fill="white"/>
<path d="M89 84.9275C90.4502 84.9275 91.6259 83.7519 91.6259 82.3017C91.6259 80.8514 90.4502 79.6758 89 79.6758C87.5498 79.6758 86.3741 80.8514 86.3741 82.3017C86.3741 83.7519 87.5498 84.9275 89 84.9275Z" fill="white"/>
<path d="M132.187 84.9275C133.637 84.9275 134.813 83.7519 134.813 82.3017C134.813 80.8514 133.637 79.6758 132.187 79.6758C130.737 79.6758 129.561 80.8514 129.561 82.3017C129.561 83.7519 130.737 84.9275 132.187 84.9275Z" fill="white"/>
<path d="M175.374 84.9275C176.824 84.9275 178 83.7519 178 82.3017C178 80.8514 176.824 79.6758 175.374 79.6758C173.924 79.6758 172.748 80.8514 172.748 82.3017C172.748 83.7519 173.924 84.9275 175.374 84.9275Z" fill="white"/>
<path d="M2.62586 124.768C4.07609 124.768 5.25174 123.593 5.25174 122.142C5.25174 120.692 4.07609 119.517 2.62586 119.517C1.17564 119.517 0 120.692 0 122.142C0 123.593 1.17564 124.768 2.62586 124.768Z" fill="white"/>
<path d="M45.8129 124.768C47.2631 124.768 48.4388 123.593 48.4388 122.142C48.4388 120.692 47.2631 119.517 45.8129 119.517C44.3627 119.517 43.187 120.692 43.187 122.142C43.187 123.593 44.3627 124.768 45.8129 124.768Z" fill="white"/>
<path d="M89 124.768C90.4502 124.768 91.6259 123.593 91.6259 122.142C91.6259 120.692 90.4502 119.517 89 119.517C87.5498 119.517 86.3741 120.692 86.3741 122.142C86.3741 123.593 87.5498 124.768 89 124.768Z" fill="white"/>
<path d="M132.187 124.768C133.637 124.768 134.813 123.593 134.813 122.142C134.813 120.692 133.637 119.517 132.187 119.517C130.737 119.517 129.561 120.692 129.561 122.142C129.561 123.593 130.737 124.768 132.187 124.768Z" fill="white"/>
<path d="M175.374 124.768C176.824 124.768 178 123.593 178 122.142C178 120.692 176.824 119.517 175.374 119.517C173.924 119.517 172.748 120.692 172.748 122.142C172.748 123.593 173.924 124.768 175.374 124.768Z" fill="white"/>
<path d="M2.62586 164.604C4.07609 164.604 5.25174 163.429 5.25174 161.978C5.25174 160.528 4.07609 159.353 2.62586 159.353C1.17564 159.353 0 160.528 0 161.978C0 163.429 1.17564 164.604 2.62586 164.604Z" fill="white"/>
<path d="M45.8129 164.604C47.2631 164.604 48.4388 163.429 48.4388 161.978C48.4388 160.528 47.2631 159.353 45.8129 159.353C44.3627 159.353 43.187 160.528 43.187 161.978C43.187 163.429 44.3627 164.604 45.8129 164.604Z" fill="white"/>
<path d="M89 164.604C90.4502 164.604 91.6259 163.429 91.6259 161.978C91.6259 160.528 90.4502 159.353 89 159.353C87.5498 159.353 86.3741 160.528 86.3741 161.978C86.3741 163.429 87.5498 164.604 89 164.604Z" fill="white"/>
<path d="M132.187 164.604C133.637 164.604 134.813 163.429 134.813 161.978C134.813 160.528 133.637 159.353 132.187 159.353C130.737 159.353 129.561 160.528 129.561 161.978C129.561 163.429 130.737 164.604 132.187 164.604Z" fill="white"/>
<path d="M175.374 164.604C176.824 164.604 178 163.429 178 161.978C178 160.528 176.824 159.353 175.374 159.353C173.924 159.353 172.748 160.528 172.748 161.978C172.748 163.429 173.924 164.604 175.374 164.604Z" fill="white"/>
</svg>
