<svg width="37" height="20" viewBox="0 0 37 20" fill="none" xmlns="http://www.w3.org/2000/svg">
<rect width="34" height="20" rx="5" fill="#7FC4AF"/>
<path d="M36.2273 10.4204L33 12.8408L33 7.99991L36.2273 10.4204Z" fill="#7FC4AF"/>
<path d="M13.0254 11.5352H10.457L9.96875 13H8.41113L11.0576 5.89062H12.415L15.0762 13H13.5186L13.0254 11.5352ZM10.8525 10.3486H12.6299L11.7363 7.6875L10.8525 10.3486ZM16.7119 7.7168L16.7559 8.32715C17.1335 7.85514 17.6396 7.61914 18.2744 7.61914C18.8343 7.61914 19.251 7.78353 19.5244 8.1123C19.7979 8.44108 19.9378 8.93262 19.9443 9.58691V13H18.5332V9.62109C18.5332 9.32161 18.4681 9.10514 18.3379 8.97168C18.2077 8.83496 17.9912 8.7666 17.6885 8.7666C17.2913 8.7666 16.9935 8.93587 16.7949 9.27441V13H15.3838V7.7168H16.7119ZM23.8799 11.54C23.8799 11.3675 23.7936 11.2324 23.6211 11.1348C23.4518 11.0339 23.1784 10.9443 22.8008 10.8662C21.5443 10.6025 20.916 10.0687 20.916 9.26465C20.916 8.7959 21.1097 8.40527 21.4971 8.09277C21.8877 7.77702 22.3971 7.61914 23.0254 7.61914C23.696 7.61914 24.2314 7.77702 24.6318 8.09277C25.0355 8.40853 25.2373 8.81868 25.2373 9.32324H23.8262C23.8262 9.12142 23.7611 8.9554 23.6309 8.8252C23.5007 8.69173 23.2972 8.625 23.0205 8.625C22.7829 8.625 22.599 8.67871 22.4688 8.78613C22.3385 8.89355 22.2734 9.03027 22.2734 9.19629C22.2734 9.35254 22.3467 9.47949 22.4932 9.57715C22.6429 9.67155 22.8936 9.75456 23.2451 9.82617C23.5967 9.89453 23.8929 9.97266 24.1338 10.0605C24.8792 10.334 25.252 10.8076 25.252 11.4814C25.252 11.9632 25.0452 12.3538 24.6318 12.6533C24.2184 12.9495 23.6846 13.0977 23.0303 13.0977C22.5876 13.0977 22.1937 13.0195 21.8486 12.8633C21.5068 12.7038 21.2383 12.4873 21.043 12.2139C20.8477 11.9372 20.75 11.6393 20.75 11.3203H22.0879C22.1009 11.571 22.1937 11.763 22.3662 11.8965C22.5387 12.0299 22.7699 12.0967 23.0596 12.0967C23.3298 12.0967 23.5332 12.0462 23.6699 11.9453C23.8099 11.8411 23.8799 11.7061 23.8799 11.54Z" fill="white"/>
</svg>
