<svg width="30" height="27" viewBox="0 0 30 27" fill="none" xmlns="http://www.w3.org/2000/svg">
<path d="M2.40825e-10 4.99654C0.127275 4.45876 0.197524 3.89882 0.392301 3.38697C0.654941 2.67697 1.08042 2.03844 1.63457 1.52268C2.18872 1.00692 2.8561 0.628304 3.5831 0.417227C4.31011 0.206149 5.07648 0.168498 5.82068 0.307297C6.56487 0.446097 7.26614 0.757479 7.86817 1.21644C7.9465 1.27466 8.02482 1.33289 8.104 1.39112C10.4022 -0.481074 12.705 -0.437273 15.051 1.36398C15.075 1.35727 15.0972 1.34556 15.1163 1.32963C16.3789 0.15152 17.8882 -0.143564 19.5467 0.0852215C20.3157 0.166672 21.0583 0.412018 21.7244 0.804726C22.7562 1.45003 23.2979 2.40828 23.4384 3.59652C23.4938 4.06028 23.4857 4.53176 23.4996 4.99946C23.5078 5.25126 23.5006 5.5041 23.5006 5.72498C24.0616 5.83542 24.6066 5.89966 25.1263 6.05012C27.6914 6.79677 29.6643 9.20623 29.9528 11.8613C30.1275 13.4698 29.8034 14.9873 29.2093 16.4633C28.4527 18.3398 27.2797 19.9342 25.8355 21.3392C25.7153 21.4546 25.5997 21.5721 25.4831 21.6903C25.4669 21.7212 25.4545 21.7539 25.4462 21.7877C26.1373 21.9352 26.822 22.0797 27.5063 22.2272C27.872 22.2816 28.2327 22.3654 28.5849 22.478C28.9372 22.6196 29.2283 22.8809 29.407 23.2158C29.5858 23.5508 29.6408 23.938 29.5624 24.3095C29.3747 25.1374 28.6983 25.7315 27.8773 25.6241C26.8054 25.4801 25.7429 25.273 24.6954 25.0039C23.9475 24.7844 23.2134 24.5205 22.4969 24.2138C22.4255 24.1774 22.3457 24.1606 22.2657 24.165C22.1857 24.1694 22.1083 24.1949 22.0413 24.2389C20.7449 25.0388 19.3456 25.6587 17.882 26.0814C17.4143 26.2107 16.9447 26.3562 16.4449 26.2158C16.0985 26.1222 15.7921 25.918 15.5722 25.6344C15.3523 25.3508 15.231 25.0032 15.2266 24.6444C15.2102 24.2845 15.3172 23.9299 15.5298 23.639C15.7424 23.3482 16.0479 23.1386 16.3957 23.045C17.6556 22.7316 18.8677 22.2504 19.9993 21.614C20.0729 21.5821 20.1344 21.5275 20.1748 21.4582C20.2153 21.3888 20.2325 21.3084 20.2241 21.2286C20.2029 15.9742 20.1858 10.7196 20.1726 5.46477C20.1716 4.93901 20.1114 4.42922 19.7884 3.99054C19.5902 3.72753 19.3176 3.53009 19.0059 3.42379C18.6942 3.3175 18.3578 3.30724 18.0402 3.39436C17.3829 3.57797 16.9605 4.11799 16.8842 4.89057C16.861 5.1233 16.86 5.3593 16.86 5.59307C16.859 10.1932 16.8593 14.7931 16.861 19.393C16.8621 20.1326 16.6232 20.7348 15.9359 21.09C15.6953 21.2108 15.4288 21.2711 15.1596 21.2657C14.8904 21.2602 14.6266 21.1891 14.3911 21.0586C14.1556 20.9281 13.9555 20.7421 13.8081 20.5167C13.6608 20.2914 13.5707 20.0335 13.5456 19.7654C13.5335 19.6197 13.5354 19.4722 13.5354 19.3258C13.5485 14.8332 13.5599 10.3405 13.5698 5.84779C13.5757 5.40941 13.5241 4.97216 13.4162 4.54722C13.1885 3.70559 12.5392 3.29594 11.6421 3.35125C11.2528 3.36324 10.8795 3.50944 10.5856 3.76508C10.2917 4.02072 10.0953 4.3701 10.0294 4.75402C9.9865 5.01369 9.96661 5.27665 9.97001 5.53982C9.96715 10.1788 9.96618 14.818 9.96709 19.4572C9.96709 20.3102 9.55865 20.9363 8.85821 21.1731C7.75551 21.5455 6.71669 20.8009 6.64438 19.5857C6.63854 19.4784 6.64249 19.371 6.64249 19.2637V5.78544C6.64249 5.31482 6.62034 4.85021 6.38932 4.4196C6.23914 4.13809 6.00935 3.90706 5.72865 3.75536C5.44796 3.60367 5.12879 3.53803 4.81101 3.56664C4.49544 3.57948 4.19263 3.69472 3.94838 3.89494C3.70412 4.09516 3.5317 4.36947 3.4572 4.67638C3.38495 5.01899 3.33509 5.36593 3.30793 5.71502C3.27313 6.10277 3.10193 6.46561 2.8248 6.73903C2.54767 7.01245 2.18256 7.17873 1.79438 7.20831C1.4163 7.23681 1.0398 7.1355 0.727079 6.92112C0.414355 6.70673 0.184111 6.39209 0.0743695 6.02917C0.053389 5.9769 0.0292369 5.92597 0.00205475 5.87665C-6.37363e-06 5.58259 2.40825e-10 5.28957 2.40825e-10 4.99654ZM23.5789 9.08891V18.8698C23.6025 18.863 23.6252 18.8532 23.6463 18.8406C25.0861 17.3844 26.1861 15.7318 26.5834 13.6868C26.8101 12.5188 26.6665 11.4099 25.9041 10.4465C25.3378 9.70579 24.5025 9.21803 23.5791 9.08891H23.5789Z" fill="white"/>
</svg>
