<svg width="29" height="29" viewBox="0 0 29 29" fill="none" xmlns="http://www.w3.org/2000/svg">
<path d="M14.4999 1.80763e-07C11.6321 1.80763e-07 8.82869 0.85041 6.44418 2.44369C4.05966 4.03697 2.20116 6.30156 1.10369 8.95109C0.0062216 11.6006 -0.280927 14.5161 0.278559 17.3288C0.838045 20.1415 2.21904 22.7252 4.2469 24.753C6.27476 26.7809 8.85841 28.1619 11.6711 28.7214C14.4839 29.2809 17.3993 28.9937 20.0489 27.8963C22.6984 26.7988 24.963 24.9403 26.5563 22.5558C28.1495 20.1713 28.9999 17.3678 28.9999 14.5C29.0002 12.5957 28.6254 10.7101 27.8968 8.95073C27.1682 7.19138 26.1002 5.59279 24.7537 4.24628C23.4072 2.89977 21.8086 1.83172 20.0492 1.10313C18.2899 0.374548 16.4042 -0.000300513 14.4999 1.80763e-07V1.80763e-07ZM15.8245 21.1923H13.1608V11.1469H15.8245V21.1923ZM14.4927 10.0525C14.2199 10.0424 13.9561 9.95243 13.7341 9.79363C13.5121 9.63484 13.3417 9.41427 13.2441 9.15938C13.1465 8.90449 13.126 8.62653 13.1852 8.36007C13.2443 8.09362 13.3805 7.85043 13.5768 7.66078C13.773 7.47112 14.0208 7.34336 14.2891 7.2934C14.5574 7.24343 14.8345 7.27347 15.0859 7.37977C15.3373 7.48607 15.5519 7.66394 15.703 7.89125C15.854 8.11856 15.935 8.38527 15.9356 8.65821C15.9353 8.84535 15.8975 9.03052 15.8242 9.20273C15.751 9.37495 15.6439 9.5307 15.5094 9.66074C15.3748 9.79078 15.2155 9.89247 15.0409 9.95976C14.8663 10.0271 14.6799 10.0586 14.4929 10.0525H14.4927Z" fill="white"/>
</svg>
