<svg width="24" height="24" viewBox="0 0 24 24" fill="none" xmlns="http://www.w3.org/2000/svg">
<path d="M2.40004 4.80009H0V21.6C0.00186955 22.2359 0.255331 22.8453 0.705022 23.295C1.15471 23.7447 1.76409 23.9981 2.40004 24H19.1999V21.6H2.40004V4.80009ZM21.6 0H7.19991C6.564 0.00192618 5.95468 0.255412 5.50503 0.705097C5.05539 1.15478 4.80195 1.76412 4.80009 2.40004V16.7999C4.80195 17.4358 5.05539 18.0451 5.50503 18.4948C5.95468 18.9445 6.564 19.198 7.19991 19.1999H21.6C22.2359 19.198 22.8453 18.9446 23.295 18.4949C23.7447 18.0452 23.9981 17.4358 24 16.7999V2.40004C23.9981 1.76409 23.7447 1.15471 23.295 0.705022C22.8453 0.255331 22.2359 0.00186955 21.6 0V0ZM21.6 12L18.5999 10.2006L15.5998 12.0006V2.40133H21.5997L21.6 12Z" fill="white"/>
</svg>
