<svg width="15" height="40" viewBox="0 0 15 40" fill="none" xmlns="http://www.w3.org/2000/svg">
<path d="M7.5 0C8.48891 0 9.45561 0.293245 10.2779 0.842652C11.1001 1.39206 11.741 2.17295 12.1194 3.08658C12.4978 4.00021 12.5969 5.00555 12.4039 5.97545C12.211 6.94536 11.7348 7.83627 11.0355 8.53553C10.3363 9.2348 9.44536 9.711 8.47545 9.90393C7.50555 10.0969 6.50021 9.99784 5.58658 9.6194C4.67295 9.24096 3.89206 8.6001 3.34265 7.77785C2.79324 6.95561 2.5 5.98891 2.5 5C2.5 3.67392 3.02678 2.40215 3.96447 1.46447C4.90215 0.526784 6.17392 0 7.5 0M11.2499 11.2499H10.3631C9.46505 11.6618 8.48863 11.8751 7.50057 11.8751C6.51251 11.8751 5.53609 11.6618 4.638 11.2499H3.74986C3.2574 11.2499 2.76976 11.3469 2.31478 11.5353C1.85981 11.7238 1.44642 12 1.09821 12.3483C0.749997 12.6965 0.47379 13.1099 0.285359 13.5649C0.0969278 14.0199 -3.74815e-05 14.5075 1.08684e-08 15L1.08684e-08 25.6249C1.08684e-08 26.1222 0.197552 26.5992 0.549196 26.9508C0.90084 27.3024 1.37777 27.5 1.87507 27.5H3.12493V38.1249C3.12493 38.6222 3.32248 39.0992 3.67412 39.4508C4.02577 39.8024 4.5027 40 5 40H10C10.4973 40 10.9742 39.8024 11.3259 39.4508C11.6775 39.0992 11.8751 38.6222 11.8751 38.1249V27.5H13.1249C13.6222 27.5 14.0992 27.3024 14.4508 26.9508C14.8024 26.5992 15 26.1222 15 25.6249V15C15 14.5075 14.9031 14.0198 14.7146 13.5648C14.5262 13.1098 14.2499 12.6964 13.9017 12.3482C13.5535 11.9999 13.14 11.7237 12.685 11.5352C12.23 11.3468 11.7423 11.2498 11.2499 11.2499Z" fill="white"/>
</svg>
