<svg xmlns="http://www.w3.org/2000/svg" xmlns:xlink="http://www.w3.org/1999/xlink" width="340.5" height="81.343" viewBox="0 0 340.5 81.343">
  <defs>
    <filter id="Path_228" x="0" y="0" width="340.5" height="80" filterUnits="userSpaceOnUse">
      <feOffset dy="3" input="SourceAlpha"/>
      <feGaussianBlur stdDeviation="1.5" result="blur"/>
      <feFlood flood-opacity="0.416"/>
      <feComposite operator="in" in2="blur"/>
      <feComposite in="SourceGraphic"/>
    </filter>
    <filter id="Subtraction_1" x="58.621" y="20.981" width="61.857" height="60.361" filterUnits="userSpaceOnUse">
      <feOffset dy="3" input="SourceAlpha"/>
      <feGaussianBlur stdDeviation="1.5" result="blur-2"/>
      <feFlood flood-opacity="0.42"/>
      <feComposite operator="in" in2="blur-2"/>
      <feComposite in="SourceGraphic"/>
    </filter>
    <filter id="Path_231" x="81.663" y="49.333" width="15.795" height="13.335" filterUnits="userSpaceOnUse">
      <feOffset dy="3" input="SourceAlpha"/>
      <feGaussianBlur stdDeviation="1.5" result="blur-3"/>
      <feFlood flood-opacity="0.161"/>
      <feComposite operator="in" in2="blur-3"/>
      <feComposite in="SourceGraphic"/>
    </filter>
    <filter id="Path_234" x="87.733" y="56.277" width="7.762" height="4.437" filterUnits="userSpaceOnUse">
      <feOffset dy="1" input="SourceAlpha"/>
      <feGaussianBlur stdDeviation="0.5" result="blur-4"/>
      <feFlood flood-opacity="0.161"/>
      <feComposite operator="in" in2="blur-4"/>
      <feComposite in="SourceGraphic"/>
    </filter>
    <filter id="Path_235" x="84.094" y="56.337" width="7.359" height="4.309" filterUnits="userSpaceOnUse">
      <feOffset dy="1" input="SourceAlpha"/>
      <feGaussianBlur stdDeviation="0.5" result="blur-5"/>
      <feFlood flood-opacity="0.161"/>
      <feComposite operator="in" in2="blur-5"/>
      <feComposite in="SourceGraphic"/>
    </filter>
  </defs>
  <g id="Group_723" data-name="Group 723" transform="translate(-224.2 -663.239)">
    <g transform="matrix(1, 0, 0, 1, 224.2, 663.24)" filter="url(#Path_228)">
      <path id="Path_228-2" data-name="Path 228" d="M6.7,0H40.4C53.5,0,60-7.6,60-17.9c0-7.7-4-13.5-10.9-16v-.2c5-2.7,7.9-7.7,7.9-14.1,0-10-6.4-17.2-19.2-17.2H6.7ZM22.9-39.7V-50.4H35.1C39.8-50.4,41-48,41-45c0,2.9-1.6,5.3-5.9,5.3Zm0,24.7V-26.7H37.1c4.2,0,6.3,2.7,6.3,5.9S41.8-15,37.1-15Zm42.6-9.1ZM92.2-8.2ZM128.3,0h15V-28.1c0-6.6,3-8.6,7.2-8.6s7.2,2,7.2,8.6v.4h15V-28c-.1-15.6-9-22.7-22.2-22.7s-22.2,7.2-22.2,22.6Zm52.1,0h15V-21.3L211.5,0h19L209.6-25.2l20.1-24.2H211.1L195.4-28.6V-71h-15Zm56.1,0h15V-28.1c0-6.6,3-8.6,7.2-8.6s7.2,2,7.2,8.6v.4h15V-28c-.1-15.6-9-22.7-22.2-22.7s-22.2,7.2-22.2,22.6Zm49.9,0h51.8V-15H306.9l30.3-35.9V-65.4H287.9v15h28.8L286.4-14.5Z" transform="translate(-2.2 72.5)"/>
    </g>
    <g id="Group_4" data-name="Group 4" transform="translate(-541.209 -762.772)">
      <g transform="matrix(1, 0, 0, 1, 765.41, 1426.01)" filter="url(#Subtraction_1)">
        <path id="Subtraction_1-2" data-name="Subtraction 1" d="M48.725,51.361c-2.056,0-4.887-.2-6.692-1.149-3.17-1.671-2.831-9.28-2.731-10.789.035-.1.057-.173.057-.173l.266-4.408c0-.04.009-4.056,0-4.686a.639.639,0,0,0,.694-.552c.082-.483.148-1,.2-1.569a7.345,7.345,0,0,0-.223-2.223.964.964,0,0,1,.222-.858l.021-.027a8.466,8.466,0,0,0,1-1.5,19.5,19.5,0,0,0,.718-1.835c.067-.189.133-.377.2-.565a14.353,14.353,0,0,0,.636-3.1c0-.014,0-.068.009-.152a21.933,21.933,0,0,0,.052-2.535c-.041-.44-.122-.884-.2-1.314-.049-.266-.1-.541-.139-.812a5.98,5.98,0,0,0-1.017-2.46,4.319,4.319,0,0,0-1.716-1.44,1.46,1.46,0,0,0-.67-.162H39.38a5.594,5.594,0,0,0-2.367.526,12.326,12.326,0,0,0-3.605,3.041c-.689.822-1.341,1.7-1.972,2.539-.225.3-.458.613-.69.919-.2.258-.272.347-.454.347a1.951,1.951,0,0,1-.359-.055,13.2,13.2,0,0,0-1.544-.284C27.667,16.025,27.116,16,26.6,16a10.073,10.073,0,0,0-1.93.17c-.489.095-.992.164-1.478.232-.247.034-.5.07-.753.108a1.2,1.2,0,0,1-.181.015.544.544,0,0,1-.469-.229l-.182-.243c-.38-.507-.773-1.032-1.185-1.528-.512-.616-1.123-1.336-1.767-2.005a13.761,13.761,0,0,0-2.7-2.176,5.329,5.329,0,0,0-2.188-.913,4.884,4.884,0,0,0-.545-.032,2.553,2.553,0,0,0-1.8.618A6.046,6.046,0,0,0,9.621,12.9a11.47,11.47,0,0,0-.34,3.884,18.312,18.312,0,0,0,1.012,4.845,16.688,16.688,0,0,0,.877,2.025c.049.095.1.191.143.288a3.77,3.77,0,0,0,.784,1.191.549.549,0,0,1,.137.751,4.439,4.439,0,0,0-.518,2.111c0,.319,0,.62.445.713l-.106.242c-.074.169-.145.328-.208.487a4.04,4.04,0,0,0-.349,2.273c.065.335.194.465.46.465a1.285,1.285,0,0,0,.234-.025c.121-.023.238-.05.374-.082l.173-.04.009.31c.005.211.01.411.025.608.047.6,1.764,3.805,5.174,5.743a20.007,20.007,0,0,0,8,2.812l.113.021a18.718,18.718,0,0,0,3.13.422.264.264,0,0,0-.09.048.427.427,0,0,1,.049-.008c.059-.008.168-.022.315-.038h.208c.383,0,.817,0,1.523.04.46.025.947.04,1.449.043,1.368.283,2.1.922,2.171,1.9.2,2.753,0,7.155,0,7.2H28.466a41.2,41.2,0,0,1-13.74-2.273,22.227,22.227,0,0,1-8.753-5.728C2.01,38.794,0,32.674,0,24.937A24.728,24.728,0,0,1,7.185,7.254,25.517,25.517,0,0,1,25.394,0,29.2,29.2,0,0,1,35.885,1.941a28.231,28.231,0,0,1,8.752,5.313,25.125,25.125,0,0,1,6,7.92,22.508,22.508,0,0,1,2.224,9.763V51.125l-.017,0A37.721,37.721,0,0,1,48.725,51.361Z" transform="translate(63.12 22.48)"/>
      </g>
      <g id="Group_7" data-name="Group 7" transform="translate(489.574 733.819)">
        <g transform="matrix(1, 0, 0, 1, 275.83, 692.19)" filter="url(#Path_231)">
          <path id="Path_231-2" data-name="Path 231" d="M3.388,0C5.054,0,6.723.625,6.723,1.395S4.853,4.219,3.388,4.219a3.452,3.452,0,0,1-1.944-.865c-.032-.024-.063-.048-.24-.194A3.326,3.326,0,0,1,0,1.395C0,.625,1.723,0,3.388,0Z" transform="matrix(1, -0.02, 0.02, 1, 86.16, 50.95)"/>
        </g>
        <path id="Path_232" data-name="Path 232" d="M0,1.073A3.648,3.648,0,0,1,.252,2.639C.252,3.728,0,3.949,0,3.949" transform="translate(365.396 745.673)" fill="none" stroke="#000" stroke-width="0.7"/>
        <g transform="matrix(1, 0, 0, 1, 275.83, 692.19)" filter="url(#Path_234)">
          <path id="Path_234-2" data-name="Path 234" d="M0,0A2.915,2.915,0,0,1,.869,2.265C.869,3.84,0,4.159,0,4.159" transform="translate(93.72 56.99) rotate(90)" fill="none" stroke="#000" stroke-width="0.7"/>
        </g>
        <g transform="matrix(1, 0, 0, 1, 275.83, 692.19)" filter="url(#Path_235)">
          <path id="Path_235-2" data-name="Path 235" d="M0,0A2.729,2.729,0,0,1,.731,2.051C.731,3.478,0,3.767,0,3.767" transform="translate(89.69 57.06) rotate(90)" fill="none" stroke="#000" stroke-width="0.7"/>
        </g>
      </g>
    </g>
  </g>
</svg>
