<svg width="158" height="35" viewBox="0 0 158 35" fill="none" xmlns="http://www.w3.org/2000/svg">
<path d="M0 33.5419H15.9972C22.2157 33.5419 25.3013 29.9515 25.3013 25.0855C25.3013 21.4479 23.4025 18.7079 20.1271 17.5268V17.4323C22.5006 16.1568 23.8772 13.7947 23.8772 10.7712C23.8772 6.04699 20.8391 2.64556 14.763 2.64556H0V33.5419ZM7.69007 14.7868V9.73187H13.4813C15.7124 9.73187 16.2821 10.8657 16.2821 12.2829C16.2821 13.653 15.5225 14.7868 13.4813 14.7868H7.69007ZM7.69007 26.4556V20.9282H14.4307C16.4245 20.9282 17.4213 22.2038 17.4213 23.7155C17.4213 25.2273 16.6618 26.4556 14.4307 26.4556H7.69007ZM57.723 33.5419H64.8434V20.2669C64.8434 17.1489 66.2675 16.204 68.2612 16.204C70.2549 16.204 71.679 17.1489 71.679 20.2669V20.4558H78.7994V20.3141C78.752 12.9443 74.5272 9.59014 68.2612 9.59014C61.9952 9.59014 57.723 12.9916 57.723 20.2669V33.5419ZM82.4546 33.5419H89.575V23.4793L97.2176 33.5419H106.237L96.3157 21.6369L105.857 10.2043H97.0277L89.575 20.0306V0H82.4546V33.5419ZM109.085 33.5419H116.205V20.2669C116.205 17.1489 117.63 16.204 119.623 16.204C121.617 16.204 123.041 17.1489 123.041 20.2669V20.4558H130.161V20.3141C130.114 12.9443 125.889 9.59014 119.623 9.59014C113.357 9.59014 109.085 12.9916 109.085 20.2669V33.5419ZM132.772 33.5419H157.362V26.4556H142.504L156.887 9.49566V2.64556H133.484V9.73187H147.156L132.772 26.6918V33.5419Z" fill="white"/>
<path d="M50.9567 34.1746C49.9807 34.1746 48.6369 34.0801 47.78 33.6318C46.2752 32.8423 46.4362 29.2477 46.4836 28.5348C46.5003 28.4876 46.5107 28.4531 46.5107 28.4531L46.637 26.3706C46.637 26.3517 46.6412 24.4545 46.637 24.1569C46.7151 24.1643 46.7931 24.1412 46.8545 24.0926C46.916 24.044 46.9561 23.9735 46.9664 23.8961C47.0053 23.6679 47.0367 23.4237 47.0613 23.1549C47.0801 22.8015 47.0444 22.4473 46.9555 22.1047C46.9392 22.0337 46.9403 21.9598 46.9586 21.8892C46.9769 21.8187 47.012 21.7536 47.0609 21.6993L47.0708 21.6866C47.254 21.4679 47.4131 21.2303 47.5455 20.978C47.6738 20.6949 47.7875 20.4056 47.8864 20.1111C47.9182 20.0218 47.9495 19.933 47.9813 19.8441C48.1359 19.3685 48.2371 18.8774 48.2832 18.3796C48.2832 18.373 48.2832 18.3475 48.2875 18.3078C48.3189 17.9094 48.3272 17.5096 48.3122 17.1102C48.2927 16.9024 48.2543 16.6926 48.2172 16.4895C48.194 16.3638 48.1698 16.2339 48.1512 16.1059C48.0801 15.6873 47.9151 15.2901 47.6685 14.9437C47.4618 14.6496 47.1808 14.415 46.8539 14.2634C46.7555 14.213 46.6465 14.1868 46.5359 14.1869H46.5207C46.1324 14.187 45.7488 14.2718 45.3971 14.4354C44.739 14.8002 44.158 15.288 43.6858 15.872C43.3587 16.2604 43.0492 16.6751 42.7497 17.0715C42.6429 17.2132 42.5323 17.3611 42.4221 17.5057C42.3272 17.6275 42.293 17.6696 42.2066 17.6696C42.1491 17.6662 42.0921 17.6575 42.0362 17.6436C41.7948 17.5845 41.5501 17.5397 41.3033 17.5094C40.9606 17.4811 40.699 17.4693 40.4541 17.4693C40.1468 17.4667 39.84 17.4936 39.5379 17.5496C39.3058 17.5945 39.067 17.6271 38.8363 17.6592C38.719 17.6753 38.5989 17.6923 38.4788 17.7102C38.4504 17.7147 38.4217 17.7171 38.3929 17.7173C38.3497 17.7193 38.3066 17.7104 38.2677 17.6915C38.2288 17.6726 38.1953 17.6443 38.1703 17.6091L38.0839 17.4943C37.9035 17.2548 37.717 17.0068 37.5214 16.7725C37.2783 16.4815 36.9883 16.1413 36.6826 15.8253C36.3006 15.4302 35.87 15.0848 35.4009 14.7973C35.0916 14.5777 34.7367 14.4303 34.3623 14.366C34.2764 14.3561 34.19 14.3511 34.1036 14.3508C33.7916 14.3349 33.4855 14.4395 33.2491 14.6428C32.8391 15.0061 32.5424 15.4788 32.3942 16.0048C32.2356 16.6028 32.181 17.2234 32.2328 17.8397C32.2881 18.6207 32.4497 19.3907 32.7132 20.1285C32.8306 20.4562 32.9697 20.7758 33.1295 21.0852C33.1528 21.1301 33.177 21.1754 33.1974 21.2213C33.2843 21.4307 33.4107 21.6216 33.5695 21.7839C33.6245 21.8231 33.662 21.882 33.6742 21.9482C33.6863 22.0144 33.6721 22.0827 33.6346 22.1387C33.4708 22.4457 33.3863 22.7884 33.3887 23.136C33.3887 23.2867 33.3887 23.4289 33.5999 23.4728L33.5496 23.5871C33.5145 23.667 33.4808 23.7421 33.4509 23.8172C33.2923 24.1516 33.2347 24.5247 33.2852 24.891C33.3161 25.0493 33.3773 25.1107 33.5036 25.1107C33.5409 25.1101 33.5781 25.1062 33.6146 25.0989C33.6721 25.088 33.7276 25.0753 33.7922 25.0601L33.8743 25.0412L33.8786 25.1877C33.8809 25.2874 33.8833 25.3819 33.8904 25.4749C33.9128 25.7584 34.7278 27.2725 36.3465 28.188C37.5025 28.8958 38.7974 29.3488 40.1441 29.5165L40.1977 29.5264C40.6865 29.6344 41.1835 29.7011 41.6835 29.7258C41.6679 29.7305 41.6534 29.7382 41.6408 29.7485C41.6485 29.7467 41.6562 29.7455 41.6641 29.7447C41.6921 29.7409 41.7438 29.7343 41.8136 29.7267H41.9123C42.0941 29.7267 42.3001 29.7267 42.6353 29.7456C42.8536 29.7574 43.0848 29.7645 43.3231 29.7659C43.9725 29.8996 44.32 30.2015 44.3537 30.6635C44.4486 31.9641 44.3537 34.0437 44.3537 34.065H41.3398C39.1203 34.078 36.9146 33.7148 34.8175 32.9911C33.2359 32.431 31.8115 31.5033 30.6625 30.2851C28.7813 28.2376 27.8272 25.3464 27.8272 21.6913C27.8112 20.1434 28.1045 18.6078 28.69 17.1737C29.2755 15.7396 30.1416 14.4356 31.2378 13.3375C32.3805 12.2275 33.7325 11.3532 35.2159 10.7651C36.6993 10.177 38.285 9.88656 39.8816 9.91055C41.5841 9.90924 43.2723 10.2201 44.8616 10.8275C46.3886 11.4052 47.7966 12.2558 49.0161 13.3375C50.2063 14.3836 51.1747 15.6556 51.8643 17.0791C52.5597 18.5181 52.9206 20.0945 52.92 21.6913V34.0631H52.912C52.2627 34.1357 51.61 34.1729 50.9567 34.1746Z" fill="white"/>
<path d="M40.3696 23.3277C41.1604 23.3119 41.9586 23.5914 41.9659 23.9551C41.9731 24.3189 41.1049 25.307 40.4095 25.3209C40.0656 25.2916 39.7398 25.1551 39.4785 24.9307C39.4631 24.9196 39.4481 24.9086 39.3627 24.8413C39.0811 24.639 38.8743 24.35 38.7745 24.0189C38.7672 23.6551 39.5792 23.3435 40.3696 23.3277Z" fill="white"/>
<path d="M40.3781 25.0635C40.472 25.2984 40.5129 25.5509 40.4977 25.8033C40.4977 26.3178 40.3781 26.4222 40.3781 26.4222" stroke="white" stroke-width="0.7"/>
<path d="M42.35 26.2134C42.2109 26.3546 42.0429 26.4644 41.8573 26.5352C41.6718 26.6061 41.4731 26.6363 41.2748 26.6239C40.5271 26.6239 40.3757 26.2134 40.3757 26.2134" stroke="white" stroke-width="0.7"/>
<path d="M40.437 26.2466C40.3072 26.3676 40.1538 26.4607 39.9863 26.5201C39.8188 26.5795 39.6408 26.6039 39.4634 26.5919C38.786 26.5919 38.6488 26.2466 38.6488 26.2466" stroke="white" stroke-width="0.7"/>
</svg>
