<svg width="32" height="31" viewBox="0 0 32 31" fill="none" xmlns="http://www.w3.org/2000/svg">
<g clip-path="url(#clip0_1_140)">
<path d="M25.52 16.6384C25.5733 16.2722 25.6 15.8938 25.6 15.4909C25.6 15.1003 25.5733 14.7096 25.5067 14.3434L28.2133 12.4146C28.4534 12.2437 28.52 11.9141 28.3734 11.67L25.8134 7.61708C25.6534 7.34852 25.32 7.26307 25.0267 7.34852L21.84 8.52044C21.1733 8.05655 20.4667 7.66591 19.68 7.37293L19.2 4.27223C19.1467 3.97926 18.88 3.77173 18.56 3.77173H13.44C13.12 3.77173 12.8667 3.97926 12.8133 4.27223L12.3333 7.37293C11.5467 7.66591 10.8267 8.06876 10.1733 8.52044L6.98668 7.34852C6.69335 7.25086 6.36001 7.34852 6.20001 7.61708L3.65335 11.67C3.49335 11.9263 3.54668 12.2437 3.81335 12.4146L6.52001 14.3434C6.45335 14.7096 6.40001 15.1125 6.40001 15.4909C6.40001 15.8693 6.42668 16.2722 6.49335 16.6384L3.78668 18.5672C3.54668 18.7381 3.48001 19.0677 3.62668 19.3118L6.18668 23.3647C6.34668 23.6333 6.68001 23.7187 6.97335 23.6333L10.16 22.4614C10.8267 22.9253 11.5333 23.3159 12.32 23.6089L12.8 26.7096C12.8667 27.0026 13.12 27.2101 13.44 27.2101H18.56C18.88 27.2101 19.1467 27.0026 19.1867 26.7096L19.6667 23.6089C20.4533 23.3159 21.1733 22.9253 21.8267 22.4614L25.0133 23.6333C25.3067 23.731 25.64 23.6333 25.8 23.3647L28.36 19.3118C28.52 19.0433 28.4533 18.7381 28.2 18.5672L25.52 16.6384ZM16 19.8856C13.36 19.8856 11.2 17.908 11.2 15.4909C11.2 13.0738 13.36 11.0962 16 11.0962C18.64 11.0962 20.8 13.0738 20.8 15.4909C20.8 17.908 18.64 19.8856 16 19.8856Z" fill="#1F1F39"/>
</g>
<defs>
<clipPath id="clip0_1_140">
<rect width="32" height="29.2979" fill="white" transform="translate(0 0.842041)"/>
</clipPath>
</defs>
</svg>
