<svg width="32" height="30" viewBox="0 0 32 30" fill="none" xmlns="http://www.w3.org/2000/svg">
<g clip-path="url(#clip0_1_104)">
<path d="M22 15.2437C23.84 15.2437 25.32 13.8765 25.32 12.1919C25.32 10.5072 23.84 9.13998 22 9.13998C20.16 9.13998 18.6667 10.5072 18.6667 12.1919C18.6667 13.8765 20.16 15.2437 22 15.2437ZM12 14.023C14.2133 14.023 15.9867 12.3872 15.9867 10.3607C15.9867 8.33429 14.2133 6.69849 12 6.69849C9.78666 6.69849 7.99999 8.33429 7.99999 10.3607C7.99999 12.3872 9.78666 14.023 12 14.023ZM22 17.6852C19.56 17.6852 14.6667 18.8083 14.6667 21.0423V23.789H29.3333V21.0423C29.3333 18.8083 24.44 17.6852 22 17.6852ZM12 16.4645C8.89332 16.4645 2.66666 17.8927 2.66666 20.7371V23.789H12V21.0423C12 20.0046 12.44 18.1857 15.16 16.8063C14 16.5865 12.88 16.4645 12 16.4645Z" fill="#1F1F39"/>
</g>
<defs>
<clipPath id="clip0_1_104">
<rect width="32" height="29.2979" fill="white" transform="translate(0 0.594727)"/>
</clipPath>
</defs>
</svg>
