<svg width="18" height="18" viewBox="0 0 30 27" fill="none" xmlns="http://www.w3.org/2000/svg">
<path d="M0 26.6667H5.33333V10.6667H0V26.6667ZM29.3333 12C29.3333 10.5333 28.1333 9.33333 26.6667 9.33333H18.2533L19.52 3.24L19.56 2.81333C19.56 2.26667 19.3333 1.76 18.9733 1.4L17.56 0L8.78667 8.78667C8.29333 9.26667 8 9.93333 8 10.6667V24C8 25.4667 9.2 26.6667 10.6667 26.6667H22.6667C23.7733 26.6667 24.72 26 25.12 25.04L29.1467 15.64C29.2667 15.3333 29.3333 15.0133 29.3333 14.6667V12Z" fill="white"/>
</svg>
