<svg width="18" height="18" viewBox="0 0 21 28" fill="none" xmlns="http://www.w3.org/2000/svg">
<path d="M5.99998 10.9867V6C5.99998 4.16 7.49331 2.66667 9.33331 2.66667C11.1733 2.66667 12.6666 4.16 12.6666 6V10.9867C14.28 9.90667 15.3333 8.08 15.3333 6C15.3333 2.68 12.6533 0 9.33331 0C6.01331 0 3.33331 2.68 3.33331 6C3.33331 8.08 4.38665 9.90667 5.99998 10.9867ZM19.12 17.16L13.0666 14.1467C12.84 14.0533 12.6 14 12.3466 14H11.3333V6C11.3333 4.89333 10.44 4 9.33331 4C8.22665 4 7.33331 4.89333 7.33331 6V20.32C2.53331 19.3067 2.61331 19.32 2.43998 19.32C2.02665 19.32 1.65331 19.4933 1.38665 19.76L0.333313 20.8267L6.91998 27.4133C7.27998 27.7733 7.78665 28 8.33331 28H17.3866C18.3866 28 19.16 27.2667 19.3066 26.2933L20.3066 19.2667C20.32 19.1733 20.3333 19.08 20.3333 19C20.3333 18.1733 19.8266 17.4533 19.12 17.16Z" fill="white"/>
</svg>
