<svg xmlns="http://www.w3.org/2000/svg" width="34.843" height="33.96" viewBox="0 0 34.843 33.96"><defs><style>.a{fill:#393d70;}</style></defs><path class="a" d="M14.814,4.922,16.541,3.2a1.859,1.859,0,0,1,2.636,0l15.118,15.11a1.859,1.859,0,0,1,0,2.636L19.177,36.059a1.859,1.859,0,0,1-2.636,0l-1.726-1.726a1.868,1.868,0,0,1,.031-2.667l9.371-8.928H1.866A1.862,1.862,0,0,1,0,20.872V18.383a1.862,1.862,0,0,1,1.866-1.866h22.35L14.845,7.589A1.855,1.855,0,0,1,14.814,4.922Z" transform="translate(0 -2.647)"/></svg>