<svg xmlns="http://www.w3.org/2000/svg" xmlns:xlink="http://www.w3.org/1999/xlink" width="1046.447" height="1035.77" viewBox="0 0 1046.447 1035.77">
  <defs>
    <filter id="Path_1291" x="203.669" y="102.554" width="758.376" height="803" filterUnits="userSpaceOnUse">
      <feOffset input="SourceAlpha"/>
      <feGaussianBlur stdDeviation="5" result="blur"/>
      <feFlood flood-opacity="0.263"/>
      <feComposite operator="in" in2="blur"/>
      <feComposite in="SourceGraphic"/>
    </filter>
  </defs>
  <g id="Group_1771" data-name="Group 1771" transform="translate(-69.262 -4729.261)">
    <path id="Path_2233" data-name="Path 2233" d="M399.628,76.354C722.581-34.651,784,239.787,680.221,471.225S651.83,828.931,420.332,828.931c-91.9,0-134.615-146.831-217.414-204.745C76.931,536.064-72.6,494.244-72.6,358.617-72.6,133.7,76.674,187.358,399.628,76.354Z" transform="translate(472.745 4712.278) rotate(24)" fill="#99b5d6"/>
    <g transform="matrix(1, 0, 0, 1, 69.26, 4729.26)" filter="url(#Path_1291)">
      <path id="Path_1291-2" data-name="Path 1291" d="M386,0C599.182,0,772,173.042,772,386.5S599.182,773,386,773,43.624,599.958,43.624,386.5,172.818,0,386,0Z" transform="translate(175.05 117.55)" fill="#fff"/>
    </g>
    <g id="Object" transform="matrix(0.956, -0.292, 0.292, 0.956, -5.634, 4868.219)" opacity="0.09">
      <g id="Group_1768" data-name="Group 1768" transform="translate(318.57 325.312)">
        <path id="Path_2217" data-name="Path 2217" d="M626.232,424.725V385.654H385.641v34.479H438.2a13.857,13.857,0,1,1,0,3.438H385.641V445.8h41v3.434h-41v47.438H485.918c.141.027,9.923.134,16.388-6.195,3.873-3.794,5.841-9.182,5.841-16.026V453.992a13.859,13.859,0,1,1,3.429,0v20.461c0,7.816-2.321,14.045-6.884,18.5-7.042,6.861-16.948,7.156-18.592,7.156H385.641v30.006H504.884a13.863,13.863,0,1,1,0,3.438H385.641v20.122h82.487c.249.01,18.655.875,18.655,22.734v49.835H540.3V589.408h3.442v36.839h18.688V579.778a13.853,13.853,0,1,1,3.442,0v46.468h17.143v-27.5h3.434v27.5h39.779V463.954H573.681a13.857,13.857,0,1,1,0-3.438h52.551V428.163H587.715v-3.438Z" transform="translate(-353.175 -361.291)" fill="#616e7d"/>
        <path id="Path_2231" data-name="Path 2231" d="M626.232,587.175v39.071H385.641V591.767H438.2a13.857,13.857,0,1,0,0-3.438H385.641V566.1h41v-3.434h-41V515.227H485.918c.141-.027,9.923-.134,16.388,6.195,3.873,3.794,5.842,9.182,5.842,16.026v20.461a13.859,13.859,0,1,0,3.429,0V537.448c0-7.816-2.321-14.044-6.884-18.5-7.041-6.861-16.948-7.156-18.592-7.156H385.641V481.783H504.884a13.863,13.863,0,1,0,0-3.438H385.641V458.224h82.487c.249-.01,18.655-.875,18.655-22.734V385.654H540.3v36.838h3.442V385.654h18.688v46.468a13.853,13.853,0,1,0,3.442,0V385.654h17.143v27.5h3.434v-27.5h39.779V547.946H573.681a13.857,13.857,0,1,0,0,3.438h52.551v32.353H587.715v3.438Z" transform="translate(-353.175 -121.744)" fill="#616e7d"/>
        <path id="Path_2218" data-name="Path 2218" d="M426.646,672.282a13.81,13.81,0,0,1-13.693-12.137H385.641v44.573h97.708V654.882c0-18.578-14.648-19.28-15.275-19.3H385.641v21.12h27.312a13.825,13.825,0,1,1,13.693,15.576Z" transform="translate(-353.175 -439.761)" fill="#616e7d"/>
        <path id="Path_2232" data-name="Path 2232" d="M426.646,668.022a13.81,13.81,0,0,0-13.693,12.137H385.641V635.586h97.707v49.836c0,18.579-14.648,19.28-15.275,19.3H385.641V683.6h27.312a13.825,13.825,0,1,0,13.693-15.576Z" transform="translate(-353.175 -371.676)" fill="#616e7d"/>
        <path id="Path_2219" data-name="Path 2219" d="M622.563,382.186V352.551c0-14.491-10.114-26.239-22.594-26.239H342.707c-12.48,0-22.594,11.748-22.594,26.239V621.627L318.57,830.915c0,14.488,10.114,26.232,22.594,26.232H598.425c12.48,0,22.594-11.743,22.594-26.232l1.543-209.288V382.186Zm-25.6,447.025H342.618l1.543-474.964H598.5Z" transform="translate(-318.57 -326.312)" fill="#616e7d"/>
        <path id="Path_2220" data-name="Path 2220" d="M633.443,477.085a13.857,13.857,0,1,0,13.689,15.576h52.551v-3.438H647.132A13.809,13.809,0,0,0,633.443,477.085Z" transform="translate(-426.626 -389.997)" fill="#fff"/>
        <path id="Path_2221" data-name="Path 2221" d="M412.953,660.817H385.641v3.438h27.312a13.857,13.857,0,1,0,0-3.438Z" transform="translate(-353.175 -443.872)" fill="#fff"/>
        <path id="Path_2222" data-name="Path 2222" d="M502.306,509.149c-6.464,6.329-16.247,6.222-16.388,6.195H385.641v3.438H486.1c1.644,0,11.551-.295,18.592-7.156,4.563-4.458,6.884-10.687,6.884-18.5V472.661a13.864,13.864,0,1,0-3.429,0v20.461C508.148,499.967,506.18,505.354,502.306,509.149Z" transform="translate(-353.175 -379.961)" fill="#fff"/>
        <path id="Path_2223" data-name="Path 2223" d="M385.641,596.232v3.438H504.884a14.593,14.593,0,0,1-.174-1.716,14.747,14.747,0,0,1,.174-1.721Z" transform="translate(-353.175 -427.405)" fill="#fff"/>
        <path id="Path_2224" data-name="Path 2224" d="M486.782,703.144V653.308c0-21.86-18.406-22.724-18.655-22.734H385.641v3.438h82.432c.627.017,15.275.718,15.275,19.3v49.836Z" transform="translate(-353.175 -438.188)" fill="#fff"/>
        <path id="Path_2225" data-name="Path 2225" d="M643.344,715.089h3.442V668.621a8.585,8.585,0,0,1-3.442,0Z" transform="translate(-434.086 -450.133)" fill="#fff"/>
        <rect id="Rectangle_166" data-name="Rectangle 166" width="3.442" height="36.838" transform="translate(187.129 228.118)" fill="#fff"/>
        <rect id="Rectangle_167" data-name="Rectangle 167" width="3.434" height="27.5" transform="translate(229.843 237.456)" fill="#fff"/>
        <rect id="Rectangle_168" data-name="Rectangle 168" width="38.517" height="3.438" transform="translate(234.539 63.434)" fill="#fff"/>
        <path id="Path_2226" data-name="Path 2226" d="M385.641,435.913v3.438H438.2a13.041,13.041,0,0,1-.175-1.723,12.878,12.878,0,0,1,.175-1.715Z" transform="translate(-353.175 -377.07)" fill="#fff"/>
        <rect id="Rectangle_169" data-name="Rectangle 169" width="41.005" height="3.434" transform="translate(32.466 84.512)" fill="#fff"/>
        <path id="Path_2227" data-name="Path 2227" d="M629.516,854.995l1.512-476.434H376.445l-1.389,476.061ZM384.3,758.13V387.88l238.814.414V842.734H480.229L384.3,842.32Z" transform="translate(-351.103 -351.125)" fill="#82bfab"/>
        <path id="Path_2228" data-name="Path 2228" d="M462.181,430.355a12.856,12.856,0,0,0-.175,1.715,13.022,13.022,0,0,0,.175,1.723,13.863,13.863,0,1,0,0-3.438Z" transform="translate(-377.151 -371.513)" fill="#aad4c8"/>
        <path id="Path_2229" data-name="Path 2229" d="M559.377,590.676a14.7,14.7,0,0,0-.174,1.721,14.554,14.554,0,0,0,.174,1.716,13.859,13.859,0,1,0,0-3.438Z" transform="translate(-407.668 -421.849)" fill="#aad4c8"/>
        <path id="Path_2230" data-name="Path 2230" d="M625.642,642.335A13.859,13.859,0,1,0,639.5,628.472,13.809,13.809,0,0,0,625.642,642.335Z" transform="translate(-428.528 -437.528)" fill="#82bfab"/>
      </g>
    </g>
    <g id="Group_1769" data-name="Group 1769" transform="translate(-395.156 -509.212)">
      <g id="Dog" transform="translate(728.963 5852.205) rotate(-11)">
        <g id="Dog-2" data-name="Dog" transform="translate(0 0)">
          <path id="Shadow" d="M208.995,235.708q-1.86-.006-3.746,0c-14.61.053-28.717-3.61-42.342,1.935-11.683,4.758,73.309,85.459,84.905,86.8,11.311,1.309,24.991.867,35.719,4.752,35.9,13,74.626,24.2,112.3,9.117,7.708-3.085,18.4-11.1,22.34-18.615,5.566-10.612,1.518-20.826-5.033-29.542-14.029-18.658-42.758-28.483-64.155-34.295-28.838-7.832-60.4-11.658-90.07-15.4-8.373-1.056-15.69-1.21-24.008-2.767A140.67,140.67,0,0,0,208.995,235.708Z" transform="translate(-130.931 -43.103)" opacity="0.15"/>
          <g id="Dog-3" data-name="Dog">
            <g id="Group_542" data-name="Group 542">
              <path id="Path_1640" data-name="Path 1640" d="M274.959,254.754c-1.42-1.835-6.988-3.639-7.189-5.643-.163-1.6,2.1-3.18,2.788-4.456,1.394-2.591.71-6.145-.9-8.521-1.839-2.722-5.737-3.755-7.343-6.475-1.741-2.949-1.227-5.809-4.482-8.031-5.54-3.78-11.929.8-17.788.682-3.319-.068-4.471-2.974-7.095-4.542a12.786,12.786,0,0,0-8.264-1.2,9.771,9.771,0,0,0-4.013,1.5c-1.418,1.24-.485,1.931-2.508,2.093-1.542.122-3.417-.68-5.014-.74a15.961,15.961,0,0,0-9.671,2.878c-5,3.376-8.382,8.626-7.638,14.666-6.447-1.146-10.383,3.477-11.873,9.355-.885,3.492-1.892,14.379,2.97,16.111-6.956-1.989,1.646,23.676,6.616,18.844-.607,5.549,4.39,11.215,8.987,13.689,2.029,1.09,4.6.909,6.327,1.768,1.546.772,2.79,2.649,4.435,3.526a10.75,10.75,0,0,0,5.8,1.332,19,19,0,0,0,2.352,1.561c1.745.945,3.541,1.794,5.292,2.731,3.934,2.1,8.076,4.475,12.337,5.726a24.374,24.374,0,0,0,2.551.562,12.909,12.909,0,0,0,4.728.22c1.161-.25,1.843-1.418,2.81-1.454,1.79-.068,3.171.607,4.916-.321,1.593-.847,1.871-2.324,1.92-3.99,2.795-.872,3.216-4.9,1.879-7.056a13.655,13.655,0,0,0-2.136-2.581,4.16,4.16,0,0,0,.086-1.437c10.539-.3,16.973-10.214,14.416-20.009-1.09-4.18.22-4.822,3.1-7.9C276.708,264.07,278.217,258.966,274.959,254.754Z" transform="translate(-72.5 -65.116)" fill="#5c4d46"/>
              <path id="Path_1641" data-name="Path 1641" d="M274.959,254.754c-1.42-1.835-6.988-3.639-7.189-5.643-.163-1.6,2.1-3.18,2.788-4.456,1.394-2.591.71-6.145-.9-8.521-1.839-2.722-5.737-3.755-7.343-6.475-1.741-2.949-1.227-5.809-4.482-8.031-5.54-3.78-11.929.8-17.788.682-3.319-.068-4.471-2.974-7.095-4.542a12.786,12.786,0,0,0-8.264-1.2,9.771,9.771,0,0,0-4.013,1.5c-1.418,1.24-.485,1.931-2.508,2.093-1.542.122-3.417-.68-5.014-.74a15.961,15.961,0,0,0-9.671,2.878c-5,3.376-8.382,8.626-7.638,14.666-6.447-1.146-10.383,3.477-11.873,9.355-.885,3.492-1.892,14.379,2.97,16.111-6.956-1.989,1.646,23.676,6.616,18.844-.607,5.549,4.39,11.215,8.987,13.689,2.029,1.09,4.6.909,6.327,1.768,1.546.772,2.79,2.649,4.435,3.526a10.75,10.75,0,0,0,5.8,1.332,19,19,0,0,0,2.352,1.561c1.745.945,3.541,1.794,5.292,2.731,3.934,2.1,8.076,4.475,12.337,5.726a24.374,24.374,0,0,0,2.551.562,12.909,12.909,0,0,0,4.728.22c1.161-.25,1.843-1.418,2.81-1.454,1.79-.068,3.171.607,4.916-.321,1.593-.847,1.871-2.324,1.92-3.99,2.795-.872,3.216-4.9,1.879-7.056a13.655,13.655,0,0,0-2.136-2.581,4.16,4.16,0,0,0,.086-1.437c10.539-.3,16.973-10.214,14.416-20.009-1.09-4.18.22-4.822,3.1-7.9C276.708,264.07,278.217,258.966,274.959,254.754Z" transform="translate(-72.5 -65.116)" opacity="0.35"/>
              <g id="Group_537" data-name="Group 537" transform="translate(0 46.165)">
                <path id="Path_1642" data-name="Path 1642" d="M190.3,280.287a7.473,7.473,0,0,0,1.08-1.341c1.619-2.6,2.021-5.829,2.521-8.786q1.819-10.761,3.639-21.521c.53-3.137,1.063-6.342.55-9.481s-2.267-6.256-5.17-7.556-6.919-.12-8,2.872q-.314-4.628-.99-9.222c-.239-1.616-.573-3.351-1.753-4.482-2.277-2.187-6.164-.8-8.446,1.381,1.108-7.584,5.709-14.583,5.367-22.24a6.973,6.973,0,0,0-1.255-4.105c-1.614-2.008-4.565-2.157-7.142-2.14q3.778-2.027,7.556-4.056a18.7,18.7,0,0,0,5.055-3.479,6.336,6.336,0,0,0,1.794-5.636c-.494-1.995-2.7-3.564-4.651-2.91,1.148-1.208,2.857-1.666,4.287-2.519s2.7-2.555,2.048-4.09a3.721,3.721,0,0,0-1.373-1.49c-3.8-2.66-8.938-2.79-13.349-1.358s-8.228,4.244-11.822,7.174c.693-1.146-.577-2.675-1.916-2.724a5.3,5.3,0,0,0-3.511,1.73c-7.317,6.569-11.587,15.977-13.734,25.573-.857-1.334-3-1.229-4.182-.171A7.277,7.277,0,0,0,135,203.974a37.886,37.886,0,0,0,.13,14.114c.911,4.606,2.564,7.268,5.018,11.042-2.763-2.754-7.973-2.179-8.593,2.025-.894,6.047,3.975,9.823,8.142,13.158-.874.8-2.232.84-2.974,2.138a6.619,6.619,0,0,0,.079,6.09c2.194,3.857,6.59,6.607,10.208,8.786-8.474,5.611,11.623,14.087,15.56,16.53a14.839,14.839,0,0,1,5.867,5.835,37.907,37.907,0,0,1,2.247,4.869c.406,1.035.774,3.209,1.843,3.806,3.436,1.918,10.253-6.442,12.581-8.326C186.782,282.686,188.8,281.779,190.3,280.287Z" transform="translate(-131.447 -167.22)" fill="#5c4d46"/>
                <path id="Path_1643" data-name="Path 1643" d="M190.3,280.287a7.473,7.473,0,0,0,1.08-1.341c1.619-2.6,2.021-5.829,2.521-8.786q1.819-10.761,3.639-21.521c.53-3.137,1.063-6.342.55-9.481s-2.267-6.256-5.17-7.556-6.919-.12-8,2.872q-.314-4.628-.99-9.222c-.239-1.616-.573-3.351-1.753-4.482-2.277-2.187-6.164-.8-8.446,1.381,1.108-7.584,5.709-14.583,5.367-22.24a6.973,6.973,0,0,0-1.255-4.105c-1.614-2.008-4.565-2.157-7.142-2.14q3.778-2.027,7.556-4.056a18.7,18.7,0,0,0,5.055-3.479,6.336,6.336,0,0,0,1.794-5.636c-.494-1.995-2.7-3.564-4.651-2.91,1.148-1.208,2.857-1.666,4.287-2.519s2.7-2.555,2.048-4.09a3.721,3.721,0,0,0-1.373-1.49c-3.8-2.66-8.938-2.79-13.349-1.358s-8.228,4.244-11.822,7.174c.693-1.146-.577-2.675-1.916-2.724a5.3,5.3,0,0,0-3.511,1.73c-7.317,6.569-11.587,15.977-13.734,25.573-.857-1.334-3-1.229-4.182-.171A7.277,7.277,0,0,0,135,203.974a37.886,37.886,0,0,0,.13,14.114c.911,4.606,2.564,7.268,5.018,11.042-2.763-2.754-7.973-2.179-8.593,2.025-.894,6.047,3.975,9.823,8.142,13.158-.874.8-2.232.84-2.974,2.138a6.619,6.619,0,0,0,.079,6.09c2.194,3.857,6.59,6.607,10.208,8.786-8.474,5.611,11.623,14.087,15.56,16.53a14.839,14.839,0,0,1,5.867,5.835,37.907,37.907,0,0,1,2.247,4.869c.406,1.035.774,3.209,1.843,3.806,3.436,1.918,10.253-6.442,12.581-8.326C186.782,282.686,188.8,281.779,190.3,280.287Z" transform="translate(-131.447 -167.22)" opacity="0.2"/>
                <g id="Group_536" data-name="Group 536" transform="translate(101.516 98.648)">
                  <path id="Path_1644" data-name="Path 1644" d="M220.569,233.549l2.243-.5C222.788,231.919,222.3,231.515,220.569,233.549Z" transform="translate(-131.523 -192.006)" fill="#37474f"/>
                  <path id="Path_1645" data-name="Path 1645" d="M256.821,273.964a12.909,12.909,0,0,0,1.131-7.385c-.252-1.77-1.948-4.328-1-6.01.558-.99,1.867-1.21,2.679-1.98a6.707,6.707,0,0,0,2.192-4.118c.175-1.914-.4-3.652-.47-5.529-.09-2.393,1.48-3.477,2.515-5.373a20.321,20.321,0,0,0,2.153-6.616c.5-3.614-2.249-5.936-.361-9.291a8.468,8.468,0,0,0,1.05-3.428c.178-1.371,1.43-2.286,1.619-3.658.261-1.905.475-4.268-1.088-5.645-4.462-3.932-9.994.419-13.64,3.047-5.679,4.095-13.137,4.424-18.9,8.256a18.191,18.191,0,0,1-8.294,2.959c-.68.068-6.5.468-6.438-.015a48.571,48.571,0,0,0-.545,12.124c.494,4.026,2.121,8.065,5.234,10.668a3.894,3.894,0,0,1,1.6,2l-1.909.428a16.96,16.96,0,0,1-.475,3.274c-.629,2.917-.552,5.79,1.187,8.348.7,1.022,1.623,1.993,1.747,3.224.141,1.381-.765,2.615-1.411,3.847a11.33,11.33,0,0,0,.569,11.266c.787,1.189,1.835,2.309,2,3.723.162,1.339-.509,2.632-.659,3.973-.231,2.065.926,3.462,1.415,5.337a16.688,16.688,0,0,0,.364,1.882c.366.96,1.11,1.758,1.531,2.7a9.16,9.16,0,0,1,.8,4.146c-.009,2.97-.15,6.284.567,9.186a11.871,11.871,0,0,0,4.582,6.891,24.478,24.478,0,0,0,3.513,2.448c1.745.945,3.541,1.794,5.292,2.731,3.934,2.1,8.076,4.475,12.337,5.726a23.807,23.807,0,0,0,2.551.562,12.957,12.957,0,0,0,4.728.222c1.161-.252,1.843-1.42,2.81-1.456,1.788-.068,3.171.607,4.916-.321,1.593-.847,1.871-2.324,1.92-3.99,2.795-.872,3.216-4.9,1.879-7.056a17.037,17.037,0,0,0-5.668-5.311c-2.425-1.484-6.22-2.782-7.135-5.7-.49-1.567-.556-2.628-1.773-3.857-1.317-1.336-3.43-2.985-3.808-4.9-.528-2.666,1.452-5.179,1.165-7.884a5.709,5.709,0,0,0-.477-1.922c-.4-.81-1.223-1.33-1.533-2.179-.629-1.732,1.454-3.727,1.482-5.6a9.577,9.577,0,0,0-1.221-3.919c-.434-1.037-1.362-2.35-1.46-3.457A4.7,4.7,0,0,1,256.821,273.964Z" transform="translate(-133.055 -213.355)" fill="#5c4d46"/>
                  <path id="Path_1646" data-name="Path 1646" d="M256.821,273.964a12.909,12.909,0,0,0,1.131-7.385c-.252-1.77-1.948-4.328-1-6.01.558-.99,1.867-1.21,2.679-1.98a6.707,6.707,0,0,0,2.192-4.118c.175-1.914-.4-3.652-.47-5.529-.09-2.393,1.48-3.477,2.515-5.373a20.321,20.321,0,0,0,2.153-6.616c.5-3.614-2.249-5.936-.361-9.291a8.468,8.468,0,0,0,1.05-3.428c.178-1.371,1.43-2.286,1.619-3.658.261-1.905.475-4.268-1.088-5.645-4.462-3.932-9.994.419-13.64,3.047-5.679,4.095-13.137,4.424-18.9,8.256a18.191,18.191,0,0,1-8.294,2.959c-.68.068-6.5.468-6.438-.015a48.571,48.571,0,0,0-.545,12.124c.494,4.026,2.121,8.065,5.234,10.668a3.894,3.894,0,0,1,1.6,2l-1.909.428a16.96,16.96,0,0,1-.475,3.274c-.629,2.917-.552,5.79,1.187,8.348.7,1.022,1.623,1.993,1.747,3.224.141,1.381-.765,2.615-1.411,3.847a11.33,11.33,0,0,0,.569,11.266c.787,1.189,1.835,2.309,2,3.723.162,1.339-.509,2.632-.659,3.973-.231,2.065.926,3.462,1.415,5.337a16.688,16.688,0,0,0,.364,1.882c.366.96,1.11,1.758,1.531,2.7a9.16,9.16,0,0,1,.8,4.146c-.009,2.97-.15,6.284.567,9.186a11.871,11.871,0,0,0,4.582,6.891,24.478,24.478,0,0,0,3.513,2.448c1.745.945,3.541,1.794,5.292,2.731,3.934,2.1,8.076,4.475,12.337,5.726a23.807,23.807,0,0,0,2.551.562,12.957,12.957,0,0,0,4.728.222c1.161-.252,1.843-1.42,2.81-1.456,1.788-.068,3.171.607,4.916-.321,1.593-.847,1.871-2.324,1.92-3.99,2.795-.872,3.216-4.9,1.879-7.056a17.037,17.037,0,0,0-5.668-5.311c-2.425-1.484-6.22-2.782-7.135-5.7-.49-1.567-.556-2.628-1.773-3.857-1.317-1.336-3.43-2.985-3.808-4.9-.528-2.666,1.452-5.179,1.165-7.884a5.709,5.709,0,0,0-.477-1.922c-.4-.81-1.223-1.33-1.533-2.179-.629-1.732,1.454-3.727,1.482-5.6a9.577,9.577,0,0,0-1.221-3.919c-.434-1.037-1.362-2.35-1.46-3.457A4.7,4.7,0,0,1,256.821,273.964Z" transform="translate(-133.055 -213.355)" opacity="0.2"/>
                  <path id="Path_1647" data-name="Path 1647" d="M204.852,247.089a31.028,31.028,0,0,0-5.226-2.318c-4.484-1.715-10.783-2.5-14.865.4-4.251,3.021-5.275,9.235-5.807,14-.231,2.065.926,3.462,1.415,5.337a16.689,16.689,0,0,0,.364,1.882c.366.958,1.11,1.758,1.531,2.7a9.16,9.16,0,0,1,.8,4.146c-.009,2.968-.15,6.284.567,9.186a11.88,11.88,0,0,0,4.582,6.891,24.481,24.481,0,0,0,3.513,2.448c1.745.945,3.541,1.794,5.292,2.73,3.934,2.1,8.076,4.475,12.337,5.726a24.349,24.349,0,0,0,2.551.562,12.906,12.906,0,0,0,4.728.22c1.161-.25,1.843-1.418,2.81-1.454,1.79-.068,3.173.607,4.916-.321,1.593-.847,1.871-2.324,1.92-3.99,2.8-.872,3.216-4.9,1.879-7.056a17.037,17.037,0,0,0-5.668-5.311c-2.425-1.484-6.22-2.782-7.135-5.7-.49-1.567-.556-2.628-1.77-3.857-1.319-1.334-3.432-2.985-3.81-4.9-.528-2.666,1.452-5.179,1.165-7.886-.216-2.031-1.721-3.111-2.254-4.984-.411-1.439,0-2.964-.432-4.39A7.271,7.271,0,0,0,204.852,247.089Z" transform="translate(-178.924 -179.341)" fill="#5c4d46"/>
                  <path id="Path_1648" data-name="Path 1648" d="M204.852,247.089a31.028,31.028,0,0,0-5.226-2.318c-4.484-1.715-10.783-2.5-14.865.4-4.251,3.021-5.275,9.235-5.807,14-.231,2.065.926,3.462,1.415,5.337a16.689,16.689,0,0,0,.364,1.882c.366.958,1.11,1.758,1.531,2.7a9.16,9.16,0,0,1,.8,4.146c-.009,2.968-.15,6.284.567,9.186a11.88,11.88,0,0,0,4.582,6.891,24.481,24.481,0,0,0,3.513,2.448c1.745.945,3.541,1.794,5.292,2.73,3.934,2.1,8.076,4.475,12.337,5.726a24.349,24.349,0,0,0,2.551.562,12.906,12.906,0,0,0,4.728.22c1.161-.25,1.843-1.418,2.81-1.454,1.79-.068,3.173.607,4.916-.321,1.593-.847,1.871-2.324,1.92-3.99,2.8-.872,3.216-4.9,1.879-7.056a17.037,17.037,0,0,0-5.668-5.311c-2.425-1.484-6.22-2.782-7.135-5.7-.49-1.567-.556-2.628-1.77-3.857-1.319-1.334-3.432-2.985-3.81-4.9-.528-2.666,1.452-5.179,1.165-7.886-.216-2.031-1.721-3.111-2.254-4.984-.411-1.439,0-2.964-.432-4.39A7.271,7.271,0,0,0,204.852,247.089Z" transform="translate(-178.924 -179.341)" opacity="0.2"/>
                </g>
                <path id="Path_1649" data-name="Path 1649" d="M235.39,209.394c-1.867,3.267-3.684,6.466-7.873,6.919-5.3.577-13.667-.447-15.925,5.718-.7,1.9-.455,4-1.674,5.773-2.027,2.938-4.907,3.1-8.108,3.464-6.015.695-14.375,2.222-15.99,8.895-1.486,6.154-5.435,5.795-10.757,8.358a21.816,21.816,0,0,0-8.555,6.573c-3.036,4.2-1,6.128-1.679,10.573-.524,3.466-5.266,6.214-7.544,8.677-3.41,3.691-7.144,8.224-8.213,13.293a9.478,9.478,0,0,0,.237,5.658c.785,1.661,2.617,2.57,3.383,4.262,1.792,3.958-1.18,7.334-2,11.063-.7,3.2-.656,7.351,2.2,9.506,2.818,2.123,6.083,1.649,7.807,5.226,1.5,3.115.532,6.943,1.559,10.229a11.751,11.751,0,0,0,7.09,7.653c2.534,1.009,4.783,1.236,7.013,2.874,3.03,2.224,3.5,4.888,5.273,8.018a12.734,12.734,0,0,0,8,6.387c4.144.883,8.683-.552,12.71,1.146,5.874,2.476,8.619,11.164,16.1,10.486,3.135-.282,5.626-2.927,8.938-3.154,3.271-.222,6.391,1.251,9.69,1.071,5.057-.276,5.149-3.329,7.439-6.656,2.2-3.192,5.666-1.4,8.157-3.415,2.754-2.224,2.5-9.7,2.348-12.686-.094-1.9-.376-3.361.276-5.164.6-1.657,1.817-2.844,2.042-4.758.475-4.054-2.431-6.537-3.4-10.109,2.164-.494,4.529.415,6.776-.5,2.81-1.14,2.606-3.216,4.189-5.074,3.122-3.665,2.256.5,1.768,2.775-.629,2.914-.554,5.788,1.187,8.345.7,1.022,1.621,1.993,1.747,3.224.141,1.381-.765,2.615-1.411,3.847a11.33,11.33,0,0,0,.569,11.266c.785,1.189,1.832,2.309,2,3.723.162,1.338-.509,2.632-.661,3.973-.231,2.065.928,3.462,1.418,5.337a17.166,17.166,0,0,0,.361,1.882c.368.96,1.112,1.758,1.533,2.7a9.161,9.161,0,0,1,.8,4.146c-.009,2.97-.15,6.284.567,9.186A11.87,11.87,0,0,0,279.367,387a24.467,24.467,0,0,0,3.513,2.448c1.745.947,3.541,1.794,5.292,2.731,3.934,2.1,8.074,4.475,12.337,5.726a23.837,23.837,0,0,0,2.551.562,12.954,12.954,0,0,0,4.728.222c1.161-.252,1.843-1.42,2.807-1.456,1.79-.068,3.173.607,4.918-.321,1.593-.847,1.871-2.324,1.92-3.99,2.795-.872,3.216-4.9,1.879-7.056a17.079,17.079,0,0,0-5.668-5.311c-2.425-1.484-6.222-2.782-7.135-5.7-.49-1.567-.558-2.628-1.773-3.857-1.317-1.334-3.43-2.985-3.81-4.9a7.967,7.967,0,0,1,.567-3.718,6.816,6.816,0,0,0,.021-3.648c-.393-1.463-1.319-2.713-1.8-4.144a5.513,5.513,0,0,1,.25-4.063,9.446,9.446,0,0,0-.84-8.016,5.037,5.037,0,0,1-.973-2.068,4.732,4.732,0,0,1,.74-2.363,12.874,12.874,0,0,0,.545-9.782c-.436-1.24-1.061-2.643-.417-3.789a5.688,5.688,0,0,1,1.5-1.426,7.512,7.512,0,0,0,2.658-5.243c-.058-1.377-1.336-2.269-1.492-3.6-.207-1.781.785-2.042,1.753-3.158a20.262,20.262,0,0,0,2.619-3.973,13.142,13.142,0,0,0,2.157-1.069,9.159,9.159,0,0,0,4.033-5.166,35.945,35.945,0,0,0,.368-5.839c3.368,1.7,7.648.9,10.627-1.407a15.961,15.961,0,0,0,5.487-9.611c3.949.733,7.982-1.779,10.032-5.232s2.448-7.644,2.284-11.658c2.679.109,5.626.133,7.693-1.574,2.157-1.783,2.643-4.9,2.5-7.693a25.26,25.26,0,0,0-2.331-9.415,15.636,15.636,0,0,0,5.048,1.79,5.309,5.309,0,0,0,4.837-1.755c1.368-1.811.919-4.392.118-6.515a25.163,25.163,0,0,0-2.822-5.4c-.344-.5-3-4.06-3.5-3.977a7.547,7.547,0,0,0,3.475-1.439,4.92,4.92,0,0,0,1.888-3.188c.231-1.933-.9-3.738-1.984-5.358a28.891,28.891,0,0,0-8.433-7.826c-1.7-1.1-4.422-1.854-5.641-3.387-1.11-1.4-1.7-3.936-2.51-5.574-4.281-8.611-9.973-16.719-17.784-22.475a45.124,45.124,0,0,0-12.667-6.524,50.253,50.253,0,0,0-7.484-1.822,25.831,25.831,0,0,1-5.715-1.5c-1.909-.785-4.165-.4-6.175-.169a10.76,10.76,0,0,0-4.494,1.67c-3.368,2.284-3.579,6.13-7.73,8.236-2.2,1.116-2.393,3.145-5.211,3.962-2.666.772-5.666.511-8.228,1.642-4.969,2.192-3.744,7.045-7.287,10.259-4.095,3.716-11.264,1.229-16.047,4.048C238.168,204.547,236.765,206.989,235.39,209.394Z" transform="translate(-111.741 -160.621)" fill="#5c4d46"/>
                <path id="Path_1650" data-name="Path 1650" d="M277.434,202.783l-22.488,2.245-24.549-6.12-19.265-17.863c.6,10.541,9.861,31.083,30.91,36.328a40.739,40.739,0,0,0,29.37-3.43,13.8,13.8,0,0,0,7.259-10.1l.017-.122C278.734,203.4,277.389,203.11,277.434,202.783Z" transform="translate(-40.749 -151.482)" opacity="0.2"/>
              </g>
              <g id="Group_541" data-name="Group 541" transform="translate(160.809)">
                <g id="Group_538" data-name="Group 538" transform="translate(100.32 74.388)">
                  <path id="Path_1651" data-name="Path 1651" d="M253.572,184.206c5.429,2.222,12.267,7.869,17.11,12.778,5.023,5.089,14.078,4.542,13.458-3.058s-9.671-13.507-9.671-13.507S263.23,184.221,253.572,184.206Z" transform="translate(-253.572 -180.419)" fill="#ffa8a7"/>
                  <path id="Path_1652" data-name="Path 1652" d="M271.691,192.524a1.24,1.24,0,0,0,1.321-1.768c-1.7-3.428-5.8-6.759-10.5-8.9-1.063.381-2.286.793-3.676,1.223,5.185,1.738,10.233,5.318,11.942,8.773A1.243,1.243,0,0,0,271.691,192.524Z" transform="translate(-247.578 -178.788)" fill="#f28f8f"/>
                </g>
                <path id="Path_1653" data-name="Path 1653" d="M253.821,171.319c1.5,1.5,3.008,2.981,4.55,4.432a61.2,61.2,0,0,0,11.814,9.04,18.668,18.668,0,0,0,9.532,2.555c1.11-.043,3.2-.207,4.067-.99s.443-1.6.571-2.54c4.858-.971,2.042-5.416.308-8.057,5.835-.18.579-5.534-1.075-7.486-4.717-5.566-6.417-13.65-12.111-18.354-2.671-2.207-5.878-2.816-11.179-3.56a80.219,80.219,0,0,0-16.12-.564c-2.987.18-9.725,1.05-10.319,4.591-.334,1.98,3.257,3.757,5.162,5.88,2.091,2.331,4.338,4.7,6.524,6.8C248.351,165.771,251.065,168.565,253.821,171.319Z" transform="translate(-175.714 -145.629)"/>
                <path id="Path_1654" data-name="Path 1654" d="M215.839,202.111c.919,3.755,8.839,15.382,7.12,18.889-1.09,2.228-3.789,3.511-3.011,6.045,1.052,3.434,5.589,7.154,8.508,9.072a44.979,44.979,0,0,0,13.725,5.94c6.641,1.681,13.571.793,20.347.31a16.672,16.672,0,0,0,13.214-7.413c2.989-.434,4.963-2.04,5.675-3.782a13.985,13.985,0,0,0,9.028,4.612,10.432,10.432,0,0,0,4.738-.736c.609-.293,3.832-2.654,3.252-3.586.93,1.495,2.072,3.135,3.812,3.4a4.942,4.942,0,0,0,2.872-.622,12.383,12.383,0,0,0,6.427-7.9c.633,1.591,2.745,2.187,4.355,1.6a7.085,7.085,0,0,0,3.567-3.532,8.291,8.291,0,0,0,1.14-5.035,3.055,3.055,0,0,0,3.819.586,4.831,4.831,0,0,0,2.2-3.432,12.207,12.207,0,0,0-.192-4.185,1.424,1.424,0,0,0,1.764.162,3.18,3.18,0,0,0,1.167-1.492,11.883,11.883,0,0,0,.148-8.555c-.915-2.773-1.274-6.38-3.453-8.326a22.339,22.339,0,0,0-8.153-5.055,33.159,33.159,0,0,1-10.1-6c-2.607-2.288-6.1-4.563-6.321-8.42a37.31,37.31,0,0,0-.154-4.941c-.415-2.162-1.174-3.673-3.582-5.728-1.984-1.693-3.772-3.015-5.666-4.822a85.274,85.274,0,0,0-6.714-5.431c-12.992-10.09-34.2-7.426-49.957-.045C212.531,164.41,210.6,180.731,215.839,202.111Z" transform="translate(-198.945 -143.926)" fill="#5c4d46"/>
                <circle id="Ellipse_19" data-name="Ellipse 19" cx="4.787" cy="4.787" r="4.787" transform="translate(73.449 44.694)"/>
                <path id="Path_1655" data-name="Path 1655" d="M231.668,185.936s2.145,8.268,8.912,12.346c.4-.03.793-.062,1.187-.09a16.672,16.672,0,0,0,13.214-7.413c2.989-.434,4.963-2.04,5.675-3.783C246.161,193.738,231.668,185.936,231.668,185.936Z" transform="translate(-178.183 -99.751)" opacity="0.2"/>
                <g id="Group_540" data-name="Group 540" transform="translate(0 12.752)">
                  <g id="Group_539" data-name="Group 539">
                    <path id="Path_1656" data-name="Path 1656" d="M277.146,204.551c-10.61,8.065-28.549,6.271-39.957-.7-9.323-5.7-14.835-16.246-14.412-30.012,0,0-9.406,3.141-10.535,10.236-.532,7.473,3.25,20.5,15.639,28.844,10.98,7.394,36.275,14.268,48.882,1.948C276.763,214.864,280.588,210.814,277.146,204.551Z" transform="translate(-200.348 -126.276)" fill="#7ba7ab"/>
                    <path id="Path_1657" data-name="Path 1657" d="M252.951,156.737c.988-.787-1.428-3.887-4.875-4.749-6.111-1.527-14.784,1.627-19.853,5.029-5.157,3.462-10.64,7.559-13.319,13.394a90.128,90.128,0,0,0-7.326,23.351c-.633,3.975-1.931,9.761.464,13.43a5.11,5.11,0,0,0,2.882,2.11,2.546,2.546,0,0,0,2.115-.53s-.537,2.805-.635,3.46a27.339,27.339,0,0,0-.222,3.575c-.045,2.724.573,5.292,2.668,7.142,2.979,2.632,6.481,1.492,9.479-.293,3.609,4.924,11.95.447,12.53-4.813,3.956,1.933,7.841-2.2,7.939-6.385,4.586,1.832,5.05-3.372,3.682-11.194-.344-1.963-.626-4-1.02-5.9a73.016,73.016,0,0,1-1.381-23.533C246.647,166.2,249.033,159.874,252.951,156.737Z" transform="translate(-206.654 -151.593)"/>
                    <path id="Path_1658" data-name="Path 1658" d="M273.176,184.609c-2.812,1.824-10.118.485-13.071-1.89a6.671,6.671,0,0,1-.667-9.53c2.427-2.4,7.616-5.773,10.623-6.036s6.442,3.008,6.838,5.014C277.66,176.02,277.021,182.116,273.176,184.609Z" transform="translate(-148.504 -133.9)"/>
                  </g>
                </g>
              </g>
            </g>
            <path id="Path_1659" data-name="Path 1659" d="M227.342,259.022c-.051-.577-.133-1.108-.184-1.452-.355-2.328-.956-3.879-.825-6.442.126-2.487-.021-4.259-1.6-6.209a40.6,40.6,0,0,1-3.618-5.476c-1.617-2.73-4.244-3.141-7.11-3.994s-4.574-2.4-7.11-3.84c-3.041-1.728-7-1.914-10.4-1.277-2.844.532-4.311,2.564-6.857,3.472s-11.11,2.514-10.2,6.6c1.375-.652,2.194-2.215,3.7-2.955,2.382-1.167,4.471-.733,6.96-.725,3.93.013,6.988-2.346,11.029-1.471a14.026,14.026,0,0,1,6.913,3.6c1.877,1.924,1.582,3.541,2.19,5.889.588,2.275,2.166,2.175,3.907,3.139a11.884,11.884,0,0,1,4.2,4.428,10.166,10.166,0,0,1,1.208,5.664,22.006,22.006,0,0,0-.464,2.452h0c2.164-.494,4.529.415,6.778-.5A5.015,5.015,0,0,0,227.342,259.022Z" transform="translate(-76.893 -49.603)" opacity="0.2"/>
          </g>
        </g>
      </g>
      <g id="Character" transform="translate(944.449 5453.908)">
        <g id="Character-2" data-name="Character" transform="translate(0 0)">
          <g id="Bottom" transform="translate(113.039 335.301)">
            <path id="Path_1579" data-name="Path 1579" d="M443.1,215.52c.534,26.69,6.185,203.268,6.185,203.268.573,6.753,3,19.183,3.5,43.508.089,4.268,1.195,10.507,0,14.244-16.543,16.543-45.956,29.78-51.786,32.787,0,0-4.246-45.652-8.65-80.568-3.844-30.471-15.033-119.277-15.033-119.277l-9.363,91.55a252.424,252.424,0,0,1-.045,36.734c-1.15,16.151-8.576,90.189-8.576,90.189-3.706,5.03-21.354,10.777-44.168,14.047,0,0-3.217-136.8-3.5-151.621-.323-16.894,2.035-176.768,2.035-176.768Z" transform="translate(-254.652 -213.612)" fill="#455a64"/>
            <path id="Path_1580" data-name="Path 1580" d="M443.1,215.52c.534,26.69,6.185,203.268,6.185,203.268.573,6.753,3,19.183,3.5,43.508.064,3.069,0,5.633,0,14.836-5.68,7.416-32.741,22.5-51.573,32.126,0,0-4.46-45.583-8.864-80.5-3.844-30.471-15.033-119.277-15.033-119.277l-9.363,91.55a252.424,252.424,0,0,1-.045,36.734c-1.15,16.151-8.454,90.949-8.454,90.949-5.952,4.417-16.01,9.636-44.556,12.98,0,0-2.952-136.5-3.236-151.313-.323-16.894,2.035-176.768,2.035-176.768Z" transform="translate(-254.652 -213.612)" opacity="0.3"/>
            <path id="Path_1581" data-name="Path 1581" d="M356.108,246.072a89.131,89.131,0,0,1-30-19.28s4.783,13.987,24.42,25.493l1.417,126.87,8.681-84.876Z" transform="translate(-237.958 -198.41)" opacity="0.05"/>
          </g>
          <g id="Top">
            <g id="Group_508" data-name="Group 508" transform="translate(0 139.083)">
              <path id="Path_1582" data-name="Path 1582" d="M323.206,182.2c-3.885-4.2-10.22-10.64-11.045-11.822-6.26-8.948-7.408-15.5-13.812-24.745a84.935,84.935,0,0,1-9.144-16.187c-1.789-3.837-4.843-.28-5.793,1.721a19.11,19.11,0,0,0-1.66,10.886c.385,2.608.836,5.246,1.092,7.841.226,2.311-.65,2.619-2.924,1.8a66.161,66.161,0,0,1-13.685-6.874c-4.415-2.929-8.663-6.116-13.009-9.09-4.042-2.767-6.829-6.221-10.476-9.307-2.739-2.319-7.229-5.151-9.594-.8-1.421,2.616.7,5.069,1.88,7.255,1.359,2.507.788,4.615.687,7.3-.108,2.892-.1,6.221,1.693,8.653,1.882,2.56,3.463,4.089,3.633,7.47.142,2.782-.409,5.547.457,8.291.717,2.274,2.722,3.7,4.156,5.539,2.765,3.545,5.61,5.713,9.122,8.381a92.34,92.34,0,0,0,12.817,7.772c10.836,5.877,14.783,7.617,18.4,9.566a89.1,89.1,0,0,1,17.525,13.168C312.031,201.214,319.945,193.909,323.206,182.2Z" transform="translate(-232.681 -121.508)" fill="#ffa8a7"/>
              <path id="Path_1583" data-name="Path 1583" d="M394.045,122.494c-25.749,6.208-29,19.917-42.126,42.882s-23.643,43.769-23.643,43.769L285.41,176.559c-4.361,14.547-13.018,25.182-24.515,33.236,0,0,35,30.364,50.516,40.272,14.482,9.247,27.975,21.244,43.312,1.975,22.482-28.249,39.322-58.748,39.322-58.748Z" transform="translate(-200.138 -122.494)" fill="#8ca2bc"/>
              <path id="Path_1584" data-name="Path 1584" d="M292.185,166.511c6.163,5.11,11.891,16.013,11.891,16.013s.489-14.355-8.256-23.068Z" transform="translate(-164.046 -79.86)" fill="#768ba3"/>
            </g>
            <g id="Group_509" data-name="Group 509" transform="translate(170.882 134.931)">
              <g id="Group_1770" data-name="Group 1770">
                <path id="Path_1585" data-name="Path 1585" d="M398.338,121.318c4.979,1.2,20.807,5.461,33.652,9.99a35.817,35.817,0,0,1,16.218,12.406c9.324,13.625.913,43.874-5.952,100.889.528,36.818,1.583,82.585,1.583,82.585-16.926,12.329-95.889,20.708-131.509-5.306,0,0-1.18-138.159,1.172-156.125,4.505-34.384,17.968-43.575,45.765-45.19Z" transform="translate(-312.033 -120.566)" fill="#99d1d6"/>
              </g>
              <path id="Path_1586" data-name="Path 1586" d="M398.338,121.318c4.979,1.2,20.807,5.461,33.652,9.99a35.817,35.817,0,0,1,16.218,12.406c9.324,13.625.913,43.874-5.952,100.889.528,36.818,1.583,82.585,1.583,82.585-16.926,12.329-95.889,20.708-131.509-5.306,0,0-1.18-138.159,1.172-156.125,4.505-34.384,17.968-43.575,45.765-45.19Z" transform="translate(-312.034 -120.566)" opacity="0.2"/>
            </g>
            <g id="Group_512" data-name="Group 512" transform="translate(169.79)">
              <g id="Group_510" data-name="Group 510">
                <path id="Path_1587" data-name="Path 1587" d="M387.936,102.351a37.154,37.154,0,1,1-36.258-38.032A37.155,37.155,0,0,1,387.936,102.351Z" transform="translate(-309.091 -50.526)"/>
                <path id="Path_1588" data-name="Path 1588" d="M369.392,94.538s-6.693,28.135-9.219,32.724a12.794,12.794,0,0,1-7.544,5.788l.9-19.881Z" transform="translate(-264.116 -15.657)"/>
                <path id="Path_1589" data-name="Path 1589" d="M359.916,75.678a13.937,13.937,0,0,1,11.439,4.333c4.834,5.183,1.688,20.975-4.852,36.359L355.135,117.4Z" transform="translate(-261.226 -37.489)"/>
                <path id="Path_1590" data-name="Path 1590" d="M396.658,127.29c2.24,1.413,5.588-2.877,8.461-5.743s12.122-6.656,16.459,3.073c4.417,9.914-4.574,22.661-11.833,24.752-12.512,3.6-14.185-4.408-14.185-4.408l-2.13,50.707h0c-8.849,10.8-23.961,19.739-39.951,22.8-5.16-7.643-5.629-18.873-.332-29.989l.383-14.527s-11.293,1.439-16.76.459c-9.1-1.63-14.706-8.963-17.206-18.922-3.82-15.206-4.757-32.179-.935-59.98,4.7-34.162,44.772-33.531,65.945-19.487S396.658,127.29,396.658,127.29Z" transform="translate(-306.149 -47.451)" fill="#ffa8a7"/>
                <path id="Path_1591" data-name="Path 1591" d="M401.942,141.574c1.143.05,5.664-7.063,8.553-9.57,4.008-3.474-.28-35.907-.28-35.907a15.677,15.677,0,0,0-2.283-17.508C400,69.429,389.566,66.763,377.647,67.043c-4.363.1-8.661.469-13.007.549a47.514,47.514,0,0,1-15.229-2.64c-6.68-2.132-13.127-5.011-19.945-6.641-2.2-.525-4.86-.792-6.413.855-1.182,1.255-1.255,3.181-1.04,4.89a20.406,20.406,0,0,0,4.781,10.731,29.083,29.083,0,0,0-7.072-.34,9.792,9.792,0,0,0-6.277,2.957c-2.216,2.509-2.418,6.379-1.085,9.449a15.954,15.954,0,0,0,6.863,7.1,26.376,26.376,0,0,0,18.666,2.944c1.1,3.517,4.516,5.763,7.888,7.246a41.507,41.507,0,0,0,33.714-.325c-.2.088,3.5,4.615,3.868,4.985a25.409,25.409,0,0,0,5.231,3.99,24.917,24.917,0,0,0,2.836,1.4c.892.373,2.451.53,3.2,1.09,1.2.9,1.066,3.329,1.279,4.768.6,4.083,1.128,8.181,1.91,12.236.5,2.567.909,6.327,2.718,8.39A2.083,2.083,0,0,0,401.942,141.574Z" transform="translate(-311.527 -57.908)"/>
                <path id="Path_1592" data-name="Path 1592" d="M357.73,83l13.922-7.05a7.575,7.575,0,0,0-10.322-3.691A8.2,8.2,0,0,0,357.73,83Z" transform="translate(-259.122 -42.297)"/>
                <path id="Path_1593" data-name="Path 1593" d="M333.6,127.88s18.692-3.945,25.91-7.565c4.83-2.42,9.589-10.61,10.81-13.4,0,0-.416,10.229-4.806,15.576-5.371,6.54-32.052,11.224-32.052,11.224Z" transform="translate(-286.223 -1.38)" fill="#f28f8f"/>
              </g>
              <g id="Group_511" data-name="Group 511" transform="translate(14.378 56.511)">
                <path id="Path_1594" data-name="Path 1594" d="M336.722,95.06a4.089,4.089,0,1,0,3.863-4.46A4.152,4.152,0,0,0,336.722,95.06Z" transform="translate(-296.85 -76.717)"/>
                <path id="Path_1595" data-name="Path 1595" d="M337.943,87.115l8.978,4.371a5.242,5.242,0,0,0-2.39-6.848A4.872,4.872,0,0,0,337.943,87.115Z" transform="translate(-295.435 -84.15)"/>
                <path id="Path_1596" data-name="Path 1596" d="M318.424,90.907l9.518-3.262a4.828,4.828,0,0,0-6.224-3.226A5.287,5.287,0,0,0,318.424,90.907Z" transform="translate(-318.203 -84.149)"/>
                <path id="Path_1597" data-name="Path 1597" d="M320.484,94.209a4.089,4.089,0,1,0,4.46-3.863A4.154,4.154,0,0,0,320.484,94.209Z" transform="translate(-315.595 -77.022)"/>
                <path id="Path_1598" data-name="Path 1598" d="M338.384,91.056l-1.473,24.567L324.1,111.18Z" transform="translate(-311.398 -76.185)" fill="#f28f8f"/>
                <path id="Path_1599" data-name="Path 1599" d="M345.8,104.4l-16.088,4.4a8.2,8.2,0,0,0,10.089,6.127A8.736,8.736,0,0,0,345.8,104.4Z" transform="translate(-304.931 -60.789)" fill="#b16668"/>
                <path id="Path_1600" data-name="Path 1600" d="M342.419,106.487a7.327,7.327,0,0,0-2.207-.364A7.619,7.619,0,0,0,332.644,113c.095.043.2.065.289.106a7.975,7.975,0,0,0,3.482-.155A8.558,8.558,0,0,0,342.419,106.487Z" transform="translate(-301.547 -58.805)" fill="#f28f8f"/>
              </g>
            </g>
            <g id="Group_524" data-name="Group 524" transform="translate(243.079 121.043)">
              <path id="Path_1601" data-name="Path 1601" d="M364.541,118.02s-12.774,31.813-16.4,51.343-2.929,74.643-1,109.632c1.408,25.484,6.947,72.588,6.947,72.588s9.15,1.268,31.247-1.237c18.813-2.134,28.333-5.97,32.371-7.628,0,0-3.491-71.623-6.129-96.625-2.433-23.063-2.349-35.746-2.349-35.746l7.912-52.635s-.81-28.243-14.977-31.805C387.053,122.1,364.541,118.02,364.541,118.02Z" transform="translate(-345.56 -109.615)" fill="#99b5d6"/>
              <g id="Group_517" data-name="Group 517" transform="translate(16.823 19.881)">
                <g id="Group_514" data-name="Group 514" transform="translate(34.226)">
                  <path id="Path_1607" data-name="Path 1607" d="M430.032,226.858c-1.1-7.089-2.143-13.974-3.166-20.576L396.8,217.428a166.332,166.332,0,0,1,2.9,22.71,13.5,13.5,0,0,1-3.112,9.068c-5.6,6.859-5.306,12.094-8.754,19.517-2.7,5.81-5.9,8.114-4.873,9.322,1.318,1.553,5.3,3.441,9.9.129,2.315-1.665,3.773-3.545,7.033-7.617,0,0-.037,13.517-4.326,25.03l-9.148,5.287s5.168,5.788,21.018.181c17.9-6.331,24.284-8.982,24.334-39.987C431.783,252.135,431.77,238.048,430.032,226.858Z" transform="translate(-353.697 -27.69)" fill="#ffa8a7"/>
                  <path id="Path_1608" data-name="Path 1608" d="M374.823,123.349c17.962,4.257,27.368,9.523,33.006,20.934,9.85,19.932,23.339,44.581,32.127,82.951,8.23,35.928,6.854,65.6,9.38,98.283,0,0-10.69,22.525-38.443,12.581,0,0-6.559-48.5-13.629-85.311-6.159-32.063-24.691-64.315-24.691-64.315S363.8,157.012,374.823,123.349Z" transform="translate(-369.265 -123.349)" fill="#8ca2bc"/>
                </g>
              </g>
              <path id="Path_1614" data-name="Path 1614" d="M360.74,114.117c2.074.476,4.3.82,7.1,4.514a44.517,44.517,0,0,0,6.247,6.447s1.2,24.618-.956,30.219c-1.867,4.858-14.3,27.816-14.3,27.816s.82,22.308,1.01,28.953-12.692,34.449-14.14,47.363c0,0-.637-52.467,1.275-67.041,3.331-25.363,7.561-57.1,13.17-67.489Z" transform="translate(-345.515 -114.117)" fill="#ebebeb"/>
            </g>
            <g id="Group_526" data-name="Group 526" transform="translate(156.911 127.661)">
              <path id="Path_1619" data-name="Path 1619" d="M364.724,119.195c-23.2,3.4-27.308,6.717-35.567,12.811-10.147,7.49-17.891,14.35-20.228,54.355s-2.808,144.914-2.808,144.914,17.292,4.049,28.3,3.626c0,0-.554-119.821.783-148.1s8.1-42.066,17.779-51.385C355.7,127.61,357,123.451,364.614,121.8Z" transform="translate(-304.882 -115.311)" fill="#99b5d6"/>
              <path id="Path_1622" data-name="Path 1622" d="M339.163,145.392c-9.109,13.864-15.475,34.378-16.73,76.443-.151,5-.282,12.023-.4,20.473v0s-7.5-38.118-6.17-46.211,10.1-24.879,10.1-24.879c-1.143-13.913,2.1-29.731,7.434-39.26,1.339-2.392,3.437-4.346,8.5-7.808s10.276-6.5,12.13-6.962l-.306,12.406C350.309,132.154,347.206,134.609,339.163,145.392Z" transform="translate(-293.827 -117.19)" fill="#ebebeb"/>
            </g>
          </g>
        </g>
      </g>
    </g>
  </g>
</svg>
