<svg xmlns="http://www.w3.org/2000/svg" width="169.53" height="153.413" viewBox="0 0 169.53 153.413">
  <g id="logo" transform="translate(-161.635 -188.294)">
    <circle id="Ellipse_3" data-name="Ellipse 3" cx="65.663" cy="65.663" r="65.663" transform="translate(172.359 190.294)" fill="none" stroke="#fff" stroke-miterlimit="10" stroke-width="4"/>
    <path id="Path_223" data-name="Path 223" d="M436.539,453.307c-.148,2.036-4.71,2.4-4.485,4.026.425,3.057,1.22,6.509,1.784,9.547.328,1.08-.473.977-1.095,1.108a11.426,11.426,0,0,1-6.017,1.045,3.238,3.238,0,0,1-2.812-.862,5.219,5.219,0,0,0,3.887-.734,6.429,6.429,0,0,0,1.414-1.539c.24-.522.239-.723.48-1.244a22.027,22.027,0,0,1,.291-2.25l-.094-.5c-.266-.5.14-.5-.026-1.115l-.12-.532c-.111-.849-.06-.72-.111-1.2-.463-.955-.274-1.932-1.147-2.684a21.6,21.6,0,0,0-1.557-2.021c-1.354-.81-.223-.313.028-.2.237.092.478.12.714.211a3.578,3.578,0,0,0,1.542-.622l.018-.026a20.464,20.464,0,0,1,3.49-4.139C435.568,447.4,440.341,453.09,436.539,453.307Z" transform="translate(-166.403 -165.24)" fill="#fdfdfd"/>
    <circle id="Ellipse_4" data-name="Ellipse 4" cx="60.602" cy="60.602" r="60.602" transform="translate(177.729 195.298)" fill="#fdfdfd" opacity="0.44"/>
    <path id="Path_1" data-name="Path 1" d="M323.793,302.883c.738.116,1.432.567,2.228.245a5.475,5.475,0,0,0,3.551-3.46,10.01,10.01,0,0,0-.852-8.215,26.73,26.73,0,0,0-2.04-2.613c1.226.653,2.129.146,2.912-.8.114-.138.245-.261.37-.39a6.8,6.8,0,0,1,4.774-2.407c1.4-.037,3.04.173,3.427,2.021a11.622,11.622,0,0,0-1.615-1.209,3.524,3.524,0,0,0-1.755-.468,12.772,12.772,0,0,0-2.48.6.974.974,0,0,0-.734,1.014c0,.629.011,1.26.056,1.888a85.359,85.359,0,0,0,1.952,11.694c.581,2.725,1.353,5.41,1.27,8.235a1.948,1.948,0,0,0,1.219,1.912,10,10,0,0,1,1.959,1.4,4.75,4.75,0,0,0,2.4,1.137,1.731,1.731,0,0,0,2.241-1.533,4.74,4.74,0,0,0,.054-.941,60.527,60.527,0,0,1,2.107-15.733c.333-1.231.731-2.444,1.1-3.666a1.557,1.557,0,0,1,.4.931c.168,2.4,1.7,3.681,3.729,4.5a2.324,2.324,0,0,0,3.372-1.656,10.1,10.1,0,0,0-1.969-9.637,3.56,3.56,0,0,0-6,.585,12.805,12.805,0,0,0-.969,2.219,49.871,49.871,0,0,0-2.131,10.555c-.057.506-.17,1.006-.256,1.508-.274-2.326-.394-4.613-.516-6.9a7.65,7.65,0,0,0-1.94-4.781c-.505-.573-1.028-1.131-1.543-1.7l2.11,1.305c-.082-.612-.146-1.05-.2-1.489-.136-1.107-.3-2.212-.395-3.323-.126-1.479-.073-2.984-.325-4.438-.346-1.99-.93-3.937-1.37-5.911-.244-1.094-.405-2.206-.593-3.312-.012-.071.067-.157.139-.314a2.249,2.249,0,0,1,.575.228c.357.272.662.613,1.023.877.825.609,1.327.52,1.91-.332a2.48,2.48,0,0,0,.411-.838c.366-1.712.731-3.424,1.028-5.148.3-1.762.53-3.537.8-5.362a1.8,1.8,0,0,0,2.137-1.284c.479-1.446.894-2.916,1.274-4.391a22.194,22.194,0,0,0,.417-6.439,2.888,2.888,0,0,1,1-2.355,25.219,25.219,0,0,0,3.473-3.929c1.35-2.056,2.435-4.288,3.6-6.463a43.554,43.554,0,0,0,3.152-8.573,7.5,7.5,0,0,1,.187-.783,21.638,21.638,0,0,0,1.217-6.859c.146-2.061.018-4.14.059-6.21a17.94,17.94,0,0,0-1.626-7.45,11.973,11.973,0,0,0-3.994-4.835,3.812,3.812,0,0,0-1.845-.761,14.781,14.781,0,0,0-6.664.5,34.7,34.7,0,0,0-11.181,7.159c-3.051,2.793-5.9,5.812-8.815,8.747-.96.965-1.058.992-2.34.491a34.113,34.113,0,0,0-4.055-1.462,34.782,34.782,0,0,0-10.121-1.343c-2.066.1-4.14.016-6.211.028a1.612,1.612,0,0,1-1.664-.887c-.939-1.89-1.862-3.792-2.893-5.631-1.228-2.191-2.486-4.373-3.87-6.47a37.883,37.883,0,0,0-6.316-7.35,14.2,14.2,0,0,0-5.515-3.532c-2.287-.638-4.624-.707-6.632.685a17.744,17.744,0,0,0-6.225,7.472,34.973,34.973,0,0,0-2.713,10.943,55.1,55.1,0,0,0,.515,14.256,48.884,48.884,0,0,0,1.448,6.152,14.041,14.041,0,0,0,1.834,4.611,1.645,1.645,0,0,1,.026,2.2,13.355,13.355,0,0,0-2.379,5.8c-.154.93-.285,1.775.877,2.224-.445.727-.832,1.328-1.187,1.947a12.139,12.139,0,0,0-1.993,6.344c.027,1.21.457,1.6,1.682,1.548.478-.019.955-.07,1.541-.114-.123.967-.26,1.8-.331,2.635-.286,3.363-.618,6.721.439,10.039a4.905,4.905,0,0,1-.018,1.993c-.27,2.185-.728,4.356-.852,6.547-.2,3.456-.052,6.933-.284,10.386a29.3,29.3,0,0,0,1.407,10.5,9.727,9.727,0,0,0,1.032,2.04.858.858,0,0,0,.63.4,16.979,16.979,0,0,0,1.85-.333,24.268,24.268,0,0,1-2.815-13.8,13.561,13.561,0,0,1,1.97.32,16.907,16.907,0,0,1,3.013,1.162c1.458.788,2.836,1.723,4.244,2.6a2.327,2.327,0,0,0,3.194-.233,7.141,7.141,0,0,0,1.575-2.311c.746-1.893,1.316-3.856,1.969-5.824a46.371,46.371,0,0,0,19.861,3.968l-.359-2.227a47.628,47.628,0,0,1-16.005-2.854,31.551,31.551,0,0,1-15.923-12.538c-.868-1.361-.9-1.361-2.376-.816a4.5,4.5,0,0,1-.6-2.288,29.8,29.8,0,0,1,1.051-10.019c.329-1.356-.186-1.977-1.572-1.891-.605.037-1.209.1-2.054.178a18.557,18.557,0,0,1,5.127-8.729,7.459,7.459,0,0,1,3.948,5.806,5.3,5.3,0,0,0,5.81,4.439,9.048,9.048,0,0,0,5.278-2.182,12.949,12.949,0,0,1,6.183-2.851,6.08,6.08,0,0,0-.256,4.308,11.221,11.221,0,0,0,4.48,6.533,6.347,6.347,0,0,1,.655.627,5.971,5.971,0,0,1-4.438.059c-2.337-.965-3.1-3.087-3.775-5.586a4.658,4.658,0,0,0-.315,1.015,6.876,6.876,0,0,0,1.525,4.77,2.352,2.352,0,0,1,.606,1.822,38.8,38.8,0,0,0,0,4.853,8.288,8.288,0,0,0,2.674,5.724c2.312,2.015,5.059,2.157,7.9,1.718a7.659,7.659,0,0,0,4.67-2.488,9.827,9.827,0,0,0,2.538-5.973,2.349,2.349,0,0,1,1.423-2.3,6.021,6.021,0,0,0,2.869-3.166,35.431,35.431,0,0,1-3.507,2.061,5.911,5.911,0,0,1-3.849.13,4.974,4.974,0,0,1-3.165-1.925,10.527,10.527,0,0,0,6.013-3.078c1.659-1.7,2.851-3.586,2.444-6.111.93.391,1.813.724,2.662,1.127a12.058,12.058,0,0,1,5.867,5.175,11.191,11.191,0,0,0,5.791,5.4c1.991.816,4.919.708,6.535-1.35.166-.212.36-.4.545-.6,1.292-1.373,2.57-2.761,3.887-4.111a2.121,2.121,0,0,1,1.847-.745c1.079,4.356-.07,8.5-.96,12.9-.6-.524-.987-.892-1.407-1.217a1.08,1.08,0,0,0-1.817.256c-.131.18-.2.4-.329.585a39.465,39.465,0,0,1-2.746,3.814,26.238,26.238,0,0,1-11.592,7.118c-1.823.6-3.7,1.037-5.654,1.577.219.726.434,1.426.667,2.192l6.1-1.587c.057.576.129,1.058.149,1.543.04.99.014,1.983.09,2.969a6.1,6.1,0,0,0,.379,1.693,1.6,1.6,0,0,0,1.5,1.122,6.925,6.925,0,0,1,1.918.768c-.262-.04-.529-.059-.786-.122a3.528,3.528,0,0,0-4.46,2.04,15.892,15.892,0,0,0-.96,2.371,56.3,56.3,0,0,0-2.2,11.917c-.045.515-.142,1.026-.215,1.54-.217-.135-.279-.246-.287-.36-.269-4.176-.514-8.353-.8-12.527-.243-3.5-.46-7-.835-10.492a7.977,7.977,0,0,0-3.443-6.267,5.412,5.412,0,0,0-5.311-.761c-.877.329-1.074.5-1.119,1.436a6.01,6.01,0,0,0,.059.941c.306,2.77.561,5.547.938,8.306.608,4.455,1.172,8.919,1.988,13.339a89.867,89.867,0,0,1,1.751,13.087,1.966,1.966,0,0,0,1.066,1.742c.765.456,1.487.987,2.218,1.5a3.427,3.427,0,0,0,3.23.311,2.423,2.423,0,0,0,1.4-2.422c.022-1.259.105-2.517.172-3.775.019-.361.071-.72.107-1.08l.274-.009c.155.5.289,1.009.469,1.5,1.1,2.993,2.157,6,3.338,8.967.978,2.455,3.043,3.734,5.462,4.435s5.7-1.779,5.816-4.3c.039-.858-.4-1.546-1.17-1.5a4.017,4.017,0,0,1-3.046-1.491,21.9,21.9,0,0,1-4.387-5.953c-1.745-3.4-3.344-6.868-4.951-10.333a2.432,2.432,0,0,1-.089-1.546c.394-1.426.9-2.823,1.377-4.227.027-.078.17-.116.385-.253a15.609,15.609,0,0,0,1.134,8.034c-1.276-1.1-1.369-2.81-2.044-4.3a2.428,2.428,0,0,0-.224,2.549c.39.857.717,1.743,1.086,2.61a4.032,4.032,0,0,0,2.387,2.219c2.721,1.067,5.386.532,8.032-.261.42-.126,1-.377.9-1.018-.127-.783-.337-1.552-.522-2.372a17.962,17.962,0,0,1-2.3,1.031,10.766,10.766,0,0,1-2.522.392,19.493,19.493,0,0,1-3.359-.095A4.731,4.731,0,0,1,323.793,302.883Zm38.545,11.788c.28-1.287.434-2.266.707-3.213,2.05-7.086,4.148-14.157,6.18-21.248,1.412-4.927,2.965-9.83,4.051-14.831,1.219-5.615.843-5.378-1.63-9.24a5.033,5.033,0,0,0-5.716-2.235c-3.071.691-6.147,1.363-9.22,2.043-1.142.252-2.29.479-3.424.763a1.014,1.014,0,0,0-.863,1.286c.094.7.42.976,1.218.938a6.164,6.164,0,0,0,1.188-.222c2.877-.724,5.751-1.462,8.63-2.176a4.748,4.748,0,0,1,1-.009,14.473,14.473,0,0,1-.12,1.525q-.695,3.713-1.437,7.418c-1.582,7.846-3.107,15.7-4.789,23.529-1,4.657-2.242,9.263-3.415,13.881a2.842,2.842,0,0,0,.5,2.77,10.224,10.224,0,0,1,1.254,2.056,3.523,3.523,0,0,0,3.855,1.985q5.387-1.255,10.753-2.59,2.614-.654,5.185-1.478a4.152,4.152,0,0,0,2.234-1.361,8.7,8.7,0,0,0-2.8-2.969,1.365,1.365,0,0,0-.914-.037,24.389,24.389,0,0,0-2.5.538c-2.762.806-5.511,1.655-8.268,2.478C363.537,314.409,363.069,314.5,362.339,314.67Zm-71.311-29.954c2.732.591,5.045,2.057,7.768,2.381a37.889,37.889,0,0,0,8.093.517c-.14-.811-.249-1.446-.338-1.959-2.357-.177-4.556-.246-6.726-.532a55.846,55.846,0,0,1-6.478-1.229c-2.081-.53-4.1-1.3-6.148-1.965a.992.992,0,0,0,.49.7c.925.38,1.036,1.09.981,1.974-.087,1.389-.06,2.787-.116,4.179-.059,1.473-.158,2.945-.24,4.427l1.926,1C291.262,291.11,290.6,287.927,291.028,284.717Zm96.806-3.445a3.964,3.964,0,0,0-3.688,4.665,3.119,3.119,0,0,0,5.038,2.06,4.165,4.165,0,0,0,1.75-3.351,3.133,3.133,0,0,0-2.884-3.363q-.107-.008-.216-.009Zm4.95,11.146a3.718,3.718,0,0,0,3.585-3.633,2.792,2.792,0,0,0-2.689-2.891q-.089,0-.178,0a3.719,3.719,0,0,0-3.643,3.713,2.754,2.754,0,0,0,2.924,2.813ZM377.7,285.672a3.2,3.2,0,0,0,2.1,3.339,2.84,2.84,0,0,0,3.175-1.484,3.436,3.436,0,0,0,.268-2.744,2.939,2.939,0,0,0-2.646-2.148,3.025,3.025,0,0,0-2.738,2.057,5.556,5.556,0,0,0-.16.982Zm13.567,10.32a2.674,2.674,0,0,0,2.841,2.733,3.4,3.4,0,0,0,3.393-3.285,2.609,2.609,0,0,0-2.836-2.573,3.379,3.379,0,0,0-3.4,3.126Zm-72.133-.564.219,0a22.386,22.386,0,0,1,.791-2.546,9.322,9.322,0,0,0,.647-4.21c-.068-1.886-.017-3.777-.017-5.7-1.136.323-2.3.636-3.449,1-.183.058-.286.362-.426.553.205.123.4.332.617.356,1.2.133,1.206.117,1.3,1.332.034.448.045.9.048,1.349.017,2.069.012,4.138.05,6.207A13.826,13.826,0,0,0,319.134,295.427Zm-38.609,5.506,1.236,2.306c.5-.041.853-.05,1.206-.1,1.965-.292,2.1-.552,1.331-2.474Z" transform="translate(-66.338 -0.001)" fill="#fff"/>
    <path id="Path_224" data-name="Path 224" d="M338.279,364.6c-.863,1.352-7.145,16.089-8.433,16.869-3.229,1.955-4.143,9.863-7.837,17.868-.5.1-.6-13.05-1.091-12.888-.43.1-.253-8.819-.661-8.664-.31.057-.68-5.023-.863-5.185a11.3,11.3,0,0,0-4.236-3.608,2.758,2.758,0,0,0-2.62-.017c-.689.374-1.587.294-2.117,1.012a9.474,9.474,0,0,0,.06,3.176.9.9,0,0,1-.064.865c-.171.162,1.309,6.226,1.084,6.269-7.644-.434-18.387-3.893-24.974-7.29-2.592-1.46-1.726-7.022-3.887-9.032-.094-.1-1.364-1.148-1.441-1.261-.481-.988-1.461-1.187-1.827-2.264-.234-.471-1.117-1.209-1.184-1.672a3.558,3.558,0,0,0-.971-1.176c-.385-.668-.727-.033-1.679-.094-.4-.025-.352-.779-.489-1.406a22.469,22.469,0,0,1,.052-6.355,43.167,43.167,0,0,1,.89-4.546c.3-1.656-.406-1.7-1.572-1.891-.18-.029.046-.036-.6.045-1.65.208-1.73.525-1.164-1.276.207-.658.8-1.548,1-2.213a26.78,26.78,0,0,1,2.856-4.22c.459-.6.6-1.067,1.081-.823a8.869,8.869,0,0,1,2.393,2.065c.06.121.833,1.092.882,1.217.19.5.431,1.245.584,1.761.412,4.117,3.551,5.481,6.845,4.94a7.947,7.947,0,0,0,3.937-1.7,8.773,8.773,0,0,1,3.988-2.418c.633-.189,1.845-1,2.485-.718.351.23-.472.9-.431,1.283a7.358,7.358,0,0,0,.262,3.14,7.533,7.533,0,0,0,.753,1.707,5.55,5.55,0,0,0,1.332,2.487c.427.326.71.953,1.132,1.287.126.138.674.3.8.437.307.34,1.276.6,1.033,1.127-.2.444-1.448.406-1.857.441a5.436,5.436,0,0,1-4.577-1.671c-.63-.509-.692-1.16-1.006-1.9a12.327,12.327,0,0,1-.437-1.261c-.063-.4-.216-.491-.334-1.132a2.814,2.814,0,0,0-.224,2.33,4.6,4.6,0,0,0,1.173,2.47,3.5,3.5,0,0,1,.957,3.025,15.982,15.982,0,0,0,.644,7.034A7.2,7.2,0,0,0,304.2,365.7c3.79.484,7.531-.739,9.456-4.672a10.218,10.218,0,0,0,1.261-4.358,2.014,2.014,0,0,1,.911-1.751,3.542,3.542,0,0,0,1.645-1.178,2.4,2.4,0,0,1,.384-.387,3.766,3.766,0,0,0,.878-.866c.073-.117.228-.246.2-.345" transform="translate(-70.236 -92.706)" fill="#fefefe"/>
    <path id="Path_225" data-name="Path 225" d="M284.793,461.509l-.835-.607c-.33-.255-.689-.733-1.044-.636-2.09.57-2.513-1.142-3.334-2.325a4.09,4.09,0,0,1-.338-.853,21.7,21.7,0,0,1-1.843-9.963,10.139,10.139,0,0,1,.174-2.205c2.79.009,5.807,1.91,8.044,3.36.506.328.66.419,1.183.726,1.437.843,2.83.311,3.874-1,.8-1.006.53-1.633.98-2.807.416-.52.632-1.954,1.465-2.217,2.145.005,3.5,2.7,2.644,5.963-.186,1.511.039,3.068-.064,4.6a4.3,4.3,0,0,1-.811,2.636.645.645,0,0,1-.341.448c-.675.275-1.513.2-1.979.925a6.1,6.1,0,0,0,0,2.681,2.057,2.057,0,0,1,.065.41c.019.641.011,1.281.01,1.921-.034.606-.476.627-.942.777-1.15.371-2.41-.14-3.506.5a.949.949,0,0,1-.344.21C286.809,463.224,286.117,461.986,284.793,461.509Z" transform="translate(-73.433 -161.367)" fill="#fefefe"/>
    <path id="Path_226" data-name="Path 226" d="M381.324,366.822a10.869,10.869,0,0,1-3.606,1.87c-1.99.116-1.82.018-3.678-.864a11.656,11.656,0,0,1-1.583-.878c-.465-.685-.7-.685.1-.848a11.068,11.068,0,0,0,3.276-1.235,4.26,4.26,0,0,0,1.578-1.184,2.442,2.442,0,0,1,.48-.446c1.853-1.784,2.232-2.615,2.808-5.474-.054-.749-.25-.686,1.224-.771a14.142,14.142,0,0,1,7.717,6.5c1.787,3.219,4.459,5.511,8.483,5.461a5,5,0,0,0,3.623-1.674c1.594-1.589,2.789-3.559,4.572-4.965a9.419,9.419,0,0,1,1.02-.685c.665-.4.988-.363,1.138.586.641,4.061-.37,8.743-1.169,12.665-.157.773-1.218-.513-1.568-.8-1.928-1.556-1.114-1.35-2.268.8a12.8,12.8,0,0,1-3.126,4" transform="translate(-133.485 -106.813)" fill="#fefefe"/>
    <path id="Path_2" data-name="Path 2" d="M338.163,287.257c-.387-1.847-2.023-2.059-3.427-2.021a6.8,6.8,0,0,0-4.774,2.407c-.124.129-.256.253-.37.39-.783.95-1.686,1.458-2.911.8l.049.049a6.994,6.994,0,0,0-1.917-.768,1.6,1.6,0,0,1-1.5-1.122,6.116,6.116,0,0,1-.379-1.693c-.077-.987-.05-1.979-.09-2.969-.02-.485-.091-.967-.149-1.543l-6.1,1.587c-.233-.768-.446-1.466-.667-2.191,1.955-.54,3.831-.976,5.654-1.577a26.238,26.238,0,0,0,11.592-7.118,39.272,39.272,0,0,0,2.746-3.814c.129-.183.2-.406.329-.585a1.082,1.082,0,0,1,1.817-.256c.419.325.8.693,1.407,1.217.889-4.4,2.038-8.543.96-12.9a2.12,2.12,0,0,0-1.848.745c-1.316,1.35-2.6,2.737-3.887,4.111-.185.2-.378.388-.545.6-1.616,2.058-4.544,2.166-6.535,1.35a11.19,11.19,0,0,1-5.79-5.393,12.065,12.065,0,0,0-5.867-5.175c-.849-.4-1.732-.735-2.662-1.127.406,2.522-.785,4.414-2.444,6.111a10.526,10.526,0,0,1-6.013,3.078,4.974,4.974,0,0,0,3.165,1.925,5.911,5.911,0,0,0,3.849-.131,35.619,35.619,0,0,0,3.507-2.061,6.028,6.028,0,0,1-2.869,3.166,2.349,2.349,0,0,0-1.423,2.3,9.825,9.825,0,0,1-2.538,5.973,7.659,7.659,0,0,1-4.67,2.488c-2.836.439-5.583.3-7.9-1.718a8.288,8.288,0,0,1-2.674-5.725,38.781,38.781,0,0,1,0-4.853,2.351,2.351,0,0,0-.606-1.822,6.88,6.88,0,0,1-1.525-4.77,4.657,4.657,0,0,1,.315-1.015c.678,2.5,1.438,4.621,3.775,5.586a5.971,5.971,0,0,0,4.438-.059,6.354,6.354,0,0,0-.655-.627,11.221,11.221,0,0,1-4.478-6.534,6.069,6.069,0,0,1,.256-4.308,12.969,12.969,0,0,0-6.183,2.851,9.048,9.048,0,0,1-5.278,2.182,5.3,5.3,0,0,1-5.81-4.439,7.458,7.458,0,0,0-3.948-5.806,18.562,18.562,0,0,0-5.127,8.729c.845-.073,1.449-.14,2.054-.178,1.385-.086,1.9.535,1.572,1.891a29.789,29.789,0,0,0-1.051,10.019,4.492,4.492,0,0,0,.6,2.288c1.475-.546,1.509-.545,2.376.816a31.553,31.553,0,0,0,15.923,12.538,47.631,47.631,0,0,0,16.005,2.854l.359,2.227a46.342,46.342,0,0,1-19.861-3.968c-.653,1.968-1.223,3.931-1.969,5.824a7.138,7.138,0,0,1-1.575,2.311,2.327,2.327,0,0,1-3.194.233c-1.408-.88-2.787-1.815-4.244-2.6a16.909,16.909,0,0,0-3.013-1.162,13.553,13.553,0,0,0-1.97-.32,24.285,24.285,0,0,0,2.815,13.8,16.984,16.984,0,0,1-1.85.333.857.857,0,0,1-.63-.4,9.721,9.721,0,0,1-1.032-2.04,29.3,29.3,0,0,1-1.407-10.5c.233-3.452.089-6.929.284-10.386.123-2.191.582-4.362.852-6.547a4.907,4.907,0,0,0,.018-1.993c-1.055-3.318-.723-6.676-.439-10.039.073-.837.208-1.668.331-2.635-.585.045-1.063.1-1.541.114-1.224.049-1.654-.338-1.682-1.548a12.139,12.139,0,0,1,1.993-6.344c.356-.619.743-1.22,1.187-1.947-1.164-.449-1.032-1.294-.877-2.224a13.355,13.355,0,0,1,2.379-5.8,1.645,1.645,0,0,0-.026-2.2,14,14,0,0,1-1.834-4.611,48.884,48.884,0,0,1-1.448-6.152,55.1,55.1,0,0,1-.515-14.256,34.981,34.981,0,0,1,2.713-10.943A17.743,17.743,0,0,1,276,189.76c2.008-1.392,4.345-1.323,6.632-.685a14.2,14.2,0,0,1,5.515,3.532,37.882,37.882,0,0,1,6.316,7.35c1.383,2.1,2.642,4.277,3.87,6.47,1.031,1.84,1.954,3.741,2.893,5.631a1.611,1.611,0,0,0,1.664.887c2.07-.012,4.145.069,6.211-.028a34.756,34.756,0,0,1,10.121,1.343,34.107,34.107,0,0,1,4.055,1.462c1.282.5,1.381.475,2.339-.491,2.919-2.936,5.764-5.954,8.815-8.747a34.7,34.7,0,0,1,11.181-7.159,14.781,14.781,0,0,1,6.664-.5,3.811,3.811,0,0,1,1.845.761,11.981,11.981,0,0,1,3.994,4.836,17.939,17.939,0,0,1,1.626,7.45c-.041,2.07.088,4.149-.059,6.21a21.636,21.636,0,0,1-1.217,6.859,7.487,7.487,0,0,0-.187.783,43.508,43.508,0,0,1-3.152,8.573c-1.164,2.175-2.249,4.407-3.6,6.463a25.213,25.213,0,0,1-3.473,3.929,2.888,2.888,0,0,0-1,2.356,22.194,22.194,0,0,1-.417,6.439c-.38,1.476-.8,2.945-1.274,4.391a1.8,1.8,0,0,1-2.137,1.284c-.268,1.824-.494,3.6-.8,5.362-.3,1.724-.664,3.436-1.028,5.148a2.473,2.473,0,0,1-.411.838c-.585.852-1.085.941-1.91.332-.36-.266-.666-.607-1.024-.877a2.25,2.25,0,0,0-.575-.228c-.073.156-.151.243-.139.314.188,1.106.349,2.218.593,3.312.439,1.974,1.024,3.921,1.37,5.911.253,1.454.2,2.961.325,4.438.1,1.111.258,2.216.395,3.323.054.439.117.877.2,1.489l-2.11-1.306Zm8.617-44.338a5.773,5.773,0,0,0,.847-.681c.676-.841,1.363-1.677,1.967-2.568a50.908,50.908,0,0,0,7-16.282,33.944,33.944,0,0,0,.948-12.984,15.449,15.449,0,0,0-1.585-5.2c-6.2-.556-14.244,6.032-17.112,12.652.4.19.808.372,1.206.573a5.574,5.574,0,0,1,2.264,2.07c.695,1.133.25,2.029-1.06,2.225-.666.1-1.34.166-2,.308a2.32,2.32,0,0,0-.669.4c.636.675,1.225,1.224,1.722,1.847.741.927,1.233,1.92.143,2.976,3.276,4.38,5.013,9.359,6.326,14.664Zm-72.05-49.349c-.685,1.009-1.436,1.962-2.025,3.006a30.245,30.245,0,0,0-3.5,12.912,54.664,54.664,0,0,0,.366,11.178,37.344,37.344,0,0,0,2.947,10.893,10.841,10.841,0,0,0,.611.991,39.548,39.548,0,0,1,10.093-12.307c-.41-1.5-.338-1.81.816-2.73a19.935,19.935,0,0,1,1.7-1.078c.244-.157.472-.34.784-.568a6.059,6.059,0,0,0-.654-.447c-.646-.313-1.316-.582-1.952-.914-1.039-.541-1.206-1.3-.417-2.163a4.561,4.561,0,0,1,2.946-1.483c.435-.046.867-.105,1.3-.159-1-6.346-5.453-14.726-13.018-17.131Zm22.795,51.642a24.071,24.071,0,0,1,13.63,1.908,8.159,8.159,0,0,1-.16-1.426c.216-3.8-.414-7.646.585-11.41.563-2.12.935-4.308,1.663-6.369a42.663,42.663,0,0,1,5.438-10.489,3.438,3.438,0,0,0,.311-.8c-2.894-1.4-11.369-2.266-13.225-1.4-.124,2.022-.193,4.038-.386,6.042-.172,1.784-.415,3.567-.751,5.326-.378,1.977-.874,3.931-1.356,5.885A28.557,28.557,0,0,1,300.448,240c-.649,1.129-1.252,2.284-1.886,3.422-.359.645-.736,1.274-1.038,1.794Zm-1.7,16.094a12.959,12.959,0,0,0,.015,5.076c.731,2.915,2.428,4.414,5.424,4.554,3.389.158,6.079-1.3,7-4.837a3.744,3.744,0,0,0,.228-2.549,12.516,12.516,0,0,1-5.61-2.036,10.118,10.118,0,0,0-.587,4.763c.02.359.079.718.066,1.076a1.071,1.071,0,0,1-.953,1.127,1.227,1.227,0,0,1-1.412-.773,3.787,3.787,0,0,1-.247-1.318c.037-1.389.139-2.778.219-4.167.017-.288.055-.574.088-.916Zm19.441-15.825c.465-2.266,1.623-3.155,3.921-3.044a3.609,3.609,0,0,1,2.515,1.107,3.045,3.045,0,0,1,.643,2.552,3.572,3.572,0,0,0-.857-4.806,4.029,4.029,0,0,0-5.191.073,3.2,3.2,0,0,0-1.033,4.119ZM293.626,242.4a3.784,3.784,0,0,0-1.041-4.841,4,4,0,0,0-4.991.05c-1.358,1.133-1.819,2.693-1.15,3.889a3.592,3.592,0,0,1,4.021-2.758c1.965.216,2.9,1.252,3.161,3.661Z" transform="translate(-66.34 0)"/>
    <path id="Path_3" data-name="Path 3" d="M258.064,499.475a40.169,40.169,0,0,1-1.527,4.175c-1.664,3.358-4.6,4.439-8.14,3.144a9.485,9.485,0,0,1-5.508-5.436,13.065,13.065,0,0,1-.149-10.382c2.168-5.449,5.692-9.7,11.323-11.811a27.5,27.5,0,0,1,4.858-1.039,3.425,3.425,0,0,1,1.466.127,8.374,8.374,0,0,1,5.852,7.871c-.041,2.34-.2,4.681-.139,7.019.065,2.469.32,4.935.518,7.4a11.529,11.529,0,0,0,.357,1.521,7.658,7.658,0,0,0,.85-.792,12.326,12.326,0,0,0,2.008-4.679,32.19,32.19,0,0,0,.849-9.518c-.117-1.963-.658-3.9-.927-5.855-.219-1.6-.372-3.217-.457-4.831-.068-1.3.137-1.346,1.324-1.8a4.291,4.291,0,0,1,5.1,1.259c.489.528,1.035,1,1.522,1.531a7.9,7.9,0,0,1,2.074,5.146c.11,2.244.233,4.488.515,6.752.183-1.4.287-2.823.568-4.207.548-2.683,1.166-5.353,1.819-8.013a8.494,8.494,0,0,1,.9-2.1,3.576,3.576,0,0,1,5.914-.764,9.987,9.987,0,0,1,2.056,9.973,2.374,2.374,0,0,1-3.4,1.434c-2.091-.866-3.546-2.278-3.711-4.693-.014-.213-.071-.424-.144-.845a4.58,4.58,0,0,0-.4.709,61.6,61.6,0,0,0-2.781,14c-.113,1.659-.129,3.324-.222,4.985a3.592,3.592,0,0,1-.269,1.293c-.517,1.109-.954,1.277-2.162,1a4.7,4.7,0,0,1-2.449-1.324,4.441,4.441,0,0,0-1.527-1.074,2.21,2.21,0,0,1-1.479-2.429c.015-1.111-.137-2.224-.227-3.5-.629.431-.482.9-.507,1.3a19.658,19.658,0,0,1-1.249,5.643c-.079.211-.169.417-.265.622-1.565,3.311-3.551,3.632-6.344,3.272a12.337,12.337,0,0,1-1.826-.475,4.945,4.945,0,0,1-3.392-3.034C258.533,500.541,258.314,500.058,258.064,499.475Zm-1.261-3.566c-.183-4.277-.319-7.687-.488-11.094a3.759,3.759,0,0,0-.329-1.3c-.483-1.1-1.328-1.234-2.034-.277a11.212,11.212,0,0,0-1.323,2.335,32.639,32.639,0,0,0-2.458,13.554,9.671,9.671,0,0,0,.585,3.024,6.289,6.289,0,0,0,1.406,2.086c.651.675,1.164.613,1.9.006a5.051,5.051,0,0,0,1.73-2.832c.457-2.1.784-4.226,1.015-5.505Zm-5.285-11.737a1.49,1.49,0,0,0-.338.151,2.214,2.214,0,0,0-.249.316c-3.641,5.38-4.246,11.261-2.768,17.437a9.356,9.356,0,0,0,1.386,2.585,1.5,1.5,0,0,0,1.375.7,5.513,5.513,0,0,1-1.835-3.268,19.544,19.544,0,0,1-.383-2.935,27.852,27.852,0,0,1,1.839-12.7c.308-.729.62-1.457.974-2.288Zm26.627,14.464.3.01a1.827,1.827,0,0,0,.07-.373c-.1-3.869-.167-7.739-.319-11.606a45.765,45.765,0,0,0-.477-4.7,6.345,6.345,0,0,0-2.851-4c.212.345.395.652.587.954a9.211,9.211,0,0,1,1.456,4.692c.178,4.044.524,8.081.832,12.118C277.812,496.706,278.005,497.668,278.144,498.635Zm-13.2,3.383.183-.122c-.137-1.559-.348-3.116-.4-4.679-.078-2.557-.049-5.118-.068-7.677-.011-1.436,0-2.874-.055-4.309a2.813,2.813,0,0,0-1.113-2.4,19.379,19.379,0,0,1,.3,2.6c-.026,1.344-.222,2.683-.3,4.028a35.117,35.117,0,0,0,.7,10.309C264.385,500.534,264.691,501.269,264.942,502.018Zm22.511-26.925a11.852,11.852,0,0,1,1.353,8.959C291.25,482.238,290.509,477.206,287.453,475.093Z" transform="translate(-50.821 -180.38)"/>
    <path id="Path_4" data-name="Path 4" d="M178.036,485.041c2.167.541,4.183.987,6.162,1.565a11.776,11.776,0,0,1,2.561,1.187,5.581,5.581,0,0,1,2.5,3.071,21.9,21.9,0,0,1,1.381,7.932,8.088,8.088,0,0,1-.862,3.5,47.039,47.039,0,0,1-5.1,8.408,31.487,31.487,0,0,1-2.464,2.676,7.429,7.429,0,0,1-3.761,2q-2.242.475-4.46,1.067a2.093,2.093,0,0,1-1.673-.232,5.768,5.768,0,0,1-3.251-4.336c-.39-2.524-1.189-4.982-1.7-7.491-.529-2.6-.886-5.232-1.389-7.836-1.294-6.712-2.575-13.426-3.965-20.118a17,17,0,0,1,.6-9.3,4.287,4.287,0,0,1,3.96-2.952,21.713,21.713,0,0,1,9.788,2.127c3.79,1.979,5.593,5.343,5.977,9.5a6.1,6.1,0,0,1-.391,2.239,18.116,18.116,0,0,1-3.283,6.154C178.455,484.475,178.251,484.758,178.036,485.041Zm-3.9,2.563a1.011,1.011,0,0,0-.11.285,3.755,3.755,0,0,0,.04.536c.831,6.422,1.815,12.826,1.675,19.338a6.492,6.492,0,0,0,1.448,4.138c.9,1.144,1.6,1.163,2.495.042a8.1,8.1,0,0,0,1.18-1.951,31.108,31.108,0,0,0,2.049-15.083,4.265,4.265,0,0,0-.846-2.08,34.457,34.457,0,0,0-2.821-3.084A6.108,6.108,0,0,0,174.132,487.6Zm-.992-4.267a10.8,10.8,0,0,0,2.829-2.607,6.028,6.028,0,0,0,1.373-4.4A13.481,13.481,0,0,0,174.575,469a6.576,6.576,0,0,0-2.111-1.614c-1.682-.844-2.143-.51-1.879,1.327.287,2,.687,3.985,1.038,5.978C172.111,477.474,172.6,480.253,173.14,483.338Zm-4.957-15.1a8.7,8.7,0,0,0,.076,3.676c.681,3.715,1.44,7.416,2.134,11.128a143.277,143.277,0,0,1,2.04,15.238c.261,3.36.685,6.71,1.143,10.05a8.675,8.675,0,0,0,1.266,3.84c-.12-.624-.192-.97-.253-1.316a103.572,103.572,0,0,1-1.094-12.225,73.159,73.159,0,0,0-.71-8.33c-.816-4.69-1.921-9.33-2.9-13.993-.56-2.679-1.5-5.283-1.706-8.067Zm16.823,38.836.226.234a2.27,2.27,0,0,1,.25-.581,14.607,14.607,0,0,0,3.262-12.977,7.187,7.187,0,0,0-6.1-5.663c.749.481,1.419.931,2.108,1.353a5.917,5.917,0,0,1,2.926,4.472,17.315,17.315,0,0,1-.877,9.153C186.231,504.414,185.606,505.741,185.006,507.077Z" transform="translate(0 -174.821)"/>
    <path id="Path_5" data-name="Path 5" d="M393.454,454.283a15.639,15.639,0,0,1-1.133-8.034c-.215.137-.358.175-.385.253-.475,1.4-.983,2.8-1.377,4.226a2.43,2.43,0,0,0,.088,1.546c1.608,3.465,3.206,6.937,4.951,10.333a21.911,21.911,0,0,0,4.387,5.953,4.017,4.017,0,0,0,3.047,1.491c.774-.042,1.21.646,1.17,1.5-.115,2.522-3.4,5-5.815,4.3s-4.484-1.98-5.462-4.435c-1.18-2.961-2.237-5.973-3.338-8.967-.181-.491-.314-1-.469-1.5l-.274.009c-.037.36-.088.719-.107,1.08-.067,1.258-.15,2.517-.172,3.775a2.425,2.425,0,0,1-1.4,2.422,3.427,3.427,0,0,1-3.23-.311c-.731-.512-1.453-1.042-2.218-1.5a1.966,1.966,0,0,1-1.066-1.742A89.968,89.968,0,0,0,378.9,451.6c-.816-4.419-1.38-8.885-1.988-13.339-.377-2.76-.632-5.537-.938-8.306a6,6,0,0,1-.059-.941c.045-.94.24-1.105,1.119-1.436a5.414,5.414,0,0,1,5.311.761,7.974,7.974,0,0,1,3.443,6.267c.375,3.487.592,6.991.835,10.491.29,4.174.535,8.352.8,12.527.007.115.069.226.287.36.073-.512.17-1.023.215-1.54a56.3,56.3,0,0,1,2.2-11.917,15.882,15.882,0,0,1,.96-2.371,3.529,3.529,0,0,1,4.46-2.04c.256.063.523.083.785.122l-.05-.049a26.76,26.76,0,0,1,2.04,2.613,10.014,10.014,0,0,1,.852,8.215,5.475,5.475,0,0,1-3.551,3.46c-.8.322-1.489-.129-2.228-.245Zm-7.354,8.474.168-.032c0-.762.04-1.526-.006-2.284-.337-5.568-.647-11.138-1.056-16.7-.234-3.184-.624-6.356-.977-9.53a3.959,3.959,0,0,0-1.026-2.554c.143,1.576.346,3.084.406,4.6.315,7.916.907,15.808,1.97,23.661C385.707,460.866,385.924,461.809,386.1,462.757Zm15.1,9.263a15.075,15.075,0,0,1-5.281-6c-1.576-2.978-3.087-5.99-4.63-8.986-.146-.286-.317-.56-.512-.906-.064.161-.1.207-.093.242a32.889,32.889,0,0,0,6.24,13.015,7.146,7.146,0,0,0,4.275,2.635Zm-5.731-30.085c2.259,3.6,1.779,7.143.725,10.73,3.053-1.991,2.7-8.463-.726-10.731Z" transform="translate(-135.951 -151.351)"/>
    <path id="Path_6" data-name="Path 6" d="M511.966,445.011c.731-.173,1.2-.261,1.653-.4,2.757-.823,5.507-1.671,8.268-2.478a24.357,24.357,0,0,1,2.5-.538,1.365,1.365,0,0,1,.914.037,8.7,8.7,0,0,1,2.8,2.969,4.146,4.146,0,0,1-2.234,1.361q-2.565.826-5.185,1.478-5.365,1.341-10.753,2.59a3.523,3.523,0,0,1-3.855-1.985,10.229,10.229,0,0,0-1.254-2.056,2.841,2.841,0,0,1-.5-2.77c1.173-4.618,2.413-9.225,3.415-13.881,1.683-7.823,3.208-15.682,4.789-23.529q.747-3.7,1.437-7.418a14.453,14.453,0,0,0,.12-1.525,4.721,4.721,0,0,0-1,.009c-2.879.714-5.753,1.452-8.63,2.176a6.164,6.164,0,0,1-1.188.221c-.8.039-1.124-.237-1.218-.938a1.013,1.013,0,0,1,.863-1.286c1.133-.285,2.282-.512,3.424-.763,3.074-.68,6.149-1.352,9.22-2.043a5.033,5.033,0,0,1,5.716,2.235c2.473,3.862,2.848,3.625,1.63,9.24-1.086,5-2.639,9.9-4.051,14.831-2.032,7.092-4.131,14.162-6.18,21.248C512.4,442.743,512.246,443.724,511.966,445.011Zm-1.3-2.46.146.045c.136-.359.289-.712.4-1.077q.694-2.185,1.368-4.377c2.983-9.764,5.718-19.6,7.964-29.558.453-2.01,1.113-4,.883-6.114a4.324,4.324,0,0,0-.658-2.247,13.2,13.2,0,0,1-.357,5.762c-.725,2.458-1.472,4.912-2.111,7.393q-3.753,14.565-7.44,29.145C510.778,441.86,510.731,442.208,510.666,442.551Z" transform="translate(-215.966 -130.341)"/>
    <path id="Path_7" data-name="Path 7" d="M451.632,452.358l-.049-.045c.515.565,1.038,1.123,1.543,1.7a7.649,7.649,0,0,1,1.94,4.781c.122,2.287.242,4.575.516,6.9.087-.5.2-1,.256-1.508a49.849,49.849,0,0,1,2.131-10.555,12.812,12.812,0,0,1,.969-2.219,3.56,3.56,0,0,1,6-.585,10.1,10.1,0,0,1,1.969,9.637,2.324,2.324,0,0,1-3.372,1.656c-2.03-.817-3.562-2.1-3.729-4.5a1.556,1.556,0,0,0-.4-.931c-.367,1.221-.764,2.435-1.1,3.666a60.522,60.522,0,0,0-2.107,15.733,4.732,4.732,0,0,1-.054.941,1.733,1.733,0,0,1-2.241,1.533,4.749,4.749,0,0,1-2.4-1.137,10,10,0,0,0-1.959-1.4,1.949,1.949,0,0,1-1.219-1.912c.084-2.825-.689-5.51-1.27-8.235a85.36,85.36,0,0,1-1.952-11.694c-.045-.627-.058-1.259-.056-1.888a.974.974,0,0,1,.734-1.014,12.779,12.779,0,0,1,2.48-.6,3.523,3.523,0,0,1,1.755.468A11.612,11.612,0,0,1,451.632,452.358Zm-.419,2.449-.21.187a18,18,0,0,1,.924,1.763,7.948,7.948,0,0,1,.641,2.173c.165,1.878.158,3.771.3,5.651.247,3.18.553,6.355.854,9.53a6.841,6.841,0,0,0,.292,1.111,1.052,1.052,0,0,0,.259-.742c.018-5.035-.163-10.063-.589-15.081a7.031,7.031,0,0,0-2.475-4.591Zm13.363,5.87c2.5-2.447,1.572-7.891-1.4-9,1.823,2.76,2,5.728,1.4,9Z" transform="translate(-179.808 -165.467)"/>
    <path id="Path_8" data-name="Path 8" d="M580.319,473.859a3.435,3.435,0,0,1-2.107,3.261,3.336,3.336,0,0,1-3.664-.525c-.242-.2-.455-.435-.684-.651a7.124,7.124,0,0,0-4.2-1.969c-.313-.037-.628-.06-.936-.12a3.36,3.36,0,0,1-2.823-2.567,3.184,3.184,0,0,1,1.243-3.6,35.884,35.884,0,0,1,4.688-2.927,5.4,5.4,0,0,1,7.736,3.82C579.924,470.344,580.083,472.142,580.319,473.859Z" transform="translate(-256.395 -174.822)"/>
    <path id="Path_9" data-name="Path 9" d="M327.482,446.635c-.432,3.209.235,6.392-.789,9.491l-1.926-1c.082-1.482.181-2.954.24-4.427.056-1.393.029-2.789.116-4.179.056-.885-.055-1.6-.981-1.974a.992.992,0,0,1-.49-.7c2.047.665,4.067,1.436,6.148,1.965a55.831,55.831,0,0,0,6.478,1.229c2.17.286,4.369.355,6.726.532.088.512.2,1.149.338,1.959a37.814,37.814,0,0,1-8.093-.517C332.526,448.693,330.214,447.227,327.482,446.635Z" transform="translate(-102.793 -161.919)"/>
    <path id="Path_10" data-name="Path 10" d="M592.447,442.048a3.133,3.133,0,0,1,3.109,3.157q0,.109-.009.217a4.166,4.166,0,0,1-1.75,3.351,3.119,3.119,0,0,1-5.038-2.06A3.964,3.964,0,0,1,592.447,442.048Z" transform="translate(-270.951 -160.776)"/>
    <path id="Path_11" data-name="Path 11" d="M419.508,493.834l-.048-.05a4.76,4.76,0,0,0,1.48.8,19.489,19.489,0,0,0,3.359.095,10.774,10.774,0,0,0,2.522-.392,18.01,18.01,0,0,0,2.3-1.03c.183.82.395,1.589.522,2.372.1.642-.478.892-.9,1.018-2.646.793-5.311,1.328-8.032.261a4.032,4.032,0,0,1-2.387-2.219c-.37-.867-.695-1.755-1.086-2.61a2.428,2.428,0,0,1,.225-2.549C418.138,491.024,418.232,492.729,419.508,493.834Z" transform="translate(-162.005 -190.902)"/>
    <path id="Path_12" data-name="Path 12" d="M607.409,461.212a2.753,2.753,0,0,1-2.924-2.812,3.719,3.719,0,0,1,3.643-3.713A2.792,2.792,0,0,1,611,457.4c0,.06,0,.119,0,.178A3.718,3.718,0,0,1,607.409,461.212Z" transform="translate(-280.966 -168.794)"/>
    <path id="Path_13" data-name="Path 13" d="M571.228,448.813a5.57,5.57,0,0,1,.16-.981,3.026,3.026,0,0,1,2.738-2.057,2.939,2.939,0,0,1,2.646,2.148,3.436,3.436,0,0,1-.268,2.744,2.841,2.841,0,0,1-3.175,1.484A3.2,3.2,0,0,1,571.228,448.813Z" transform="translate(-259.866 -163.141)"/>
    <path id="Path_14" data-name="Path 14" d="M608.343,476.893a3.378,3.378,0,0,1,3.4-3.125,2.609,2.609,0,0,1,2.836,2.573,3.4,3.4,0,0,1-3.393,3.285A2.674,2.674,0,0,1,608.343,476.893Z" transform="translate(-283.414 -180.901)"/>
    <path id="Path_15" data-name="Path 15" d="M407.133,459.149a13.838,13.838,0,0,1-.224-1.659c-.039-2.069-.034-4.138-.05-6.207,0-.45-.015-.9-.048-1.349-.092-1.214-.1-1.2-1.3-1.332-.216-.024-.412-.233-.617-.356.14-.19.244-.495.426-.553,1.148-.366,2.313-.679,3.449-1,0,1.927-.052,3.818.017,5.7a9.323,9.323,0,0,1-.647,4.21,22.4,22.4,0,0,0-.791,2.546Z" transform="translate(-154.336 -163.722)"/>
    <path id="Path_16" data-name="Path 16" d="M305.4,495.362l3.771-.271c.768,1.922.635,2.182-1.331,2.474-.351.052-.709.061-1.206.1Z" transform="translate(-91.209 -194.429)"/>
    <path id="Path_17" data-name="Path 17" d="M472.421,271.61c-1.313-5.305-3.05-10.284-6.329-14.664,1.09-1.055.6-2.047-.143-2.976-.5-.621-1.086-1.172-1.722-1.847a2.321,2.321,0,0,1,.669-.4c.658-.143,1.33-.209,2-.308,1.312-.2,1.758-1.093,1.06-2.225a5.576,5.576,0,0,0-2.264-2.07c-.4-.2-.8-.383-1.206-.573,2.868-6.621,10.915-13.208,17.113-12.652a15.46,15.46,0,0,1,1.589,5.2,33.947,33.947,0,0,1-.948,12.984,50.909,50.909,0,0,1-7,16.282c-.6.891-1.292,1.728-1.967,2.568A5.754,5.754,0,0,1,472.421,271.61Z" transform="translate(-191.98 -28.692)" fill="#fed4d5"/>
    <path id="Path_18" data-name="Path 18" d="M279.717,202.131c7.567,2.4,12.023,10.784,13.017,17.134-.436.054-.869.113-1.3.159a4.56,4.56,0,0,0-2.946,1.483c-.79.859-.621,1.623.417,2.163.637.331,1.306.6,1.952.914a6.076,6.076,0,0,1,.654.447c-.312.227-.54.41-.784.568a19.94,19.94,0,0,0-1.7,1.078c-1.154.92-1.226,1.226-.816,2.73a39.548,39.548,0,0,0-10.093,12.307,10.841,10.841,0,0,1-.611-.991,37.353,37.353,0,0,1-2.947-10.893,54.663,54.663,0,0,1-.366-11.178,30.225,30.225,0,0,1,3.5-12.912C278.28,204.093,279.031,203.14,279.717,202.131Z" transform="translate(-71.327 -8.561)" fill="#fed4d5"/>
    <path id="Path_19" data-name="Path 19" d="M351.9,290.758c.3-.52.68-1.15,1.037-1.791.634-1.138,1.236-2.293,1.886-3.422a28.564,28.564,0,0,0,2.827-7.518c.481-1.955.978-3.911,1.356-5.885.336-1.76.579-3.543.751-5.326.194-2,.263-4.021.386-6.042,1.858-.867,10.33,0,13.225,1.4a3.44,3.44,0,0,1-.311.8,42.665,42.665,0,0,0-5.438,10.489c-.729,2.061-1.1,4.247-1.663,6.369-1,3.765-.368,7.608-.585,11.41a8.153,8.153,0,0,0,.16,1.426A24.058,24.058,0,0,0,351.9,290.758Z" transform="translate(-120.711 -45.546)" fill="#fff"/>
    <path id="Path_20" data-name="Path 20" d="M346.822,387.43h4.227c-.033.342-.071.628-.088.916-.081,1.389-.183,2.778-.219,4.167a3.787,3.787,0,0,0,.247,1.318,1.227,1.227,0,0,0,1.412.773,1.07,1.07,0,0,0,.953-1.128c.012-.357-.046-.717-.067-1.076a10.119,10.119,0,0,1,.587-4.763,12.516,12.516,0,0,0,5.61,2.036,3.745,3.745,0,0,1-.228,2.549c-.916,3.54-3.606,4.994-7,4.837-3-.139-4.694-1.639-5.424-4.554A12.958,12.958,0,0,1,346.822,387.43Z" transform="translate(-117.337 -126.124)" fill="#fe938d"/>
    <path id="Path_21" data-name="Path 21" d="M399.76,335.284a3.2,3.2,0,0,1,1.031-4.117,4.029,4.029,0,0,1,5.191-.073,3.571,3.571,0,0,1,.857,4.806,3.041,3.041,0,0,0-.643-2.552,3.609,3.609,0,0,0-2.515-1.107C401.383,332.129,400.225,333.017,399.76,335.284Z" transform="translate(-150.834 -89.803)" fill="#fff"/>
    <path id="Path_22" data-name="Path 22" d="M328.236,325.843c-.263-2.409-1.2-3.445-3.162-3.66a3.592,3.592,0,0,0-4.021,2.758c-.668-1.2-.207-2.755,1.15-3.889a4,4,0,0,1,4.991-.05A3.784,3.784,0,0,1,328.236,325.843Z" transform="translate(-100.951 -83.44)" fill="#fff"/>
    <ellipse id="Ellipse_1" data-name="Ellipse 1" cx="3.473" cy="3.107" rx="3.473" ry="3.107" transform="translate(220.141 238.474)" fill="#0a8279"/>
    <circle id="Ellipse_3-2" data-name="Ellipse 3" cx="2.193" cy="2.193" r="2.193" transform="translate(220.872 240.302)"/>
    <ellipse id="Ellipse_2" data-name="Ellipse 2" cx="3.473" cy="3.107" rx="3.473" ry="3.107" transform="translate(249.02 241.764)" fill="#0a8279"/>
    <circle id="Ellipse_4-2" data-name="Ellipse 4" cx="2.193" cy="2.193" r="2.193" transform="translate(250.116 243.592)"/>
  </g>
</svg>
