<svg xmlns="http://www.w3.org/2000/svg" width="126.57" height="113.946" viewBox="0 0 126.57 113.946"><defs><style>.a{fill:#fff;}</style></defs><g transform="translate(0 0)"><path class="a" d="M966.173,702.009a41.245,41.245,0,0,0-12.285,6.422c-10.633,8.194-15.247,25.9-10.094,38.677,6.86,16.891,20.524,12.575,30.495,9.416,2.064-.659,4.145-1.313,6.207-1.833,3.959-.987,8.972.677,14.272,2.451,6.576,2.185,13.369,4.453,20.024,2.257a18.162,18.162,0,0,0,8.845-6.619c7.968-10.592,4.814-26.108-2.181-35.322C1009.793,702.1,986.027,695.465,966.173,702.009Z" transform="translate(-918.044 -646.348)"/><path class="a" d="M940.127,710.6a12.594,12.594,0,0,0,5.477-3.511c3.768-4.12,4.358-10.254,1.63-16.821-2.644-6.405-7.587-10.227-13.548-10.515a14.078,14.078,0,0,0-2.935.191,14.8,14.8,0,0,0-8.587-5.772,4.505,4.505,0,0,0-5.405,3.32,4.413,4.413,0,0,0,3.376,5.3,5.443,5.443,0,0,1,2.5,1.42,12.684,12.684,0,0,0-2.087,2.862,13.208,13.208,0,0,0-.587,11.135c1.737,6.312,5.974,10.912,11.653,12.511A14.454,14.454,0,0,0,940.127,710.6Z" transform="translate(-916.641 -644.923)"/><path class="a" d="M972.507,691.857A12.564,12.564,0,0,0,977.176,689c4.522-4.227,6.447-11.034,5.27-18.69-1.287-8.421-6.06-15.8-12.157-18.78a16.756,16.756,0,0,0-4.075-1.4,9.349,9.349,0,0,0-7.288-6.213,4.519,4.519,0,0,0-5.284,3.509,4.375,4.375,0,0,0,2.686,4.832c-5.771,4.263-7.738,13.293-5.709,20.575,1.209,4.315,5.99,14.424,13.051,18.134A11.2,11.2,0,0,0,972.507,691.857Z" transform="translate(-918.501 -643.23)"/><path class="a" d="M1005.107,692.865a14.12,14.12,0,0,0,1.526-.419c4.636-1.528,8.325-5.3,10.407-10.628,2.7-6.977,2.288-15.808-1-21.482a21.908,21.908,0,0,0-5.578-6.634,32,32,0,0,0,1.333-5.457,4.425,4.425,0,0,0-3.811-5.005,4.484,4.484,0,0,0-5.092,3.757,23.8,23.8,0,0,1-1.029,4.151,11.687,11.687,0,0,0-2.248.484c-10.247,3.376-16.291,20.784-13.329,31.307C988.6,691.193,995.644,694.908,1005.107,692.865Z" transform="translate(-920.501 -643.194)"/><path class="a" d="M1048.182,675.011a4.535,4.535,0,0,0-6.291-.9,33.219,33.219,0,0,0-4.082,3.533,10.373,10.373,0,0,0-5.425.292,16.591,16.591,0,0,0-6.665,4.52c-4.76,5.01-5.858,13.72-2.406,19.013,2.636,4.042,7.285,5.442,12.427,3.743h0c.593-.2,1.207-.44,1.855-.727a15.507,15.507,0,0,0,8.108-19.87,12.262,12.262,0,0,0-.727-1.429,28.408,28.408,0,0,1,2.285-1.974A4.387,4.387,0,0,0,1048.182,675.011Z" transform="translate(-922.504 -644.877)"/></g></svg>