<svg xmlns="http://www.w3.org/2000/svg" width="240.549" height="291.363" viewBox="0 0 240.549 291.363"><defs><style>.a{fill:#fff;}.b{fill:#fcfcfc;}.c{fill:#020202;}.d{fill:#ffd4d4;}.e{fill:#f7f7f7;}.f{fill:#23b584;}</style></defs><g transform="translate(54.662 155.323)"><path d="M619.468,773.794s-18.806,21.517-12.69,81.882l39.9,34.756s11.766,5.6,57.259-.269l40.869-48.091s4.165-45.765-8.526-63.021-17.332-12.865-17.332-12.865Z" transform="translate(-605.555 -765.686)"/></g><g transform="translate(21.191 217.524)"><path d="M592.062,854.82s-27.5,12.787-33.785,21.859,32.787,46.435,32.787,46.435,26.776-.66,50.205-5.054" transform="translate(-557.593 -854.82)"/></g><g transform="translate(143.599 218.556)"><path d="M783.084,856.3s21.1,6.87,22.693,15.593S785.7,924.611,785.7,924.611s-47.869-5.171-52.7-8.184" transform="translate(-733 -856.299)"/></g><g transform="translate(6.098 224.081)"><path class="a" d="M592.923,892.264c4.419,17.269,3.428,33.007-11.684,36.874s-32.427-1.581-39.551-20.078c-6.407-16.634-1.334-37.194,13.778-41.062S588.5,874.994,592.923,892.264Z" transform="translate(-536.874 -865.122)"/><path d="M571.117,931.5c-14.772,0-26.843-8.446-32.293-22.593-4.107-10.664-3.77-22.887.879-31.9,3.218-6.237,8.174-10.367,14.333-11.943a27.569,27.569,0,0,1,6.824-.847c15.033,0,29.3,11.445,33.181,26.622,7.156,27.961-3.225,36.871-13.193,39.422A39.281,39.281,0,0,1,571.117,931.5ZM560.86,868.4a23.336,23.336,0,0,0-5.785.716c-4.968,1.271-9,4.662-11.651,9.807-4.118,7.981-4.383,18.893-.693,28.474,4.874,12.653,15.22,19.911,28.386,19.911a35.121,35.121,0,0,0,8.693-1.107c11.807-3.022,15.231-14.572,10.175-34.328C586.561,878.494,574.04,868.4,560.86,868.4Z" transform="translate(-535.964 -864.216)"/></g><g transform="translate(180.099 224.081)"><path class="a" d="M790.617,892.264c-4.419,17.269-3.428,33.007,11.684,36.874s32.426-1.581,39.551-20.078c6.407-16.634,1.334-37.194-13.778-41.062S795.036,874.994,790.617,892.264Z" transform="translate(-786.216 -865.122)"/><path d="M810.6,931.5h0a39.279,39.279,0,0,1-9.732-1.238c-9.967-2.551-20.348-11.461-13.193-39.422,3.884-15.177,18.149-26.622,33.182-26.622a27.559,27.559,0,0,1,6.823.847c6.159,1.576,11.116,5.706,14.333,11.943,4.65,9.013,4.987,21.235.879,31.9C837.445,923.052,825.374,931.5,810.6,931.5ZM820.859,868.4c-13.18,0-25.7,10.091-29.125,23.473-5.056,19.757-1.632,31.305,10.175,34.328a35.108,35.108,0,0,0,8.693,1.107c13.165,0,23.511-7.257,28.384-19.911,3.692-9.581,3.426-20.492-.692-28.474-2.653-5.145-6.682-8.535-11.65-9.807A23.337,23.337,0,0,0,820.859,868.4Z" transform="translate(-785.304 -864.216)"/></g><g transform="translate(177.494 149.604)"><path d="M794.816,819.415s44.5-17.016,24.963-61.923l-38.207,6.286.849,4.465" transform="translate(-781.572 -757.492)"/></g><g transform="translate(84.173 183.904)"><path class="a" d="M734.713,854.445c0,26.4-19.446,41.522-43.434,41.522s-43.435-15.122-43.435-41.522,19.446-47.8,43.435-47.8S734.713,828.044,734.713,854.445Z" transform="translate(-647.844 -806.643)"/></g><g transform="translate(54.426 180.469)"><path d="M611.734,804.713s-12.623,83.344,31.587,73.574c32.644-7.919,10.636-52.112,10.636-52.112" transform="translate(-606.682 -802.624)"/><path class="b" d="M611.369,862.6s-1.056,38.359,31.605,31.875c19.808-5.472,14.6-26.26,14.6-26.26" transform="translate(-607.075 -820.114)"/><path d="M633.4,880.269a22.155,22.155,0,0,1-15.683-6c-18.923-17.692-10.826-68.3-10.5-70.461.173-1.144.61-2.247,1.75-2.07s1.355,1.781,1.182,2.925c-.077.507-9.312,51.307,8.008,67.5,4.873,4.555,13.556,7.048,21.611,5.267,6.855-1.663,13.406-6.277,15.891-11.616,6.832-14.674-5.779-39.877-5.9-40.115-.514-1.035-.852-1.787.183-2.3a2.093,2.093,0,0,1,2.806.941c.518,1.041,12.614,25.7,4.937,42.2-3.05,6.556-8.753,10.889-16.953,12.877A33.976,33.976,0,0,1,633.4,880.269Z" transform="translate(-605.217 -801.72)"/></g><g transform="translate(55.003 148.296)"><path class="a" d="M700.521,853l3.042,3.445c13.013-14.376,12.251-29.551,12.251-29.551l4,2.9c8.827-4.586,6.861-28.138,6.861-28.138l5.265,4.26c3.225-5.68-.71-21.691-.71-21.691l7.082,4.075c-.9-8.195-8.488-29.679-8.488-29.679l-110.061,10.2s-11.718,10.6-10.655,16.972l2.585-.453s-2.046,9.542,4.924,15.617l2.314-1.315s4.655,12.109,12.216,16.443l3-4.27s7.974,12.737,15.257,14.813l1.685-2.713s10.336,20.607,19.885,19.654" transform="translate(-606.949 -756.524)"/><path class="c" d="M702.657,857.627h-.013a2.093,2.093,0,0,1-1.557-.708l-3.041-3.445a2.093,2.093,0,1,1,3.139-2.77l1.454,1.647c10.706-13.019,10.185-26.126,10.178-26.263a2.093,2.093,0,0,1,3.32-1.8l2.816,2.043c4.624-4.036,5.394-17.391,4.729-25.41a2.093,2.093,0,0,1,3.4-1.8l2.9,2.345c.741-4.722-.5-12.81-1.693-17.649a2.093,2.093,0,0,1,3.077-2.314l3.176,1.828c-1.743-7.661-5.641-19.24-7.066-23.381l-107.724,9.981c-3.645,3.41-8.078,8.71-9.239,12.423a2.094,2.094,0,0,1,2.317,2.515c-.065.315-1.474,7.436,3.211,12.58l.946-.537a2.095,2.095,0,0,1,2.988,1.068c.04.1,3.81,9.741,9.727,14.318l1.826-2.6a2.159,2.159,0,0,1,1.768-.889,2.1,2.1,0,0,1,1.719.982c1.918,3.059,7.595,10.843,12.621,13.343l.768-1.237a2.057,2.057,0,0,1,1.873-.986,2.094,2.094,0,0,1,1.777,1.152c3.751,7.468,11.907,19.1,17.805,18.51a2.094,2.094,0,0,1,.416,4.167c-8.507.849-16.7-11.45-20.236-17.609a2.09,2.09,0,0,1-2.115.6c-5.94-1.693-11.842-9.068-14.722-13.132l-1.252,1.78a2.093,2.093,0,0,1-2.753.612c-6.128-3.512-10.373-11.406-12.171-15.286l-.284.161a2.094,2.094,0,0,1-2.41-.241c-5.34-4.655-6.038-10.982-5.915-14.66a2.092,2.092,0,0,1-2.283-1.738c-1.216-7.29,10.029-17.706,11.316-18.87a2.088,2.088,0,0,1,1.211-.532l110.062-10.2a2.1,2.1,0,0,1,2.167,1.388c.313.886,7.676,21.809,8.595,30.148a2.094,2.094,0,0,1-3.126,2.043l-3.034-1.746c.981,5.477,2,14.235-.472,18.581a2.093,2.093,0,0,1-3.137.593L728.07,805.3c.109,7.58-.747,21.572-8.2,25.442a2.092,2.092,0,0,1-2.194-.163l-.874-.634a48.494,48.494,0,0,1-12.6,26.993A2.1,2.1,0,0,1,702.657,857.627Z" transform="translate(-606.045 -755.617)"/></g><path d="M715.6,734.408s7.648-5.348,9.518-11.108l2.4,2.765s6.246-21.685,2.921-26.7l5.022.488s-5.548-17.306-11.288-21.533l6.512,1.6c-.126-.408.373-26.557-45.937-44.264-41.337-15.806-98.019,13.953-98.193,59.075,0,0-1.584,18.8,2.472,26.233l4.649-3.937s-.6,12.745,6.905,22.245l2.552-3.41s2.492,13.409,14.073,15.236" transform="translate(-545.06 -569.78)"/><g transform="translate(55.277 62.583)"><g transform="translate(0 104.479)"><path class="a" d="M606.845,785.919l2.553-3.41s-1.169,1.139-2.961,2.87C606.572,785.559,606.7,785.741,606.845,785.919Z" transform="translate(-606.437 -782.509)"/></g><g transform="translate(2.961)"><path class="a" d="M732.666,724.709l2.4,2.765s6.246-21.685,2.922-26.7c-17.423-7.947-18.228,18.583-27.194,4.708s-27.509-10.562-27.509-10.562c-15.784-29.816-16.767-51.739-15.96-62.126-8.062.1-20.658,3-28.4,5.521,19.7,20.758,24.6,59.366,24.6,59.366-27.71,7.153-17.606,39.064-28.864,35.8s-23.976,3.794-23.976,3.794,2.492,13.409,14.072,15.236l98.4-16.691S730.8,730.468,732.666,724.709Z" transform="translate(-610.68 -632.792)"/></g></g><path d="M616.3,752.308a2.09,2.09,0,0,1-.329-.026c-8.619-1.359-12.727-8.191-14.538-12.753l-.086.114a2.1,2.1,0,0,1-1.648.839,2.125,2.125,0,0,1-1.67-.8c-5.153-6.521-6.723-14.356-7.185-19.171l-1.374,1.163a2.093,2.093,0,0,1-3.19-.595c-4.208-7.708-2.856-25.747-2.729-27.328.1-19.545,10.72-37.987,29.136-50.609,21.517-14.747,49.738-18.8,71.9-10.329,42.2,16.136,46.844,39.2,47.26,45.88l0,.074a2.093,2.093,0,0,1-2.576,2.3l-.354-.086c4.087,6.549,7.183,15.972,7.623,17.345a2.094,2.094,0,0,1-2.2,2.723l-1.949-.189c.992,7.673-2.865,21.72-3.781,24.9a2.093,2.093,0,0,1-3.594.791l-.306-.353c-3.038,4.955-8.546,8.846-8.825,9.041a2.093,2.093,0,1,1-2.4-3.43h0c1.969-1.381,7.376-5.879,8.727-10.041a2.094,2.094,0,0,1,3.386-.914c2.3-9.119,3.688-18.938,2.177-21.218a2.094,2.094,0,0,1,1.948-3.241l1.779.173c-2.08-5.708-5.968-14.856-9.488-17.448a2.093,2.093,0,0,1,1.741-3.718l3.536.869c-1.517-7.55-8.865-26.03-44.208-39.543-20.913-8-47.62-4.122-68.036,9.872-17.29,11.851-27.246,29.074-27.316,47.255,0,.056,0,.112-.008.167-.372,4.432-.747,16.006,1.236,22.6l2.447-2.072a2.093,2.093,0,0,1,3.444,1.7c0,.108-.382,10.172,4.865,18.584l.824-1.1a2.094,2.094,0,0,1,3.735.872c.092.484,2.392,11.981,12.34,13.551a2.093,2.093,0,0,1-.323,4.161Z" transform="translate(-544.153 -568.896)"/><g transform="translate(122.282)"><path d="M705.454,608.11s15.242-68.695,41.072-61.461,31.088,70.968,10.082,90.751" transform="translate(-703.36 -544.019)"/><path d="M755.7,638.585a2.094,2.094,0,0,1-1.436-3.618c12.545-11.813,14.857-39.95,9.846-60.326-3.618-14.707-10.563-24.506-19.056-26.884a12.146,12.146,0,0,0-9.932,1.55c-17.759,10.637-28.427,57.874-28.533,58.349a2.094,2.094,0,1,1-4.088-.907c.447-2.014,11.17-49.472,30.469-61.033a16.323,16.323,0,0,1,13.212-1.99c9.99,2.8,18.005,13.7,21.993,29.915,5.226,21.246,3.132,51.029-11.041,64.375A2.086,2.086,0,0,1,755.7,638.585Z" transform="translate(-702.453 -543.112)"/></g><g transform="translate(137.684 12.074)"><path class="d" d="M755.67,632.719S745.41,621.559,733.9,619.25c0,0,3.006-4.589,6.05-4.619,0,0-3.675-4.475-9.272-2.837,0,0,3.33-8.672,9.2-8.445,0,0-6.506-3.5-12.352-1.764,0,0,12.577-40,23.144-38.107S772.418,600.345,755.67,632.719Z" transform="translate(-725.432 -561.32)"/><path class="d" d="M754.763,633.9a2.1,2.1,0,0,1-1.54-.675c-.1-.106-9.953-10.688-20.642-12.833a2.094,2.094,0,0,1-1.34-3.2,16.764,16.764,0,0,1,3.659-3.973,6.421,6.421,0,0,0-2.676-.6,6.664,6.664,0,0,0-1.865.276,2.094,2.094,0,0,1-2.543-2.759,20.629,20.629,0,0,1,5.216-7.544,14.876,14.876,0,0,0-2.905-.3,10.235,10.235,0,0,0-2.911.4,2.094,2.094,0,0,1-2.594-2.634c2.082-6.619,13.041-39.637,24.408-39.637a6.276,6.276,0,0,1,1.1.1c3.612.646,7.126,4.089,9.891,9.7,6.809,13.806,8.651,39.274-3.4,62.567a2.1,2.1,0,0,1-1.86,1.131Zm-18.054-16.729c7.62,2.534,14.218,8.047,17.465,11.1,9.976-21.268,8.205-43.824,2.094-56.214-2.1-4.256-4.669-7.032-6.873-7.426a2.051,2.051,0,0,0-.366-.032c-5.7,0-14.339,18.635-19.369,33.507.154,0,.31-.006.466-.006a23.145,23.145,0,0,1,9.836,2.5,2.093,2.093,0,0,1-1.073,3.935l-.146,0c-2.159,0-4.055,2-5.357,3.967a11.866,11.866,0,0,1,7.273,3.9,2.093,2.093,0,0,1-1.6,3.422A4.3,4.3,0,0,0,736.709,617.176Z" transform="translate(-724.525 -560.414)"/></g><g transform="translate(0 36.08)"><path d="M602.2,636.547s-45.852-53.375-65.213-34.809,6.077,77.24,33.932,84.77" transform="translate(-528.124 -595.721)"/><path d="M570.019,687.7a2.088,2.088,0,0,1-.547-.073c-18.794-5.081-34.693-30.351-40.109-51.549-4.135-16.177-2.212-29.574,5.275-36.753a16.317,16.317,0,0,1,12.589-4.479c22.469,1.086,54.316,37.871,55.661,39.436A2.094,2.094,0,0,1,599.712,637c-.317-.37-32.012-36.984-52.689-37.982a12.141,12.141,0,0,0-9.487,3.32c-6.366,6.1-7.866,18.021-4.116,32.695,5.2,20.33,20.51,44.046,37.145,48.544a2.094,2.094,0,0,1-.545,4.115Z" transform="translate(-527.226 -594.814)"/></g><g transform="translate(11.1 48.061)"><path class="d" d="M577.762,679.369s3.782-14.68,12.84-22.147c0,0-4.815-2.628-7.513-1.218,0,0,1.128-5.68,6.835-6.876,0,0-7.028-6.075-12.1-3.1,0,0,4.084-6.156,10.057-7.384,0,0-29.961-29.329-38.386-22.677S547.722,658.729,577.762,679.369Z" transform="translate(-544.039 -612.888)"/><path class="d" d="M576.855,680.556a2.094,2.094,0,0,1-1.185-.368c-21.614-14.851-32.008-38.174-32.519-53.56-.207-6.248,1.265-10.941,4.146-13.215a7.047,7.047,0,0,1,4.488-1.432c11.548,0,34.124,21.773,36.66,24.256a2.093,2.093,0,0,1-1.043,3.547,12.227,12.227,0,0,0-5.154,2.658,20.756,20.756,0,0,1,8.14,4.2,2.093,2.093,0,0,1-.94,3.632,6.421,6.421,0,0,0-3.864,2.438,17.411,17.411,0,0,1,5.115,1.771,2.094,2.094,0,0,1,.329,3.453c-8.413,6.935-12.108,20.914-12.145,21.055a2.1,2.1,0,0,1-2.028,1.57Zm-25.07-64.387a2.962,2.962,0,0,0-1.893.531c-1.758,1.388-2.713,5.048-2.556,9.79.458,13.808,9.54,34.53,28.37,48.575,1.423-4.221,4.639-12.193,10.159-18.023a4.627,4.627,0,0,0-2.713-.089,2.094,2.094,0,0,1-3.023-2.263,11.841,11.841,0,0,1,4.563-6.872,10.332,10.332,0,0,0-4.624-1.425,4.019,4.019,0,0,0-2.087.53,2.094,2.094,0,0,1-2.8-2.963,22.888,22.888,0,0,1,7.9-7.052C575.131,629.511,559.252,616.169,551.785,616.169Z" transform="translate(-543.132 -611.982)"/></g><g transform="translate(119.015 177.166)"><path d="M708.492,806.538a32.176,32.176,0,0,1-9.282-1.366,2.093,2.093,0,0,1,1.309-3.977h0c.13.043,13.06,4.147,20.64-3.58a2.094,2.094,0,0,1,2.989,2.932C719.472,805.313,713.449,806.538,708.492,806.538Z" transform="translate(-697.772 -796.987)"/></g><g transform="translate(107.043 122.44)"><path d="M708.167,724c1.087,5.445-3.582,14.033-11.154,15.543s-15.177-4.629-16.264-10.074,4.641-8.726,12.213-10.236S707.082,718.556,708.167,724Z" transform="translate(-680.617 -718.567)"/></g><g transform="translate(98.755 135.732)"><path d="M683.739,762.541h-.084c-8.313-.045-14.166-6.763-14.411-7.05a2.094,2.094,0,0,1,3.177-2.728c.072.082,4.914,5.572,11.286,5.59h.031c3.921,0,7.73-2.082,11.327-6.191a2.1,2.1,0,0,1,2.1-.648c.075.018,7.956,1.956,13.042-1.793,2.733-2.015,4.242-5.422,4.488-10.125a2.094,2.094,0,1,1,4.181.218c-.314,6.027-2.4,10.5-6.206,13.293-5.337,3.918-12.416,3.222-15.28,2.724C693.183,760.285,688.6,762.541,683.739,762.541Z" transform="translate(-668.74 -737.613)"/></g><g transform="translate(80.228 116.723)"><circle class="e" cx="7.549" cy="7.549" r="7.549" transform="matrix(0.229, -0.973, 0.973, 0.229, 0, 14.698)"/></g><g transform="translate(83.185 119.173)"><circle class="f" cx="5.511" cy="5.511" r="5.511" transform="matrix(0.229, -0.973, 0.973, 0.229, 0, 10.73)"/></g><g transform="translate(87.318 123.348)"><path d="M657.432,722.407a2.541,2.541,0,1,1-2.54-2.54A2.541,2.541,0,0,1,657.432,722.407Z" transform="translate(-652.351 -719.867)"/></g><g transform="translate(134.899 103.756)"><path class="a" d="M722.628,707.064a2.094,2.094,0,0,1-2.094-2.089,11.936,11.936,0,0,1,7.38-11.612,18.881,18.881,0,0,1,7.013-1.571,2.094,2.094,0,0,1,0,4.187c-.849.006-6.957.207-9.3,4.819a17.313,17.313,0,0,1,13.609-.583,2.093,2.093,0,1,1-1.553,3.888c-7.021-2.8-13.679,2.446-13.746,2.5A2.1,2.1,0,0,1,722.628,707.064Z" transform="translate(-720.534 -691.792)"/></g><g transform="translate(166.031 105.943)"><path class="a" d="M810.377,749.221s12.443-6.3,10.552-18.515-11.89-15.7-16.748-16.224c0,0,2.425-16.7-9.59-16.554s-7.216,19.392-6.068,20.226c0,0-7.329-15.455-16.844-8.345s3.207,17.993,3.207,17.993-13.209,19.7,8.842,25.518" transform="translate(-766.052 -695.833)"/><path d="M782.822,754.508a2.1,2.1,0,0,1-.536-.07c-7.047-1.859-11.558-5.288-13.41-10.193-2.5-6.627.745-13.88,2.45-16.982-2.188-2.216-6.346-7.132-6.175-12.331a11.016,11.016,0,0,1,12.958-9.713,13.1,13.1,0,0,1,5.525,3.148,20.644,20.644,0,0,1,.772-6.516,9.288,9.288,0,0,1,9.252-6.923,10.441,10.441,0,0,1,8.383,3.473c3.449,3.937,3.65,10.191,3.488,13.416a20.693,20.693,0,0,1,16.562,17.662c2.1,13.562-11.112,20.418-11.676,20.7a2.094,2.094,0,0,1-1.9-3.734h0c.452-.232,11.064-5.795,9.433-16.328-1.966-12.7-13.586-14.32-14.905-14.464a2.094,2.094,0,0,1-1.846-2.382c.323-2.268.539-8.872-2.316-12.12a6.354,6.354,0,0,0-5.177-2.039,4.934,4.934,0,0,0-4.678,2.525c-2.285,4.02-.85,11.368-.045,13.708.309.564.486.932.52,1a2.093,2.093,0,0,1-3.123,2.59,4.221,4.221,0,0,1-1.142-1.722c-1.4-2.528-4.558-7.051-8.148-7.937a5.846,5.846,0,0,0-5.069,1.3,5.777,5.777,0,0,0-2.69,4.491c-.133,4.068,4.289,8.767,6,10.234a2.093,2.093,0,0,1,.378,2.757c-.052.079-5.389,8.209-2.92,14.719,1.35,3.556,4.9,6.117,10.557,7.609a2.094,2.094,0,0,1-.532,4.118Z" transform="translate(-765.146 -694.927)"/></g><g transform="translate(179.534 135.838)"><path class="a" d="M787.5,742.337s13.395-5.919,15.722,5.12-11.577,10.885-15.016,7.306" transform="translate(-785.402 -738.667)"/><path d="M793.95,758.129c-3.216,0-6.4-.987-8.165-2.819a2.093,2.093,0,1,1,3.019-2.9c1.364,1.42,6.167,2.29,9.282.642,2.091-1.107,2.8-3.091,2.176-6.066a5.811,5.811,0,0,0-2.889-4.336c-3.174-1.627-8.25-.047-9.937.7a2.094,2.094,0,0,1-1.693-3.831c.323-.142,7.959-3.455,13.54-.6a9.857,9.857,0,0,1,5.077,7.2c1.006,4.772-.567,8.647-4.315,10.63A13.226,13.226,0,0,1,793.95,758.129Z" transform="translate(-784.495 -737.765)"/></g></svg>