<svg xmlns="http://www.w3.org/2000/svg" width="121.738" height="118.759" viewBox="0 0 121.738 118.759">
  <g id="Group_80" data-name="Group 80" transform="translate(-237.663 -682.256)">
    <g id="Group_55" data-name="Group 55" transform="translate(260 708.44)">
      <path id="Path_476" data-name="Path 476" d="M70.027,194.643c2.479-2.146,6-5.517,9.235-4.957a2.926,2.926,0,0,1,2.529,1.9c.3,1.346-.924,2.482-1.838,3.515a10.124,10.124,0,0,0-2.471,5.6,4.793,4.793,0,0,1-.768,2.823,3.588,3.588,0,0,1-2.342.9c-2.228.243-8.157.254-9.1-2.511C64.288,199.006,68.167,196.254,70.027,194.643Z" transform="translate(-11.76 -189.624)" fill="#eeb722"/>
      <path id="Path_477" data-name="Path 477" d="M77.662,201.949c-1.6-2.985-5.263-4.422-8.643-4.213s-6.524,1.781-9.4,3.567a60.555,60.555,0,0,0-27.446,41.091c-.734,4.477-.928,9.207.761,13.418s5.642,7.762,10.179,7.822A23.35,23.35,0,0,0,56.1,276.028c4.517,1.7,9.783,1.9,14.037-.381a33.634,33.634,0,0,0,15.086,7.207,23.477,23.477,0,0,0,16.131-2.881c4.66,1.039,9.873-.569,13.924-3.1a34.182,34.182,0,0,0,15.713-30.161,55.715,55.715,0,0,0-10.388-29.73,30.428,30.428,0,0,0-9.625-9.155c-3.915-2.147-8.767-2.911-12.9-1.215-2.314-2.921-5.2-5.384-8.841-6.194A18.707,18.707,0,0,0,77.662,201.949Z" transform="translate(-31.63 -190.631)" fill="#ff8b0e"/>
      <path id="Path_478" data-name="Path 478" d="M39.565,220.855c1.757,3.76,3.979,7.334,5.164,11.311,1.249,4.194,1.324,8.772,3.346,12.654a4.023,4.023,0,0,0,1.038,1.376c1.313,1.009,3.368.29,4.3-1.08a7.9,7.9,0,0,0,.951-4.785,36.725,36.725,0,0,0-9.418-23.087c-1.034-1.138-3.1-2.724-4.741-1.913C38.031,216.4,38.784,219.181,39.565,220.855Z" transform="translate(38.768 -192.793)" fill="#fcb643"/>
      <path id="Path_479" data-name="Path 479" d="M41.69,221.464a60.309,60.309,0,0,1,5.735,45.219" transform="translate(41.113 -193.584)" fill="none" stroke="#ce6c00" stroke-linecap="round" stroke-linejoin="round" stroke-width="0.916"/>
      <path id="Path_480" data-name="Path 480" d="M127.178,231.6c-1.99,1.412-2.991,3.806-3.872,6.081C121.247,243,119.29,248.5,119.172,254.2a9.933,9.933,0,0,0,.806,4.672,4.489,4.489,0,0,0,3.724,2.622,4.549,4.549,0,0,0,3.586-2,11.24,11.24,0,0,0,1.63-3.916c1.114-4.334,1.6-8.866,3.38-12.97a26.868,26.868,0,0,0,2.137-5.313C135.3,232.938,131.518,228.524,127.178,231.6Z" transform="translate(-111.809 -194.717)" fill="#fcb643"/>
      <path id="Path_481" data-name="Path 481" d="M81.857,260.782c-12.96-2.679-11.765-17.3-11.765-17.3a243.462,243.462,0,0,0,28.4,5.854S95.735,263.65,81.857,260.782Z" transform="translate(-32.748 -196.322)" fill="#1d1d1b"/>
      <path id="Path_482" data-name="Path 482" d="M98.155,256.256c-2.323,3.518-6.577,7-14.086,5.444-7.126-1.473-9.973-6.556-11.091-10.833a18.678,18.678,0,0,0,11.449,7.738A18.961,18.961,0,0,0,98.155,256.256Z" transform="translate(-34.96 -197.24)" fill="#575756"/>
      <path id="Path_483" data-name="Path 483" d="M106.17,221.136a17.513,17.513,0,0,0-11.242,9.52,4.591,4.591,0,0,0-.354,3.883c.61,1.206,2.025,1.737,3.327,2.1a15.583,15.583,0,0,0,4.89.71,6.969,6.969,0,0,0,4.517-1.78,10.835,10.835,0,0,0,2.1-3.383C111.222,228.231,114.142,219,106.17,221.136Z" transform="translate(-66.91 -193.504)" fill="#1d1d1b"/>
      <path id="Path_484" data-name="Path 484" d="M100.043,236.637c-1.3-.361-2.716-.892-3.327-2.1a4.591,4.591,0,0,1,.354-3.883,17.514,17.514,0,0,1,11.242-9.52,5.828,5.828,0,0,1,3.414-.112c-3.975,1.707-4.856,2.418-7.256,4.919S99.695,233.188,100.043,236.637Z" transform="translate(-69.051 -193.504)" fill="#575756"/>
      <path id="Path_485" data-name="Path 485" d="M80.708,236.114c-.547.692-1.009,1.685-.5,2.405a1.586,1.586,0,0,0,1.8.437,4.634,4.634,0,0,0,1.6-1.145c.311.353.522.782.818,1.147a1.537,1.537,0,0,0,1.191.657,1.336,1.336,0,0,0,1.089-.846,3.558,3.558,0,0,0,.217-1.421c.01-1.461-.246-3.17-1.53-3.875C83.478,232.422,81.725,234.827,80.708,236.114Z" transform="translate(-29.864 -195.045)" fill="#1d1d1b"/>
      <path id="Path_486" data-name="Path 486" d="M79.987,238.275c.154.233.3.473.476.69a1.537,1.537,0,0,0,1.191.657,1.336,1.336,0,0,0,1.089-.846,3.558,3.558,0,0,0,.217-1.421c.01-1.461-.246-3.17-1.53-3.875a2.11,2.11,0,0,0-.548-.212,6.174,6.174,0,0,1,.641,3.632,2.262,2.262,0,0,1-.218.665A1.617,1.617,0,0,1,79.987,238.275Z" transform="translate(-25.903 -195.052)" fill="#575756"/>
      <path id="Path_487" data-name="Path 487" d="M63.356,228.575A17.512,17.512,0,0,1,69.6,241.917a4.588,4.588,0,0,1-1.3,3.676c-1.058.842-2.565.734-3.9.519a15.559,15.559,0,0,1-4.74-1.4,6.965,6.965,0,0,1-3.362-3.5,10.847,10.847,0,0,1-.494-3.949C55.8,232.914,57,223.309,63.356,228.575Z" transform="translate(8.631 -194.277)" fill="#1d1d1b"/>
      <path id="Path_488" data-name="Path 488" d="M59.911,246.114c1.334.215,2.841.322,3.9-.519a4.588,4.588,0,0,0,1.3-3.676,17.512,17.512,0,0,0-6.244-13.342,5.834,5.834,0,0,0-3.057-1.526c2.9,3.209,3.405,4.223,4.542,7.5S61.666,243.125,59.911,246.114Z" transform="translate(13.123 -194.279)" fill="#575756"/>
      <path id="Path_489" data-name="Path 489" d="M91.7,247.607a.411.411,0,0,0,.01.27.4.4,0,0,0,.163.145,6.6,6.6,0,0,0,3.821.917.781.781,0,0,0,.44-.126.818.818,0,0,0,.232-.391,22.105,22.105,0,0,0,.95-3.581c-.828-.349-4.153-1.729-4.961-1.093C91.879,244.128,91.841,246.878,91.7,247.607Z" transform="translate(-50.509 -196.334)" fill="#ff8b0e"/>
      <path id="Path_490" data-name="Path 490" d="M75.507,251.175a13.975,13.975,0,0,0,4.63.768.5.5,0,0,0,.588-.395,12.14,12.14,0,0,0,.8-3.426c.009-.106-4.579-1.12-5-.877C75.763,247.687,75.675,250.4,75.507,251.175Z" transform="translate(-20.54 -196.785)" fill="#ff8b0e"/>
      <path id="Path_491" data-name="Path 491" d="M86.584,258.035a.4.4,0,0,1,.527-.327,37.137,37.137,0,0,1,4.162.649.336.336,0,0,1,.215.108.328.328,0,0,1,.022.241,42.992,42.992,0,0,1-1.126,5.029c-.09.314-5.111-.391-5.365-.915-.2-.425.374-1.26.528-1.672C85.929,260.126,86.239,259.07,86.584,258.035Z" transform="translate(-38.832 -198.09)" fill="#ff8b0e"/>
      <g id="Group_54" data-name="Group 54" transform="translate(10.867 13.855)">
        <path id="Path_492" data-name="Path 492" d="M128.489,205.447a63.729,63.729,0,0,0-29.891,55.1" transform="translate(-98.574 -205.447)" fill="none" stroke="#ce6c00" stroke-linecap="round" stroke-linejoin="round" stroke-width="0.916"/>
        <path id="Path_493" data-name="Path 493" d="M64.044,211.692a41.346,41.346,0,0,1,3.85,9.9" transform="translate(-7.743 -206.224)" fill="none" stroke="#ce6c00" stroke-linecap="round" stroke-linejoin="round" stroke-width="0.916"/>
        <path id="Path_494" data-name="Path 494" d="M63.623,253.716a74.9,74.9,0,0,1-2.612,26.7" transform="translate(-1.072 -211.449)" fill="none" stroke="#ce6c00" stroke-linecap="round" stroke-linejoin="round" stroke-width="0.916"/>
        <path id="Path_495" data-name="Path 495" d="M99.592,266.081a41.375,41.375,0,0,0-2.457,14.954" transform="translate(-68.408 -212.987)" fill="none" stroke="#ce6c00" stroke-linecap="round" stroke-linejoin="round" stroke-width="0.916"/>
      </g>
    </g>
    <g id="Group_61" data-name="Group 61" transform="translate(181.842 600.102)">
      <line id="Line_1" data-name="Line 1" y2="12.885" transform="translate(64.318 166.546)" fill="none" stroke="#000" stroke-linecap="round" stroke-linejoin="round" stroke-width="1.463"/>
      <line id="Line_2" data-name="Line 2" x2="11.163" transform="translate(59.358 172.923)" fill="none" stroke="#000" stroke-linecap="round" stroke-linejoin="round" stroke-width="1.463"/>
      <line id="Line_3" data-name="Line 3" x1="9.611" y2="10.086" transform="translate(59.171 168.628)" fill="none" stroke="#000" stroke-linecap="round" stroke-linejoin="round" stroke-width="1.463"/>
      <line id="Line_4" data-name="Line 4" x2="9.314" y2="9.774" transform="translate(59.482 168.238)" fill="none" stroke="#000" stroke-linecap="round" stroke-linejoin="round" stroke-width="1.463"/>
    </g>
    <g id="Group_66" data-name="Group 66" transform="translate(65.254 640.928)">
      <line id="Line_21" data-name="Line 21" y2="12.885" transform="translate(271.392 49.244)" fill="none" stroke="#000" stroke-linecap="round" stroke-linejoin="round" stroke-width="1.463"/>
      <line id="Line_22" data-name="Line 22" x2="11.163" transform="translate(266.432 55.621)" fill="none" stroke="#000" stroke-linecap="round" stroke-linejoin="round" stroke-width="1.463"/>
      <line id="Line_23" data-name="Line 23" x1="9.611" y2="10.086" transform="translate(266.246 51.327)" fill="none" stroke="#000" stroke-linecap="round" stroke-linejoin="round" stroke-width="1.463"/>
      <line id="Line_24" data-name="Line 24" x2="9.313" y2="9.774" transform="translate(266.556 50.936)" fill="none" stroke="#000" stroke-linecap="round" stroke-linejoin="round" stroke-width="1.463"/>
    </g>
    <g id="Group_68" data-name="Group 68" transform="translate(150.575 614.402)">
      <path id="Path_516" data-name="Path 516" d="M122.532,81.439a3.364,3.364,0,0,1,.163-.961,4.436,4.436,0,0,1,.9-1.619,3.959,3.959,0,0,1,1.462-1.1,3.048,3.048,0,0,1,.927-.257,1.914,1.914,0,0,1,2.056,1.756c0,.047.006.1.007.144a3.1,3.1,0,0,1-.177.948A3.983,3.983,0,0,1,126.9,81.9a4.443,4.443,0,0,1-1.534,1.031,3.4,3.4,0,0,1-.942.244,1.757,1.757,0,0,1-1.884-1.616C122.534,81.524,122.532,81.479,122.532,81.439Z" fill="#fff" stroke="#000" stroke-width="1"/>
      <path id="Path_517" data-name="Path 517" d="M132.2,71.457a2.539,2.539,0,0,1-.1-.778,2.438,2.438,0,0,1,.371-1.292,2.114,2.114,0,0,1,1-.849,2.259,2.259,0,0,1,.748-.181,2.316,2.316,0,0,1,2.295,1.609,2.278,2.278,0,0,1,.088.766,2.125,2.125,0,0,1-.452,1.236,2.43,2.43,0,0,1-1.082.793,2.543,2.543,0,0,1-.763.17A2.131,2.131,0,0,1,132.2,71.457Z" fill="#fff" stroke="#000" stroke-width="1"/>
      <path id="Path_518" data-name="Path 518" d="M134.61,78.129a3.453,3.453,0,0,1,.243-.953,4.58,4.58,0,0,1,1.033-1.565,4.083,4.083,0,0,1,1.559-1,3.085,3.085,0,0,1,.953-.194,1.9,1.9,0,0,1,1.92,1.88c0,.056,0,.115-.006.169a3.113,3.113,0,0,1-.256.94,4.1,4.1,0,0,1-1.1,1.493,4.552,4.552,0,0,1-1.626.929,3.426,3.426,0,0,1-.966.18,1.745,1.745,0,0,1-1.758-1.729C134.6,78.229,134.607,78.177,134.61,78.129Z" fill="#fff" stroke="#000" stroke-width="1"/>
    </g>
    <path id="Path_528" data-name="Path 528" d="M84.969,120.382a9.665,9.665,0,0,1,.361,3.092,3.476,3.476,0,0,1-1.458,2.645,2.155,2.155,0,0,1-2.812-.4c-.718-1-.233-2.481-.849-3.545-.794-1.371-2.863-1.285-4.045-2.341a2.566,2.566,0,0,1,.979-4.372,4.725,4.725,0,0,1,2.22.034q1.137.216,2.252.529c2.192.613,4.406-.66,6.137-2.14q2.279-1.948,4.378-4.094a9.234,9.234,0,0,0,2.488-3.619c.525-1.755.126-3.9,1.386-5.227a1.642,1.642,0,0,1,2.328-.222c.551.649.22,1.689.62,2.44.562,1.057,2.1.94,3.177,1.454a2.969,2.969,0,0,1,1.31,3.77,3.479,3.479,0,0,1-3.648,1.895,5.825,5.825,0,0,0-1.731-.233,3.292,3.292,0,0,0-1.585.929C92.8,114.2,88.646,117.154,84.969,120.382Z" transform="translate(162.868 608.117)" fill="#fff" stroke="#000" stroke-width="1"/>
  </g>
</svg>
