<svg xmlns="http://www.w3.org/2000/svg" width="138.962" height="199.293" viewBox="0 0 138.962 199.293">
  <g id="Group_79" data-name="Group 79" transform="translate(0 0)">
    <path id="Path_532" data-name="Path 532" d="M161.91,20.095c-22.945-.911-45.979-.446-68.938-.472-6.792-.008-13.6-.1-20.416-.193a.5.5,0,0,0-.646-.162,3.118,3.118,0,0,0-.279.149c-15.878-.224-31.786-.463-47.6.236a.785.785,0,0,0-.3,1.5c-.483,4.821-.2,9.784-.222,14.615q-.034,7.752-.04,15.506L23.46,82.287c-.011,20.69-.1,41.351.642,62.026a.288.288,0,0,0,.575,0c.354-9.874.516-19.746.59-29.619,3.553-1.88,6.8-3.64,11-3.792s7.251,1.558,11.061,2.871a.483.483,0,0,0,.291,0c2.316,8.462,4.807,16.867,7.649,25.127a.435.435,0,0,0,.838-.231c-1.835-8.591-3.98-17.125-6.223-25.639A39.039,39.039,0,0,1,64.3,104.616a33.916,33.916,0,0,1,8.572-1.426c2.294-.074,4.681.448,6.946.17,5.615,8.38,11.036,17,17.335,24.872.364.455,1.055-.126.786-.606-5.05-9.028-11.169-17.512-16.979-26.079,1.886-4.373,3.269-8.639,6.4-12.422a30.465,30.465,0,0,1,5.758-5.384c1.943-1.383,4.226-2.2,6.132-3.583a.828.828,0,0,0,.129-.129c9.651,7.378,19.43,14.59,29.564,21.187.417.272.928-.37.539-.7-9.241-7.8-18.9-15.147-28.613-22.408a45.959,45.959,0,0,1,6.973-17.755,39.615,39.615,0,0,1,6.623-7.444c2.545-2.216,5.514-3.606,8.222-5.483,9.455,2.929,18.849,6.214,28.428,8.658a.511.511,0,0,0,.272-.985c-8.911-3.66-18.274-6.4-27.524-9.174a.67.67,0,0,0-.379-.424c-.185-3.79-1.006-7.442-.613-11.306.471-4.624,2.054-8.651,3.872-12.849,11.73,0,23.458-.1,35.163-.566A.344.344,0,0,0,161.91,20.095ZM92.972,21.254c4.17,0,8.344.012,12.518.028-3.261,4.563-5.219,12.2-4.234,17.954Q94.782,37.39,88.289,35.61l-.022-.006a22.046,22.046,0,0,1-.539-5.808c.316-3.346,1.98-5.66,3.3-8.532C91.673,21.262,92.323,21.254,92.972,21.254ZM86.406,67.313q-4.159-3.119-8.285-6.267-2.5-1.917-5-3.845a27.854,27.854,0,0,1,5.1-11.751c2.833-3.614,6.3-5.239,9.986-7.452a.263.263,0,0,0,.334-.2l.256-.155q6.5,1.779,12.976,3.632c.022.065.044.129.065.195-4.734,1.57-8.725,7.344-11.023,11.387C88.594,56.761,86.028,62.5,86.406,67.313ZM29.715,42.756c.565,2.346,1.136,4.686,1.69,7.017.183.77.372,1.537.555,2.308a5.86,5.86,0,0,0-3.613-.774,6.518,6.518,0,0,0-3.158,1.028c0-.354,0-.707,0-1.061,0-2.913.01-5.826.017-8.739a3.12,3.12,0,0,1,1.091-.441,4.022,4.022,0,0,1,2.8.784A.47.47,0,0,0,29.715,42.756Zm24.163,8.057c-1.212,1.074-3.157,3.518-3.351,5.563q-3.393-5.035-6.786-10.071-.583-.864-1.165-1.736a13.541,13.541,0,0,1,1.8-3.143,9.234,9.234,0,0,1,2.4-2.017c1.437,1.09,2.869,2.181,4.279,3.279,2.468,1.92,4.948,3.825,7.421,5.74A10.655,10.655,0,0,0,53.878,50.813ZM60.252,49.8q4.965,3.839,9.929,7.679C65,59.007,60.934,65.32,60.133,70.634Q55.92,64.373,51.7,58.116a.388.388,0,0,0,0-.068,6.177,6.177,0,0,0,1-2.347,9.181,9.181,0,0,1,2.257-3.374,9.807,9.807,0,0,1,3.512-2.058C59.058,50.065,59.664,49.958,60.252,49.8ZM47.713,37.5c-1.836-1.469-3.672-2.957-5.516-4.441a10.765,10.765,0,0,1,.28-3.693,7.475,7.475,0,0,1,2.024-2.9c2.766.636,5.532,1.265,8.29,1.913a14.518,14.518,0,0,0-2.771,3.143,11.572,11.572,0,0,0-2.135,5.917C47.828,37.465,47.771,37.48,47.713,37.5Zm-2.042,1.069a9.473,9.473,0,0,0-3.885,4.816c-1.6-2.4-3.2-4.825-4.811-7.239A5.828,5.828,0,0,1,38,35.049a5.3,5.3,0,0,1,1.958-.818Q42.812,36.414,45.671,38.571Zm-8.5-4.753a6.586,6.586,0,0,0-1.108.962c-1.91-2.836-3.855-5.648-5.882-8.385,2.694,2.313,5.491,4.536,8.32,6.719A6.283,6.283,0,0,0,37.169,33.818ZM40.71,45.276A12.089,12.089,0,0,0,33.491,49.8c-.856-3.441-1.677-6.912-2.524-10.38a2.848,2.848,0,0,1,.766-.735,15.327,15.327,0,0,1,3.518-1.4C37.062,39.963,38.9,42.621,40.71,45.276ZM25.186,53.849a6.483,6.483,0,0,1,3.579-1.179c1.214.018,2.309.9,3.454.711a.271.271,0,0,0,.049-.022q1.5,6.291,3.027,12.571a11.821,11.821,0,0,0-6.969-.146,7.538,7.538,0,0,0-3.182,1.894Q25.176,60.763,25.186,53.849ZM33.9,51.426a12.207,12.207,0,0,1,7.665-4.9c.436.642.873,1.284,1.3,1.926q2.875,4.282,5.761,8.559A11.637,11.637,0,0,0,41.7,58.946a12.657,12.657,0,0,0-4.625,5.166Q35.483,57.768,33.9,51.426Zm8.371,9.311c2.32-1.617,4.819-1.89,7.466-2.078q4.712,7,9.418,13.992c-6.223-1.892-14.62.288-18.441,5.877Q39.188,72.569,37.7,66.6C39.245,64.575,40.01,62.31,42.266,60.737Zm.407,34.114c-5.707-2.381-14.07-.39-17.352,4.915q.008-7.858,0-15.72c1.959-1.755,3.561-3.526,6.277-4.159,2.8-.653,4.916.427,7.5.831Q40.893,87.766,42.673,94.851ZM41.047,79.862a23.768,23.768,0,0,1,6.581-4.719c3.662-1.564,7.234-1.552,11.109-.956a.83.83,0,0,0,.971-.707l1.351,2.006q3.353,4.983,6.706,9.963a19.094,19.094,0,0,0-13.374.68c-3.444,1.48-7.836,4.723-9.429,8.561C43.632,89.749,42.313,84.809,41.047,79.862Zm20.9-6.532-.841-1.25a20.083,20.083,0,0,1,3.672-7.96c2.024-2.526,4.574-3.65,7.062-5.362q2.079,1.6,4.153,3.2,3.672,2.817,7.337,5.664c-3.316.754-7.007,4.151-8.7,6.18a19.96,19.96,0,0,0-4.62,11.5ZM70.316,26.1a21.248,21.248,0,0,1,1.816-4.647c5.658-.078,11.311-.153,16.955-.183-2.944,3.275-4.072,9.5-2.584,13.854Q78.531,32.962,70.53,30.9A14.727,14.727,0,0,1,70.316,26.1Zm.484,6.77q7.614,1.96,15.206,4.011c-3.636,1.378-6.966,4.5-9.178,7.341A21.677,21.677,0,0,0,72.04,56.372q-5.349-4.113-10.688-8.238a20.263,20.263,0,0,1,2.639-8.22c1.65-2.708,4.246-4.08,6.129-6.439A.76.76,0,0,0,70.8,32.874ZM55.233,23.7a8.131,8.131,0,0,1,.433-2.048q7.061-.054,14.122-.163a14.144,14.144,0,0,0-1.317,4.238,13.767,13.767,0,0,0,0,4.653q-6.069-1.549-12.154-3.034l-.115-.028A6.867,6.867,0,0,1,55.233,23.7Zm1.939,5.734q6,1.479,11.987,3.02c.047.094.1.182.154.273-2.814.782-5.263,4.047-6.673,6.4A18.279,18.279,0,0,0,60.024,47.1q-4.323-3.344-8.639-6.7c-.829-.644-1.656-1.3-2.482-1.956l.066-.19a.654.654,0,0,0,.095-.278,20.182,20.182,0,0,1,2.307-5.666c.987-1.417,2.467-2.276,3.659-3.4C55.744,29.089,56.459,29.258,57.172,29.434ZM45.963,24.161a5.063,5.063,0,0,1,.708-2.482q3.735.006,7.472-.016a5.824,5.824,0,0,0-.405,1.817,7,7,0,0,0,.557,3.372c-2.773-.68-5.553-1.368-8.341-2.035A6.027,6.027,0,0,0,45.963,24.161Zm-.608-2.488a5.555,5.555,0,0,0-.389,1.014,5.722,5.722,0,0,0-.225,1.841c-4.959-1.175-9.942-2.267-14.955-3.1C34.968,21.591,40.16,21.656,45.355,21.673ZM43.1,26.148a6.818,6.818,0,0,0-1.918,2.771,7.471,7.471,0,0,0-.518,2.911C36.507,28.5,32.3,25.235,27.926,22.3,32.93,23.746,38.01,24.969,43.1,26.148Zm-8.41,10.3a8.132,8.132,0,0,0-4.1,1.425c-1.176-4.763-2.42-9.511-3.9-14.161C29.147,28.051,31.882,32.275,34.69,36.448ZM25.119,21.815c.129.124.262.245.394.367.856,6.075,2.192,12.124,3.618,18.132a2.445,2.445,0,0,0,.054,1.226,3.834,3.834,0,0,0-2.842-.928,5.116,5.116,0,0,0-1.135.215c0-1.451.007-2.9,0-4.354-.021-4.853.278-9.846-.148-14.7C25.074,21.786,25.1,21.8,25.119,21.815ZM25,82.618v-.331c0-4,.069-7.99.086-11.985,1.6-1.433,2.662-2.734,4.993-3.1,1.88-.292,3.729.233,5.578.242C36.6,71.266,37.5,75.082,38.472,78.9,34.519,76.334,28,78.6,25,82.618Zm.279,30.768c.024-3.554.027-7.109.033-10.664,2.413-2.3,4.248-4.7,7.543-5.959,3.541-1.354,6.811-.873,10.284-.078,1.317,5.179,2.652,10.36,4.051,15.521C41.478,107.55,30.665,108.417,25.279,113.386Zm37.511-10.27a30.976,30.976,0,0,0-13.281,8.5c-1.288-4.864-2.6-9.721-3.916-14.577,1.237-1.42,2.039-3.155,3.323-4.576a18.587,18.587,0,0,1,5.534-4.193c4.955-2.451,9.87-1.881,14.888-.483l9.324,13.852C73.911,100.07,67.013,101.678,62.79,103.116ZM85.727,88.2c-2.589,3.28-5.163,7.662-5.673,12.009L71.765,87.906c.753-4.887,1.194-9.021,4.691-13.033a19.476,19.476,0,0,1,5.18-4.158c1.189-.667,2.5-.955,3.571-1.64q6.4,4.97,12.837,9.929C93.3,80.048,88.573,84.6,85.727,88.2Zm21.06-29.65A36.349,36.349,0,0,0,99.775,77.29q-5.94-4.433-11.878-8.858c.685-2.194.782-4.591,1.411-6.82a34.207,34.207,0,0,1,3.545-8.195,34.794,34.794,0,0,1,5.13-6.636c1.568-1.588,3.49-2.857,4.856-4.616a.561.561,0,0,0,.215-.275c.01-.014.022-.027.032-.041a.343.343,0,0,0,.063-.186q8.212,2.352,16.4,4.8l.341.1C114.657,49.028,109.858,54.281,106.787,58.554ZM122.01,45.365c-.665-.2-1.332-.4-2-.6q-8.382-2.558-16.807-4.971c.089-3.159-.213-6.251.394-9.476a67.1,67.1,0,0,1,2.857-9.031q9.161.036,18.328.06C120.782,27.783,118.87,38.361,122.01,45.365Z" transform="translate(-23.28 -19.189)"/>
    <line id="Line_25" data-name="Line 25" x2="15" y2="93.055" transform="translate(14.5 90.445)" fill="none" stroke="#000" stroke-width="2"/>
    <path id="Path_541" data-name="Path 541" d="M346.238,132.729a9.784,9.784,0,0,0-5-2.975,7.323,7.323,0,0,0,1.447-1.48,9.538,9.538,0,0,0-.116-10.564c-.143-.215-.543-.1-.5.173.43,2.742,1.046,5.526-.287,8.136a5.024,5.024,0,0,1-4.753,3.126,4.53,4.53,0,0,0,.3-.614.2.2,0,0,0,.141-.044,5.981,5.981,0,0,0,1.69-6.83.324.324,0,0,0-.626.13,11.57,11.57,0,0,1-.87,5.245c.132-2.955-2.335-6.793-5.639-4.924-2.193,1.242-2.731,4.428-1.573,6.608a4.977,4.977,0,0,1-2.678-2.308c-.9-1.739-.214-3.167,0-4.933a.387.387,0,0,0-.589-.392c-1.765,1.289-1.575,4.225-.621,5.962a5.531,5.531,0,0,0,4.777,2.848c.078.083.15.172.235.251-2.457.008-5.321.641-7.1-1.456-1.925-2.267-1.032-5.216-.813-7.873.023-.273-.362-.465-.493-.169-1.252,2.829-1.873,6.689.292,9.258a6.1,6.1,0,0,0,4.191,2.058,10.766,10.766,0,0,0-6.014,6.79c-.737,2.923.4,6.435,3.534,7.217a.662.662,0,0,0,.562-1.141c-4.623-3.867-1.534-9.09,2.619-11.757-3.961,5.382-1.354,13.592,5.226,15.841.4.137.537-.465.225-.656-5.963-3.636-7.217-9.876-3.966-15.569-1.521,3.294-.926,8.891.995,10.783a4.753,4.753,0,0,0,6.523-.125c2.412-2.1,2.656-5.962,2.081-8.9-.031-.155-.082-.308-.124-.463,2.947,4.567,2.607,9.192-.322,14.5-.25.454.377,1.056.795.692,5.438-4.737,4.313-14.162-1.565-17.976a6.17,6.17,0,0,0,.891-.25c2.08.814,4.162.99,5.781,2.974,1.673,2.05,1.923,4.649,1.927,7.185a.445.445,0,0,0,.836.166A7.825,7.825,0,0,0,346.238,132.729Z" transform="translate(-305.891 50)"/>
  </g>
</svg>
