<?xml version="1.0"?>
<svg xmlns="http://www.w3.org/2000/svg" xmlns:xlink="http://www.w3.org/1999/xlink" xmlns:svgjs="http://svgjs.com/svgjs" version="1.1" width="512" height="512" x="0" y="0" viewBox="0 0 512 512" style="enable-background:new 0 0 512 512" xml:space="preserve" class=""><g>
<g xmlns="http://www.w3.org/2000/svg">
	<g>
		<path d="M497,0h-91c-24.813,0-45,20.187-45,45s20.187,45,45,45h15c16.262,0,30,14.196,30,31s-13.738,31-30,31h-14.963    C364.37,96.675,299.242,62,226,62C101.383,62,0,162.935,0,287s101.383,225,226,225c124.724,0,225-101.256,225-225    c0-37.262-9.005-73.138-25.971-105.154C456.106,179.729,481,153.024,481,121c0-32.896-26.584-61-60-61h-15    c-8.271,0-15-6.729-15-15s6.729-15,15-15h91c8.284,0,15-6.716,15-15S505.284,0,497,0z M30,287c0-107.523,87.925-195,196-195    c14.356,0,28.35,1.574,41.831,4.532C151.462,118.659,61,221.161,61,347c0,17.975,1.921,35.91,5.664,53.428    C43.599,368.448,30,329.276,30,287z M114.575,447.33C98.946,416.042,91,382.31,91,347c0-124.065,100.935-225,225-225    c4.842,0,9.722,0.162,14.557,0.47c13.233,8.439,25.385,18.429,36.197,29.713c-155.022,5.489-270.31,147.802-241.364,302.104    C121.704,452.084,118.099,449.761,114.575,447.33z M226,482c-23.096,0-45.266-4.007-65.86-11.338    c-12.103-41.11-12.496-86.376,0.656-129.365c59.416,20.745,101.494,73.037,108.999,135.654C255.605,480.259,240.928,482,226,482z     M330.353,451.499c-9.979,6.334-20.532,11.775-31.527,16.236c-10.782-72.116-61.217-131.009-127.346-154.47    c6.326-13.747,13.999-26.747,22.847-38.839C272.824,287.968,331,356.393,331,437C331,441.835,330.771,446.687,330.353,451.499z     M390.319,391.972c-8.435,13.122-18.379,25.099-29.538,35.737c-4.026-85.347-63.222-157.547-144.383-179.141    c12.623-12.715,26.75-23.933,42.089-33.366C335.598,230.52,391,297.695,391,377C391,381.992,390.763,387.011,390.319,391.972z     M415.751,332.116c-14.898-62.983-59.516-113.088-117.503-136.262C322.491,186.898,348.684,182,376,182    c4.843,0,9.712,0.169,14.552,0.478C409.821,212.707,421,248.571,421,287C421,302.215,419.252,317.346,415.751,332.116z" fill="#0f8a7f" data-original="#000000" style=""/>
	</g>
</g>
<g xmlns="http://www.w3.org/2000/svg">
</g>
<g xmlns="http://www.w3.org/2000/svg">
</g>
<g xmlns="http://www.w3.org/2000/svg">
</g>
<g xmlns="http://www.w3.org/2000/svg">
</g>
<g xmlns="http://www.w3.org/2000/svg">
</g>
<g xmlns="http://www.w3.org/2000/svg">
</g>
<g xmlns="http://www.w3.org/2000/svg">
</g>
<g xmlns="http://www.w3.org/2000/svg">
</g>
<g xmlns="http://www.w3.org/2000/svg">
</g>
<g xmlns="http://www.w3.org/2000/svg">
</g>
<g xmlns="http://www.w3.org/2000/svg">
</g>
<g xmlns="http://www.w3.org/2000/svg">
</g>
<g xmlns="http://www.w3.org/2000/svg">
</g>
<g xmlns="http://www.w3.org/2000/svg">
</g>
<g xmlns="http://www.w3.org/2000/svg">
</g>
</g></svg>
